<?xml version="1.0" encoding="utf-8"?>
<!-- Generator: Adobe Illustrator 24.1.2, SVG Export Plug-In . SVG Version: 6.00 Build 0)  -->
<svg version="1.1" id="Слой_1" xmlns="http://www.w3.org/2000/svg" xmlns:xlink="http://www.w3.org/1999/xlink" x="0px" y="0px"
	 viewBox="0 0 425.2 283.46" style="enable-background:new 0 0 425.2 283.46;" xml:space="preserve">
<style type="text/css">
	.st0{fill:#F7BC6D;}
	.st1{fill:#C15823;}
	.st2{fill:#C7D7EF;}
	.st3{fill:#497EE8;}
	.st4{fill:#034EA2;}
	.st5{fill:#602B0D;}
	.st6{fill:#F37021;}
	.st7{fill:#EA4F0A;}
	.st8{fill:#8E3F1C;}
	.st9{fill:#FCCF8C;}
	.st10{fill:#CC2929;}
	.st11{fill:#072E72;}
	.st12{fill:#E03636;}
	.st13{fill:#32A53F;}
	.st14{fill:#F6921E;}
	.st15{fill:#FFF78D;}
	.st16{fill:#FFFFFF;}
</style>
<g>
	<g>
		<path class="st0" d="M145.89,224.63h-12.9H18.4c2.14,2.11,4.55,3.87,7.55,4.87c7.68,2.88,18.72-4.32,21.6,2.88
			c4.32,11.52,16.32,7.68,24,11.52c3.9,2.02,6.74,4.76,8.79,7.98c0.75,0.01,1.51,0.02,2.27,0.02c7.76,0,25.45-1.22,29.73,6.6
			c7.45,1.77,44.68-1.21,45.61,6.71c8.05,2.13,18.24,1.42,26.58,1.78c7.39,0.32,14.54,0.53,21.92,0.53
			c17.05,0,36.73-0.63,52.07-8.49c-0.09-0.59-0.32-0.87-0.46-1.44c15.65-0.96,31.49,1.74,46.76,1c8.41-0.4,32.1-1.59,34.47-11.63
			c10.62,0.5,23.63-1,33.66-2.87c5.2-0.97,10.48-2.07,15.42-4.34c1.03-0.47,2.07-1.1,3.12-1.78L405,224.63H145.89z"/>
		<path class="st1" d="M86.69,241.87c0.8-1.45,1.75-2.41,2.76-3.02c1.02-0.61,2.11-0.88,3.23-0.88c1.43,0,2.91,0.44,4.22,1.17
			c1.32,0.72,2.47,1.73,3.27,2.81c0.23,0.32,0.67,0.38,0.98,0.14c0.31-0.24,0.37-0.69,0.13-1.01c-0.93-1.26-2.23-2.38-3.72-3.2
			c-1.49-0.82-3.17-1.34-4.88-1.34c-1.34,0-2.69,0.32-3.94,1.07c-1.24,0.75-2.37,1.92-3.27,3.55c-0.19,0.35-0.08,0.79,0.26,0.98
			C86.07,242.34,86.5,242.22,86.69,241.87z"/>
		<path class="st1" d="M120.22,234.8c-0.56-1.63-1.37-2.82-2.38-3.59c-1.01-0.77-2.19-1.11-3.39-1.1c-1.54,0-3.12,0.53-4.61,1.33
			c-1.48,0.81-2.87,1.9-4.02,3.1c-0.27,0.28-0.27,0.74,0,1.02c0.27,0.28,0.72,0.28,0.99,0c1.05-1.1,2.34-2.11,3.68-2.84
			c1.34-0.73,2.73-1.17,3.96-1.17c0.96,0,1.81,0.25,2.56,0.82c0.75,0.57,1.41,1.49,1.9,2.92c0.13,0.38,0.53,0.57,0.89,0.44
			C120.16,235.58,120.35,235.17,120.22,234.8z"/>
		<path class="st1" d="M123.58,246.09c-0.7-0.84-1.57-1.46-2.51-1.87c-0.95-0.41-1.98-0.61-3.02-0.61c-2.15,0-4.35,0.83-6.02,2.45
			c-0.05,0.05-0.09,0.1-0.12,0.16c-0.12,0.22-0.21,0.38-0.28,0.52c-0.03,0.07-0.06,0.13-0.09,0.2c-0.01,0.04-0.03,0.07-0.04,0.12
			c-0.01,0.05-0.02,0.11-0.03,0.2c0,0.05,0,0.11,0.02,0.19c0.03,0.12,0.11,0.29,0.26,0.4c0.15,0.12,0.32,0.15,0.43,0.15
			c0.18-0.01,0.26-0.05,0.32-0.07c0.11-0.05,0.16-0.09,0.21-0.13c0.09-0.07,0.17-0.14,0.25-0.21c0.12-0.11,0.25-0.23,0.35-0.3
			c0.05-0.04,0.08-0.06,0.09-0.06l-0.02-0.05l0.02,0.05l0,0l-0.02-0.05l0.02,0.05l-0.16-0.39v0.42c0.11,0,0.15-0.02,0.16-0.03
			l-0.16-0.39v0.42v-0.59l-0.16,0.57c0.06,0.02,0.12,0.02,0.16,0.02v-0.59l-0.16,0.57c0.37,0.11,0.76-0.11,0.87-0.49
			c0.11-0.38-0.1-0.78-0.47-0.89c-0.08-0.03-0.16-0.03-0.23-0.03c-0.19,0-0.3,0.05-0.4,0.09c-0.17,0.08-0.29,0.17-0.41,0.26
			c-0.17,0.14-0.33,0.28-0.45,0.38c-0.06,0.05-0.1,0.09-0.12,0.1l0,0l0.17,0.26l-0.13-0.28l-0.04,0.02l0.17,0.26l-0.13-0.28
			l0.25,0.52l-0.17-0.56l-0.08,0.03l0.25,0.52l-0.17-0.56l0.19,0.64v-0.67c-0.1,0-0.15,0.02-0.19,0.03l0.19,0.64v-0.67v0.7
			l0.26-0.64c-0.1-0.04-0.19-0.05-0.26-0.05v0.7l0.26-0.64l-0.26,0.65l0.62-0.3c-0.06-0.13-0.2-0.29-0.36-0.35l-0.26,0.65l0.62-0.3
			l-0.6,0.29h0.66c0-0.06,0-0.16-0.06-0.29l-0.6,0.29h0.66h-0.57l0.55,0.14c0.01-0.02,0.02-0.06,0.02-0.14h-0.57l0.55,0.14
			l-0.31-0.08l0.3,0.11l0.01-0.03l-0.31-0.08l0.3,0.11l0,0l0,0l0,0l0,0l0,0c0-0.01,0.03-0.07,0.07-0.15
			c0.04-0.09,0.11-0.2,0.19-0.35l-0.6-0.37l0.48,0.52c1.39-1.35,3.27-2.06,5.06-2.06c0.87,0,1.72,0.17,2.48,0.49
			c0.76,0.33,1.44,0.82,1.99,1.48c0.25,0.3,0.69,0.34,0.98,0.08C123.8,246.84,123.83,246.39,123.58,246.09z"/>
		<path class="st1" d="M162.64,241.77c-0.95-1.17-2.47-2.09-4.19-2.77c-1.72-0.67-3.64-1.07-5.41-1.07c-1.44,0-2.79,0.26-3.85,0.95
			c-0.53,0.35-0.98,0.81-1.29,1.39c-0.31,0.58-0.48,1.27-0.48,2.02c0,0.24,0.02,0.49,0.05,0.75c0.05,0.39,0.4,0.67,0.78,0.62
			c0.38-0.05,0.65-0.41,0.6-0.81c-0.03-0.2-0.04-0.39-0.04-0.56c0-0.55,0.11-0.98,0.3-1.33c0.28-0.52,0.75-0.91,1.43-1.19
			c0.68-0.27,1.54-0.41,2.5-0.41c1.56,0,3.35,0.37,4.92,0.98c1.57,0.61,2.92,1.47,3.61,2.34c0.25,0.3,0.69,0.35,0.98,0.09
			C162.85,242.53,162.89,242.08,162.64,241.77z"/>
		<path class="st1" d="M183.34,235.11c-1.73-0.88-3.96-1.48-6.14-1.49c-1.4,0-2.78,0.25-3.98,0.89c-1.19,0.63-2.19,1.68-2.71,3.16
			c-0.13,0.37,0.05,0.79,0.42,0.92c0.36,0.14,0.76-0.06,0.89-0.43c0.41-1.13,1.11-1.87,2.03-2.37c0.93-0.5,2.1-0.73,3.34-0.73
			c1.92,0,4,0.55,5.52,1.34c0.35,0.18,0.76,0.03,0.93-0.32C183.83,235.72,183.69,235.29,183.34,235.11z"/>
		<path class="st1" d="M194.01,256.87c-0.67-0.76-1.52-1.3-2.43-1.65c-0.91-0.35-1.9-0.51-2.87-0.51c-1.55,0-3.09,0.4-4.29,1.19
			c-0.6,0.39-1.12,0.89-1.49,1.49c-0.37,0.6-0.6,1.31-0.59,2.08l0,0.07c0.01,0.4,0.33,0.71,0.72,0.7c0.39-0.01,0.69-0.34,0.68-0.74
			l0-0.03c0-0.49,0.13-0.91,0.37-1.3c0.36-0.59,1-1.1,1.82-1.46c0.82-0.36,1.8-0.56,2.79-0.56c0.82,0,1.65,0.14,2.39,0.42
			c0.74,0.28,1.38,0.7,1.88,1.27c0.26,0.29,0.7,0.32,0.99,0.05C194.25,257.62,194.27,257.17,194.01,256.87z"/>
		<path class="st1" d="M238.6,248.9c-1.5-1.41-3.32-2.2-5.16-2.2c-1.75,0-3.5,0.73-4.88,2.23c-0.27,0.29-0.26,0.74,0.02,1.02
			c0.28,0.27,0.72,0.26,0.99-0.02c1.15-1.23,2.49-1.78,3.88-1.79c1.45,0,2.94,0.62,4.22,1.82c0.28,0.27,0.73,0.25,0.99-0.05
			C238.91,249.63,238.89,249.17,238.6,248.9L238.6,248.9z"/>
		<path class="st1" d="M260.66,235.79c-1.67-0.55-4.08-1.04-6.47-1.04c-1.65,0-3.29,0.23-4.68,0.9c-0.7,0.33-1.33,0.78-1.85,1.36
			c-0.52,0.58-0.91,1.31-1.14,2.16c-0.1,0.38,0.12,0.78,0.49,0.88c0.37,0.1,0.76-0.12,0.86-0.51c0.17-0.64,0.45-1.14,0.82-1.57
			c0.56-0.63,1.35-1.08,2.3-1.37c0.95-0.29,2.06-0.42,3.2-0.42c2.2,0,4.51,0.47,6.05,0.97c0.37,0.12,0.76-0.09,0.88-0.47
			C261.23,236.31,261.03,235.91,260.66,235.79z"/>
		<path class="st1" d="M287.34,248.12c-1.54-1.04-3.62-1.57-5.57-1.58c-1.29,0-2.52,0.23-3.51,0.79c-0.49,0.28-0.93,0.65-1.25,1.12
			c-0.32,0.47-0.51,1.06-0.52,1.68c-0.01,0.4,0.29,0.73,0.68,0.74c0.39,0.01,0.71-0.3,0.72-0.7c0.01-0.37,0.11-0.65,0.28-0.91
			c0.25-0.38,0.71-0.71,1.34-0.94c0.63-0.23,1.42-0.35,2.26-0.35c1.69-0.01,3.58,0.5,4.8,1.34c0.32,0.22,0.75,0.13,0.97-0.2
			C287.75,248.78,287.66,248.33,287.34,248.12L287.34,248.12z"/>
		<path class="st1" d="M313.63,242.98c-1.65-0.44-4.01-0.89-6.33-0.89c-1.46,0-2.9,0.18-4.16,0.69c-0.63,0.26-1.21,0.61-1.71,1.07
			c-0.5,0.46-0.9,1.03-1.18,1.72c-0.15,0.37,0.02,0.79,0.38,0.94c0.36,0.15,0.76-0.02,0.91-0.39c0.19-0.48,0.47-0.87,0.82-1.2
			c0.53-0.49,1.24-0.84,2.1-1.07c0.85-0.23,1.83-0.32,2.83-0.32c2.15,0,4.43,0.43,5.99,0.85c0.37,0.1,0.75-0.13,0.85-0.52
			C314.23,243.47,314.01,243.08,313.63,242.98z"/>
		<path class="st1" d="M325.28,240.31c0.2-0.59,0.54-1.11,1.03-1.58c0.73-0.71,1.77-1.27,2.96-1.65c1.19-0.38,2.53-0.58,3.84-0.58
			c1.98,0,3.89,0.46,5.07,1.29c0.32,0.22,0.75,0.13,0.97-0.2c0.21-0.33,0.13-0.78-0.19-1c-1.54-1.06-3.66-1.53-5.85-1.54
			c-1.92,0-3.89,0.37-5.55,1.14c-0.83,0.39-1.58,0.87-2.21,1.47c-0.62,0.6-1.12,1.32-1.4,2.16c-0.13,0.38,0.07,0.79,0.43,0.92
			C324.76,240.89,325.15,240.69,325.28,240.31L325.28,240.31z"/>
		<path class="st1" d="M352.36,237.46c-1.22-1.54-2.63-2.56-4.17-3.18c-1.54-0.62-3.18-0.84-4.88-0.84c-0.89,0-1.8,0.06-2.72,0.16
			c-0.38,0.04-0.66,0.4-0.62,0.79c0.04,0.4,0.38,0.68,0.77,0.64c0.89-0.1,1.75-0.15,2.58-0.15c1.59,0,3.05,0.21,4.37,0.74
			c1.32,0.54,2.52,1.39,3.6,2.75c0.24,0.31,0.68,0.35,0.98,0.1C352.56,238.22,352.6,237.77,352.36,237.46L352.36,237.46z"/>
		<path class="st1" d="M363.62,237.49c0.19-0.44,0.5-0.84,0.9-1.2c0.61-0.53,1.45-0.96,2.42-1.25c0.97-0.29,2.06-0.43,3.16-0.43
			c1.31,0,2.63,0.21,3.75,0.61c1.12,0.4,2.01,0.99,2.53,1.7c0.23,0.32,0.67,0.37,0.98,0.13c0.31-0.24,0.36-0.69,0.13-1.01
			c-0.76-1.01-1.89-1.71-3.18-2.18c-1.29-0.46-2.75-0.69-4.21-0.69c-1.62,0-3.24,0.28-4.62,0.88c-0.69,0.3-1.32,0.68-1.86,1.15
			c-0.54,0.47-0.98,1.04-1.27,1.71c-0.16,0.36,0,0.79,0.35,0.95C363.05,238.01,363.46,237.85,363.62,237.49z"/>
		<path class="st1" d="M294.46,234.78c0.26-0.32,0.66-0.62,1.17-0.89c0.76-0.4,1.76-0.7,2.82-0.9c1.06-0.2,2.19-0.29,3.23-0.29
			c0.98,0,1.87,0.08,2.54,0.22c0.33,0.07,0.6,0.15,0.78,0.23c0.09,0.04,0.15,0.08,0.19,0.1l0.03,0.03l0,0l0.07-0.06l-0.07,0.05
			l0.01,0.01l0.07-0.06l-0.07,0.05c0.22,0.33,0.65,0.41,0.97,0.18c0.32-0.23,0.4-0.67,0.18-1c-0.11-0.16-0.24-0.28-0.37-0.38
			c-0.24-0.17-0.5-0.29-0.8-0.39c-0.45-0.15-0.97-0.25-1.57-0.33c-0.59-0.07-1.25-0.11-1.94-0.11c-1.48,0-3.13,0.17-4.61,0.56
			c-0.74,0.2-1.44,0.45-2.07,0.78c-0.63,0.33-1.18,0.73-1.6,1.24c-0.25,0.3-0.21,0.76,0.08,1.01
			C293.77,235.12,294.21,235.08,294.46,234.78L294.46,234.78z"/>
		<path class="st1" d="M60.16,237.49c1.32,0.65,2.59,1.65,3.78,3.06c0.25,0.3,0.69,0.33,0.98,0.07c0.29-0.26,0.32-0.71,0.07-1.02v0
			c-1.29-1.55-2.72-2.68-4.23-3.42c-1.51-0.74-3.1-1.09-4.7-1.09c-2.03,0-4.07,0.56-6.03,1.56c0.34,0.39,0.7,0.75,1.07,1.07
			c1.65-0.77,3.33-1.19,4.96-1.19C57.46,236.54,58.84,236.84,60.16,237.49z"/>
	</g>
	<g>
		<path class="st2" d="M371.35,175.72h3.8v-4.66v-4.67h-7.64l-9.21-32.12h2.4v-4.86v-4.56h0.56v-1.61h-4.61l-8.51-61.22L342.46,62
			l-5.31,49.21l-0.12,0.08l0.1,0.15l-1.21,11.24l-0.15,0.1l0.12,0.18l-0.03,0.29h-4.57v1.61h0.44v4.56v4.86h1.58l-8.34,32.12h-7.64
			v4.67v4.66h4.59c-2.72,6.31-6.68,16.24-9.78,27.16c-0.31,1.09,0.05,2.26,0.16,3.37h9.55c2.83-11.61,12.7-20.17,24.45-20.17
			c11.74,0,21.62,8.56,24.44,20.17h9.55c0.11-1.11,0.17-3.37,0.17-3.37L371.35,175.72z M354.03,123.06l-5.66-3.69l-0.12-2.96
			l4.45-2.91L354.03,123.06z M351.62,123.25h-3.09l-0.09-2.07L351.62,123.25z M348.18,114.68l-0.19-4.47l3.51,2.3L348.18,114.68z
			 M352.39,111.33l-4.47-2.92l-0.1-2.39l3.51-2.3L352.39,111.33z M351.11,102.1l-3.36,2.19l-0.21-5l3.5,2.28L351.11,102.1z
			 M350.77,99.64l-3.3-2.16l-0.07-1.82l2.58-1.69L350.77,99.64z M349.75,92.36l-2.43,1.59l-1.11-27.08L349.75,92.36z M344.41,67.93
			l-0.49,27.23l-2.28-1.49L344.41,67.93z M341.46,95.32l1.88,1.23l-2.17,1.41L341.46,95.32z M340.97,99.87l2.9-1.89l-0.14,7.69
			l-3.16-2.07L340.97,99.87z M340.38,105.25l2.96,1.93l-3.4,2.22L340.38,105.25z M339.73,111.3l3.94-2.57l-0.14,7.48l-4.05-2.64
			L339.73,111.3z M339.31,115.21l4.03,2.63l-4.64,3.03L339.31,115.21z M338.5,122.77l4.98-3.25l-0.07,3.73h-4.96L338.5,122.77z
			 M342.6,134.28h7.86l6.95,32.12h-22.04L342.6,134.28z"/>
		<polygon class="st2" points="348.96,57.53 347.83,57.52 347.84,56.19 345.48,56.18 345.48,47.29 344.28,47.29 344.28,56.17 
			342.33,56.16 342.32,57.49 341.01,57.49 340.99,61.4 348.94,61.44 		"/>
	</g>
	<g>
		<rect x="308" y="184.92" class="st3" width="12.25" height="35.69"/>
		<path class="st3" d="M318.92,179.36c0,2.65-2.15,4.79-4.8,4.79c-2.65,0-4.8-2.15-4.8-4.79c0-2.65,2.15-4.8,4.8-4.8
			C316.78,174.56,318.92,176.71,318.92,179.36z"/>
		<rect x="230.47" y="184.92" class="st3" width="12.25" height="35.69"/>
		<path class="st3" d="M241.39,179.36c0,2.65-2.15,4.79-4.8,4.79s-4.8-2.15-4.8-4.79c0-2.65,2.15-4.8,4.8-4.8
			S241.39,176.71,241.39,179.36z"/>
		<path class="st3" d="M244.84,192.38v21.84h60.68v-21.84c0,0-10.12,14.92-30.37,14.38C254.9,206.23,244.84,192.38,244.84,192.38z"
			/>
		<g>
			<path class="st3" d="M246.43,193.6c0.58-0.47,1.17-0.78,1.81-0.99c0.63-0.2,1.31-0.3,2.02-0.3c1.26,0,2.66,0.3,4.14,0.77
				c2.22,0.7,4.59,1.78,6.97,2.71c2.38,0.92,4.77,1.69,7.11,1.7c1.03,0,2.04-0.15,3.01-0.53c0.97-0.37,1.9-0.96,2.73-1.79
				c0.58-0.58,1.01-1.2,1.3-1.86c0.28-0.66,0.42-1.34,0.41-2c0-0.87-0.22-1.72-0.6-2.49c-0.57-1.15-1.48-2.14-2.57-2.85
				c-1.09-0.71-2.38-1.15-3.73-1.16c-1,0-2.03,0.25-2.98,0.82c-1.01,0.61-1.76,1.24-2.27,1.92c-0.51,0.67-0.79,1.41-0.79,2.15
				c0,0.65,0.22,1.26,0.57,1.76c0.53,0.76,1.32,1.32,2.23,1.71c0.91,0.39,1.96,0.6,3.05,0.6c0.98,0,1.99-0.18,2.95-0.58l-0.69-1.64
				c-0.71,0.3-1.49,0.44-2.26,0.44c-1.13,0-2.23-0.31-2.97-0.78c-0.37-0.23-0.66-0.5-0.84-0.76c-0.18-0.26-0.25-0.5-0.26-0.76
				c0-0.29,0.1-0.63,0.43-1.07c0.33-0.44,0.9-0.95,1.77-1.47c0.66-0.4,1.36-0.57,2.06-0.57c0.63,0,1.27,0.14,1.88,0.4
				c0.91,0.39,1.74,1.04,2.33,1.81c0.59,0.77,0.92,1.65,0.92,2.51c0,0.43-0.08,0.86-0.27,1.3c-0.19,0.43-0.48,0.87-0.92,1.3
				c-0.67,0.67-1.37,1.1-2.12,1.39c-0.74,0.28-1.53,0.41-2.38,0.41c-1.29,0-2.7-0.3-4.19-0.77c-2.23-0.7-4.61-1.78-6.98-2.71
				c-2.37-0.92-4.74-1.69-7.05-1.7c-0.87,0-1.74,0.11-2.57,0.39c-0.83,0.27-1.64,0.7-2.38,1.3L246.43,193.6z"/>
		</g>
		<g>
			<path class="st3" d="M303.65,193.6c-0.58-0.47-1.17-0.78-1.81-0.99c-0.63-0.2-1.31-0.3-2.02-0.3c-1.26,0-2.66,0.3-4.14,0.77
				c-2.22,0.7-4.59,1.78-6.97,2.71c-2.38,0.92-4.77,1.69-7.11,1.7c-1.03,0-2.04-0.15-3.01-0.53c-0.97-0.37-1.9-0.96-2.73-1.79
				c-0.58-0.58-1.01-1.2-1.3-1.86c-0.28-0.66-0.42-1.34-0.41-2c0-0.87,0.22-1.72,0.6-2.49c0.57-1.15,1.48-2.14,2.57-2.85
				c1.09-0.71,2.38-1.15,3.73-1.16c1,0,2.03,0.25,2.98,0.82c1.01,0.61,1.76,1.24,2.27,1.92c0.51,0.67,0.79,1.41,0.79,2.15
				c0,0.65-0.22,1.26-0.57,1.76c-0.53,0.76-1.32,1.32-2.23,1.71c-0.91,0.39-1.96,0.6-3.05,0.6c-0.98,0-1.99-0.18-2.95-0.58
				l0.69-1.64c0.71,0.3,1.49,0.44,2.26,0.44c1.13,0,2.23-0.31,2.97-0.78c0.37-0.23,0.66-0.5,0.84-0.76c0.18-0.26,0.25-0.5,0.26-0.76
				c0-0.29-0.1-0.63-0.43-1.07c-0.33-0.44-0.9-0.95-1.77-1.47c-0.66-0.4-1.36-0.57-2.06-0.57c-0.63,0-1.27,0.14-1.88,0.4
				c-0.91,0.39-1.74,1.04-2.33,1.81c-0.59,0.77-0.92,1.65-0.92,2.51c0,0.43,0.08,0.86,0.27,1.3c0.19,0.43,0.48,0.87,0.92,1.3
				c0.67,0.67,1.37,1.1,2.12,1.39c0.74,0.28,1.53,0.41,2.38,0.41c1.29,0,2.7-0.3,4.19-0.77c2.23-0.7,4.61-1.78,6.98-2.71
				c2.37-0.92,4.74-1.69,7.05-1.7c0.87,0,1.74,0.11,2.57,0.39c0.83,0.27,1.64,0.7,2.38,1.3L303.65,193.6z"/>
		</g>
		<path class="st3" d="M167.71,192.42v21.84h60.68v-21.84c0,0-10.12,14.92-30.37,14.38C177.78,206.28,167.71,192.42,167.71,192.42z"
			/>
		<g>
			<path class="st3" d="M169.31,193.65c0.58-0.47,1.17-0.78,1.81-0.99c0.63-0.21,1.31-0.3,2.02-0.3c1.26,0,2.66,0.3,4.14,0.77
				c2.22,0.7,4.59,1.78,6.97,2.71c2.38,0.92,4.77,1.69,7.11,1.69c1.03,0,2.04-0.15,3.01-0.53c0.97-0.37,1.9-0.96,2.73-1.79
				c0.58-0.58,1.01-1.2,1.3-1.86c0.28-0.66,0.42-1.34,0.41-2c0-0.87-0.22-1.72-0.6-2.49c-0.57-1.15-1.48-2.14-2.57-2.85
				c-1.09-0.71-2.38-1.15-3.73-1.16c-1,0-2.03,0.25-2.98,0.82c-1.01,0.61-1.76,1.24-2.27,1.92c-0.51,0.67-0.79,1.42-0.79,2.15
				c0,0.65,0.22,1.26,0.57,1.76c0.53,0.76,1.32,1.32,2.23,1.71c0.91,0.39,1.96,0.6,3.05,0.6c0.98,0,1.99-0.18,2.95-0.58l-0.69-1.64
				c-0.71,0.3-1.49,0.44-2.26,0.44c-1.13,0-2.23-0.31-2.97-0.78c-0.37-0.23-0.66-0.5-0.84-0.76c-0.18-0.26-0.25-0.5-0.26-0.76
				c0-0.29,0.1-0.63,0.43-1.07c0.33-0.44,0.9-0.95,1.77-1.47c0.66-0.4,1.36-0.57,2.06-0.57c0.63,0,1.27,0.14,1.88,0.4
				c0.91,0.39,1.74,1.04,2.33,1.81c0.59,0.77,0.92,1.65,0.92,2.51c0,0.43-0.08,0.86-0.27,1.3c-0.19,0.43-0.48,0.87-0.91,1.3
				c-0.67,0.67-1.37,1.1-2.12,1.39c-0.74,0.28-1.53,0.41-2.38,0.41c-1.29,0-2.7-0.3-4.19-0.77c-2.23-0.7-4.61-1.78-6.98-2.71
				c-2.37-0.92-4.74-1.69-7.05-1.69c-0.87,0-1.74,0.11-2.57,0.38c-0.83,0.27-1.64,0.7-2.38,1.3L169.31,193.65z"/>
		</g>
		<g>
			<path class="st3" d="M226.52,193.65c-0.58-0.47-1.17-0.78-1.81-0.99c-0.63-0.21-1.31-0.3-2.02-0.3c-1.26,0-2.66,0.3-4.14,0.77
				c-2.22,0.7-4.59,1.78-6.97,2.71c-2.38,0.92-4.77,1.69-7.11,1.69c-1.03,0-2.04-0.15-3.01-0.53c-0.97-0.37-1.9-0.96-2.73-1.79
				c-0.58-0.58-1.01-1.2-1.3-1.86c-0.28-0.66-0.42-1.34-0.41-2c0-0.87,0.22-1.72,0.6-2.49c0.57-1.15,1.48-2.14,2.57-2.85
				c1.09-0.71,2.38-1.15,3.73-1.16c1,0,2.03,0.25,2.98,0.82c1.01,0.61,1.76,1.24,2.27,1.92c0.51,0.67,0.79,1.42,0.79,2.15
				c0,0.65-0.22,1.26-0.57,1.76c-0.53,0.76-1.32,1.32-2.23,1.71c-0.91,0.39-1.96,0.6-3.05,0.6c-0.98,0-1.99-0.18-2.95-0.58
				l0.69-1.64c0.71,0.3,1.49,0.44,2.26,0.44c1.13,0,2.23-0.31,2.97-0.78c0.37-0.23,0.66-0.5,0.84-0.76c0.18-0.26,0.25-0.5,0.26-0.76
				c0-0.29-0.1-0.63-0.43-1.07c-0.33-0.44-0.9-0.95-1.77-1.47c-0.66-0.4-1.36-0.57-2.06-0.57c-0.63,0-1.27,0.14-1.88,0.4
				c-0.91,0.39-1.74,1.04-2.33,1.81c-0.59,0.77-0.92,1.65-0.92,2.51c0,0.43,0.08,0.86,0.27,1.3c0.19,0.43,0.48,0.87,0.92,1.3
				c0.67,0.67,1.38,1.1,2.12,1.39c0.74,0.28,1.53,0.41,2.38,0.41c1.29,0,2.7-0.3,4.19-0.77c2.23-0.7,4.61-1.78,6.98-2.71
				c2.37-0.92,4.74-1.69,7.05-1.69c0.87,0,1.74,0.11,2.57,0.38c0.83,0.27,1.64,0.7,2.38,1.3L226.52,193.65z"/>
		</g>
		<rect x="385.98" y="184.82" class="st3" width="12.25" height="35.69"/>
		<path class="st3" d="M396.9,179.25c0,2.65-2.15,4.8-4.8,4.8c-2.65,0-4.8-2.15-4.8-4.8c0-2.65,2.15-4.8,4.8-4.8
			C394.76,174.45,396.9,176.6,396.9,179.25z"/>
		<path class="st3" d="M322.87,192.32v21.84h60.68v-21.84c0,0-10.12,14.92-30.37,14.38C332.93,206.17,322.87,192.32,322.87,192.32z"
			/>
		<g>
			<path class="st3" d="M324.46,193.54c0.58-0.47,1.17-0.78,1.81-0.99c0.63-0.2,1.31-0.3,2.02-0.3c1.26,0,2.66,0.3,4.14,0.77
				c2.22,0.7,4.59,1.78,6.97,2.71c2.38,0.92,4.77,1.69,7.11,1.69c1.03,0,2.04-0.15,3.01-0.53c0.97-0.37,1.9-0.96,2.73-1.79
				c0.58-0.58,1.01-1.2,1.3-1.86c0.28-0.66,0.42-1.34,0.41-2c0-0.87-0.22-1.72-0.6-2.49c-0.57-1.15-1.48-2.14-2.57-2.85
				c-1.09-0.71-2.38-1.15-3.73-1.16c-1,0-2.03,0.25-2.98,0.82c-1.01,0.61-1.76,1.24-2.27,1.92c-0.51,0.67-0.79,1.41-0.79,2.15
				c0,0.65,0.22,1.26,0.57,1.76c0.53,0.76,1.32,1.32,2.23,1.71c0.91,0.39,1.96,0.6,3.05,0.6c0.98,0,1.99-0.18,2.95-0.58l-0.69-1.64
				c-0.71,0.3-1.49,0.44-2.26,0.44c-1.13,0-2.23-0.31-2.97-0.78c-0.37-0.23-0.66-0.5-0.84-0.76c-0.18-0.26-0.25-0.5-0.26-0.76
				c0-0.29,0.1-0.63,0.43-1.07c0.33-0.44,0.9-0.95,1.77-1.47c0.66-0.4,1.36-0.57,2.06-0.57c0.63,0,1.27,0.14,1.88,0.4
				c0.91,0.39,1.74,1.04,2.33,1.81c0.59,0.77,0.92,1.65,0.92,2.51c0,0.43-0.08,0.86-0.27,1.3c-0.19,0.43-0.48,0.87-0.92,1.3
				c-0.67,0.67-1.38,1.1-2.12,1.39c-0.74,0.28-1.53,0.41-2.38,0.41c-1.29,0-2.7-0.3-4.19-0.77c-2.23-0.7-4.61-1.78-6.98-2.71
				c-2.37-0.92-4.74-1.69-7.05-1.7c-0.87,0-1.74,0.11-2.57,0.38c-0.83,0.27-1.64,0.7-2.38,1.3L324.46,193.54z"/>
		</g>
		<g>
			<path class="st3" d="M381.67,193.54c-0.58-0.47-1.17-0.78-1.81-0.99c-0.63-0.2-1.31-0.3-2.02-0.3c-1.26,0-2.66,0.3-4.14,0.77
				c-2.22,0.7-4.59,1.78-6.97,2.71c-2.38,0.92-4.77,1.69-7.11,1.69c-1.03,0-2.04-0.15-3.01-0.53c-0.97-0.37-1.9-0.96-2.73-1.79
				c-0.58-0.58-1.01-1.2-1.3-1.86c-0.28-0.66-0.42-1.34-0.41-2c0-0.87,0.22-1.72,0.6-2.49c0.57-1.15,1.48-2.14,2.57-2.85
				c1.09-0.71,2.38-1.15,3.73-1.16c1,0,2.03,0.25,2.98,0.82c1.01,0.61,1.76,1.24,2.27,1.92c0.51,0.67,0.79,1.41,0.79,2.15
				c0,0.65-0.22,1.26-0.57,1.76c-0.53,0.76-1.32,1.32-2.23,1.71c-0.91,0.39-1.96,0.6-3.05,0.6c-0.98,0-1.99-0.18-2.95-0.58
				l0.69-1.64c0.71,0.3,1.49,0.44,2.26,0.44c1.13,0,2.23-0.31,2.97-0.78c0.37-0.23,0.66-0.5,0.83-0.76c0.18-0.26,0.25-0.5,0.26-0.76
				c0-0.29-0.1-0.63-0.43-1.07c-0.33-0.44-0.9-0.95-1.77-1.47c-0.66-0.4-1.36-0.57-2.06-0.57c-0.63,0-1.27,0.14-1.88,0.4
				c-0.91,0.39-1.74,1.04-2.33,1.81c-0.59,0.77-0.92,1.65-0.92,2.51c0,0.43,0.08,0.86,0.27,1.3c0.19,0.43,0.48,0.87,0.91,1.3
				c0.67,0.67,1.38,1.1,2.12,1.39c0.74,0.28,1.53,0.41,2.38,0.41c1.29,0,2.7-0.3,4.19-0.77c2.23-0.7,4.61-1.78,6.98-2.71
				c2.37-0.92,4.74-1.69,7.05-1.7c0.87,0,1.74,0.11,2.57,0.38c0.83,0.27,1.64,0.7,2.38,1.3L381.67,193.54z"/>
		</g>
	</g>
	<g>
		<rect x="26.8" y="184.92" class="st3" width="12.25" height="35.69"/>
		<path class="st3" d="M28.13,179.36c0,2.65,2.15,4.79,4.8,4.79c2.65,0,4.8-2.15,4.8-4.79c0-2.65-2.15-4.8-4.8-4.8
			C30.28,174.56,28.13,176.71,28.13,179.36z"/>
		<path class="st3" d="M102.21,192.38v21.84H41.54v-21.84c0,0,10.12,14.92,30.37,14.38C92.15,206.23,102.21,192.38,102.21,192.38z"
			/>
		<g>
			<path class="st3" d="M100.62,193.6c-0.58-0.47-1.17-0.78-1.81-0.99c-0.63-0.2-1.31-0.3-2.02-0.3c-1.26,0-2.66,0.3-4.14,0.77
				c-2.22,0.7-4.59,1.78-6.97,2.71c-2.38,0.92-4.77,1.69-7.11,1.7c-1.03,0-2.04-0.15-3.01-0.53c-0.97-0.37-1.9-0.96-2.73-1.79
				c-0.58-0.58-1.01-1.2-1.3-1.86c-0.28-0.66-0.42-1.34-0.41-2c0-0.87,0.22-1.72,0.6-2.49c0.57-1.15,1.48-2.14,2.57-2.85
				c1.09-0.71,2.38-1.15,3.73-1.16c1,0,2.03,0.25,2.98,0.82c1.01,0.61,1.76,1.24,2.27,1.92c0.51,0.67,0.79,1.41,0.79,2.15
				c0,0.65-0.22,1.26-0.57,1.76c-0.53,0.76-1.32,1.32-2.23,1.71c-0.91,0.39-1.96,0.6-3.05,0.6c-0.98,0-1.99-0.18-2.95-0.58
				l0.69-1.64c0.71,0.3,1.49,0.44,2.26,0.44c1.13,0,2.23-0.31,2.97-0.78c0.37-0.23,0.66-0.5,0.84-0.76c0.18-0.26,0.25-0.5,0.26-0.76
				c0-0.29-0.1-0.63-0.43-1.07c-0.33-0.44-0.9-0.95-1.77-1.47c-0.66-0.4-1.36-0.57-2.06-0.57c-0.63,0-1.27,0.14-1.88,0.4
				c-0.91,0.39-1.74,1.04-2.33,1.81c-0.59,0.77-0.92,1.65-0.92,2.51c0,0.43,0.08,0.86,0.27,1.3c0.19,0.43,0.48,0.87,0.92,1.3
				c0.67,0.67,1.37,1.1,2.12,1.39c0.74,0.28,1.53,0.41,2.38,0.41c1.29,0,2.7-0.3,4.19-0.77c2.23-0.7,4.61-1.78,6.98-2.71
				c2.37-0.92,4.74-1.69,7.05-1.7c0.87,0,1.74,0.11,2.57,0.39c0.83,0.27,1.64,0.7,2.38,1.3L100.62,193.6z"/>
		</g>
		<g>
			<path class="st3" d="M43.41,193.6c0.58-0.47,1.17-0.78,1.81-0.99c0.63-0.2,1.31-0.3,2.02-0.3c1.26,0,2.66,0.3,4.14,0.77
				c2.22,0.7,4.59,1.78,6.97,2.71c2.38,0.92,4.77,1.69,7.11,1.7c1.03,0,2.04-0.15,3.01-0.53c0.97-0.37,1.9-0.96,2.73-1.79
				c0.58-0.58,1.01-1.2,1.3-1.86c0.28-0.66,0.42-1.34,0.41-2c0-0.87-0.22-1.72-0.6-2.49c-0.57-1.15-1.48-2.14-2.57-2.85
				c-1.09-0.71-2.38-1.15-3.73-1.16c-1,0-2.03,0.25-2.98,0.82c-1.01,0.61-1.76,1.24-2.27,1.92c-0.51,0.67-0.79,1.41-0.79,2.15
				c0,0.65,0.22,1.26,0.57,1.76c0.53,0.76,1.32,1.32,2.23,1.71c0.91,0.39,1.96,0.6,3.05,0.6c0.98,0,1.99-0.18,2.95-0.58l-0.69-1.64
				c-0.71,0.3-1.49,0.44-2.26,0.44c-1.13,0-2.23-0.31-2.97-0.78c-0.37-0.23-0.66-0.5-0.84-0.76c-0.18-0.26-0.25-0.5-0.26-0.76
				c0-0.29,0.1-0.63,0.43-1.07c0.33-0.44,0.9-0.95,1.77-1.47c0.66-0.4,1.36-0.57,2.06-0.57c0.63,0,1.27,0.14,1.88,0.4
				c0.91,0.39,1.74,1.04,2.33,1.81c0.59,0.77,0.92,1.65,0.92,2.51c0,0.43-0.08,0.86-0.27,1.3c-0.19,0.43-0.48,0.87-0.92,1.3
				c-0.67,0.67-1.37,1.1-2.12,1.39c-0.74,0.28-1.53,0.41-2.38,0.41c-1.29,0-2.7-0.3-4.19-0.77c-2.23-0.7-4.61-1.78-6.98-2.71
				c-2.37-0.92-4.74-1.69-7.05-1.7c-0.87,0-1.74,0.11-2.57,0.39c-0.83,0.27-1.64,0.7-2.38,1.3L43.41,193.6z"/>
		</g>
	</g>
	<path class="st4" d="M136.97,205.75c-18.76,0-32.44-13.44-38.28-32.67h55.84v-17.88H95.68c-0.07-1.35-0.11-2.71-0.11-4.09
		c0-1.38,0.04-2.74,0.11-4.1h58.86v-17.89H98.7c5.84-19.23,19.52-32.67,38.28-32.67c12.53,0,23.87,6,32.14,15.7l13.72-13.72
		c-11.69-14.65-28.18-23.8-46.48-23.8c-29.01,0-50.64,22.97-57.53,54.49H58.12V147h18.47c-0.05,1.36-0.08,2.72-0.08,4.1
		c0,1.37,0.03,2.74,0.08,4.09H58.12v17.89h20.72c6.88,31.52,28.51,54.49,57.53,54.49c18.3,0,34.79-9.15,46.48-23.81l-13.72-13.71
		C160.85,199.75,149.5,205.75,136.97,205.75z"/>
	<g>
		<g>
			<g>
				<path class="st5" d="M274.99,135.47c-0.41-2.06-1.51-4.31-3.01-6.08c-0.75-0.88-1.61-1.65-2.54-2.19
					c-0.93-0.55-1.95-0.88-3.01-0.88c-0.7,0-1.41,0.15-2.12,0.46c-1.63,0.73-2.83,2.25-3.62,4.08c-0.79,1.83-1.19,3.99-1.19,6.07
					c0,2.49,0.56,4.87,1.79,6.47l0.69-0.53c-1.05-1.36-1.61-3.58-1.61-5.94c0-1.97,0.38-4.03,1.12-5.72
					c0.74-1.7,1.82-3.03,3.17-3.63c0.6-0.27,1.18-0.38,1.76-0.38c0.88,0,1.74,0.27,2.57,0.76c1.24,0.73,2.39,1.93,3.3,3.32
					c0.9,1.39,1.56,2.95,1.84,4.37L274.99,135.47z"/>
			</g>
			<path class="st6" d="M206.29,68.07c-0.13-0.02-0.27-0.01-0.4,0.02c-0.04,0.69-0.15,1.39-0.35,2.05
				c-0.56-0.22-1.16-0.85-1.83-0.49c0.02,0.54,0.45,0.95,0.8,1.31c-0.47,0.02-0.98-0.04-1.33,0.2c0.3,0.03,0.58,0.18,0.91,0.15
				c-0.18,0.63-0.89,1.22-1.32,1.72c0.33,0.12,1.45,0.13,1.56,0.54c0.07,0.27-1.12,1.74-1.25,2.17c0.67,0.06,1.27-0.44,1.95-0.49
				c0.06,0.54-0.25,1-0.28,1.51c0.36-0.34,0.71-0.75,1.1-1c0.23,0.6,0.14,1.35,0.33,1.93c0.49-0.33,0.62-1.05,0.75-1.61
				c0.58,0.16,0.48,1.19,0.62,1.74c0.51-0.17,0.36-1.43,0.81-1.53c0.47-0.11,0.76,0.97,1.12,1.22c0.3-0.63-0.08-1.22-0.06-1.85
				c0.48,0.36,0.92,0.91,1.52,1.01c-0.03-0.48-0.45-0.72-0.7-1.11c0.8-0.35,1.77-0.03,2.55-0.33c-0.48-0.22-1-0.31-1.51-0.44
				c0.53-0.56,1.66-0.76,1.95-1.52c-0.85-0.07-1.65,0.18-2.46,0.29c0.07-1.09,1.86-1.59,1.63-2.88c-0.71-0.03-1.24,0.46-1.84,0.78
				c0.09-0.81,0.93-1.53,1.33-2.23c-0.6-0.09-1.6,0.62-2.06,0.4c-0.66-0.31,0.28-1.16,0.61-1.64c-0.8-0.04-1.45,0.77-2.04,1.21
				c0.03-2.11-1.53-2.07-1.5-0.02c-0.23-0.58-0.34-1.29-0.71-1.81c-0.13,0.35-0.06,1.09-0.21,1.22"/>
			<path class="st7" d="M228.68,61.35c-0.37,0.49-0.71,1.17-1.15,1.63c-0.23-0.28-0.46-0.67-0.6-1.03
				c-0.73,0.08-0.43,1.08-0.23,1.57c-0.47,0-0.88-0.11-1.35-0.08c0.36,0.85,1.12,1.47-0.12,1.92c0.47,0,0.96,0.04,1.36,0.25
				c-0.3,0.54-0.98,1.02-1.13,1.6c0.54-0.04,0.93-0.46,1.47-0.54c0.01,0.54-0.23,1.1-0.31,1.58c0.38-0.15,0.68-0.52,1.02-0.81
				c0.38,0.52,0.11,1.25,0.37,1.85c0.27-0.25,0.46-0.98,0.77-1.14c0.82-0.42,0.29,0.12,0.78,0.46c1.05,0.75,1.18,0.47,0.97-0.79
				c0.52,0.05,0.95,0.33,1.47,0.31c-0.16-0.17-0.2-0.46-0.53-0.65c0.63-0.34,1.68-0.48,2.03-1.07c-0.33-0.11-0.75-0.16-1.13-0.13
				c-0.09-0.86,0.98-1.19,0.89-2.04c-0.66-0.05-1.29,0.06-1.93,0.08c0.33-0.63,1.23-0.86,1.36-1.58c-0.66-0.11-1.22,0.23-1.81,0.31
				c0.51-1.88-0.62-0.86-1.26,0.01c0.04-0.54,0.15-1.14,0.07-1.71c-0.52,0.14-0.51,0.95-0.44,1.27c0.03-0.44-0.02-0.86-0.13-1.27
				c-0.17,0.08-0.4,0.04-0.56,0.1"/>
			<path class="st7" d="M210.12,61.79c-0.42,0.55-0.81,1.32-1.31,1.85c-0.26-0.32-0.52-0.76-0.68-1.17
				c-0.83,0.09-0.49,1.23-0.26,1.78c-0.53,0-1-0.12-1.53-0.08c0.41,0.97,1.27,1.67-0.14,2.17c0.53,0,1.09,0.05,1.55,0.28
				c-0.34,0.61-1.11,1.15-1.28,1.82c0.62-0.04,1.06-0.52,1.66-0.61c0.01,0.61-0.26,1.25-0.35,1.79c0.43-0.16,0.78-0.59,1.16-0.91
				c0.43,0.59,0.13,1.41,0.42,2.1c0.31-0.29,0.52-1.12,0.88-1.3c0.92-0.48,0.33,0.13,0.88,0.53c1.19,0.85,1.33,0.53,1.1-0.89
				c0.58,0.05,1.07,0.38,1.66,0.35c-0.18-0.19-0.23-0.52-0.6-0.73c0.71-0.39,1.9-0.54,2.3-1.22c-0.37-0.12-0.85-0.18-1.28-0.14
				c-0.1-0.97,1.11-1.34,1.01-2.31c-0.74-0.06-1.47,0.07-2.19,0.09c0.37-0.72,1.39-0.98,1.54-1.79c-0.75-0.12-1.38,0.27-2.05,0.35
				c0.58-2.13-0.71-0.97-1.43,0.01c0.05-0.61,0.17-1.29,0.08-1.94c-0.59,0.16-0.57,1.07-0.5,1.44c0.03-0.5-0.02-0.98-0.15-1.44
				c-0.2,0.09-0.45,0.04-0.63,0.12"/>
			<path class="st8" d="M235.17,27.8c-2.98-1.55-7.1,0.52-8.55,3.43c-1.65,3.31,0.87,6.65,0.57,9.97c-0.14,1.62-0.94,3.2-0.64,5.08
				c0.22,1.42,1.09,2.91,1.6,4.32c1.26,3.43,4.1,4.96,5.71,8.15c0.53,1.06,0.6,2.23,1.14,3.17c1.12-2.17,4.67-6.58,3.17-9.09
				c-1.03-1.73-2.97-0.58-4.42-1.93c-1.26-1.18-1.58-3.94-1.98-5.53c-0.46-1.84-0.19-3.59-0.46-5.47c-0.2-1.41-1.95-3.54-1.82-4.78
				c0.2-1.92,7.78-5.02,4.99-7.53"/>
			<path class="st9" d="M247.72,163.75c-0.95-1.54-0.95-3.95-1.87-5.25c-1.08-1.52-2.86-0.03-4.59,0.87
				c-1.32,0.69-3.26,1.21-4.2,2.19h2.62c1.28,6.28,4.58,13.08,7.43,18.8c0,0,0,0,0,0.01c2.75-2.03,4.87-1.57,7.87-3.28
				C253.58,174.61,248.67,165.29,247.72,163.75z"/>
			<path class="st10" d="M218.75,185.61c-2.3,7.67-4.59,15.42-6.44,23.17c-6.51,26.45-9.13,24.92-15.25,26.89
				c-1.07,0.57,0.46,1.25,0.25,1.71c3.62,0.61,10.87,0,10.87,0s4.92-8,6.21-8.35c1.36-0.36,4.1-1.03,3.44-4.42
				c-1.97-9.94,8.09-21.31,9.84-39.89c0.19-2.11,0.19-2.11,0.49-3.78c-2.59-0.23-5.2-0.51-7.75-0.86
				C219.89,181.94,219.3,183.77,218.75,185.61z"/>
			<path class="st9" d="M221.54,161.78h0.66c-0.25,4.08,0.12,8.19-0.44,12.24c-0.28,2.04-0.78,4.06-1.35,6.07
				c2.55,0.35,5.16,0.63,7.75,0.86c1.13-6.16,3.85-16.86,4.51-20.46C228.92,160.76,224.96,159.42,221.54,161.78z"/>
			<path class="st10" d="M272.92,219.27c0.72-1.84,0.61-3.26-1.15-4.75c-1.2-1.02-4.56-5.97-4.87-7.38
				c-3.58-15.07-4.26-18.25-12.61-31.31c-3,1.71-4.42,2.51-7.17,4.53c3.58,7.18,7.14,14.48,10.27,21.86
				c1.36,3.21,2.91,6.42,3.88,9.62c1.02,3.35,5.88,15.24,5.03,18.31c-0.3,1.09-4.83,2.97-3.77,3.73c0.77,0.56,7.1-1.92,8.64-2.14
				C272.91,221.57,269.96,222.44,272.92,219.27z"/>
			<path class="st0" d="M228.51,31.93c-0.84,3.4,0.58,7,0.22,10.49c-0.36,3.48,0.36,6.11,3.02,8.58c2.68,2.5,5.64,1.41,8.36-0.66
				c2.5-1.9,3.36-5.55,4.85-8.13c2.46-4.27-0.63-10.16-4.42-12.64c-2.51-1.64-12.48-2.33-11.8,2.57"/>
			<path class="st0" d="M248.62,55.54c-2.32-1.39-2.84-5.94-3.06-8.31c-0.24-2.67-0.01-7.47-1.32-9.75
				c-0.69,2.88-0.96,6.62-2.78,9.15c-0.83,1.16-1.87,1.65-2.91,2.52c-1.56,1.31-1.44,1.58-1.35,3.55
				c0.25,6.16-2.41,11.48-4.95,16.79c3.12-0.66,5.81-5.65,8.12-7.78c1.37-1.27,2.92-2.59,4.48-3.61c1.2-0.79,3.07-1.07,3.56-2.57"/>
			<path class="st11" d="M249.5,57.29c-1.73-1.06-1.83-1.1-3.72-0.05c-1.28,0.71-2.5,1.45-3.71,2.29c-2.72,1.88-4.68,3.98-6.73,6.55
				c-1.9,2.39-4.3,4.4-6.78,6.13c-3.24,2.26-3.53,4.21-3.33,8.25c0.35,7.07,1.43,14.21,0.89,21.48c-0.68,9.14-3.12,18.37-1.29,27.46
				c3.07,0.39,8.36-3.77,11.12-5.16c3.2-1.61,6.74-3.05,9.58-5.14c-3.91-4.82-5.7-13.33-3.2-19.4c3.19-7.75,9.62-14.17,12.41-22.3
				c0.66-1.92,0.86-4.26,0.88-6.29c0.02-2.34-1.19-3.57-1.97-5.68c-0.62-1.68-1.92-8.04-4.37-7.49"/>
			<path class="st11" d="M236.87,58.15c-1.62,3.31-1.6,7.38-3.58,10.71c-1.61,2.72-4.41,5.04-6.5,7.42
				c-1.52-2.44,2.59-7.65,3.8-9.75c0.9-1.55,1.34-3.16,2.53-4.55c0.95-1.11,2.87-2.19,3.34-3.15"/>
			<path class="st11" d="M239.66,102.11c0.58,6,6.22,10.75,9.24,15.91c1.82,3.11,2.77,6.51,4.48,9.68c1.79,3.3,3.89,6.45,5.57,9.83
				c2.28,4.58,4.05,9.67,5.36,14.64c1.42,5.4,4,9.79,5.93,14.84c-7.84,1.61-13.5,8.98-22.28,8.56c-3.89-0.18-8.16-0.69-11.97,0.27
				c-2.01,0.51-3.97,1.13-6.12,0.83c-1.98-0.28-3.73-1.2-5.73-1.32c-3.39-0.21-6.37,0.89-9.58,1.06c0.9-9.65,2.95-19.73,3.91-29.7
				c1.23-12.76,0.48-26.29,5.4-38.43c1.12-2.76,3.31-5.31,4.03-8.1c2.31-0.13,5.02-0.17,7.39-0.04c1.16,0.06,6.67,0.63,3.72,2.62"/>
			<path class="st11" d="M213.21,85.28c1.84-1.53,3.06-3.86,4.81-5.27c3.89,2.92,8.54,3.91,12.67,6.41
				c2.75,1.67,3.55,2.71,2.14,5.63c-1.07,2.23-2.39,4.35-3.48,6.52c-1.48-0.09-2.78-2.44-3.91-3.42c-1.23-1.06-2.57-2-3.75-3.09
				C219.14,89.71,213.21,85.28,213.21,85.28z"/>
			<path class="st12" d="M225.67,103.86c-0.2,0.12-0.37-0.15-0.42,0.17c5.38,0.41,11.92,0.23,17-1.02c0.27,1.66-0.13,3.7-0.22,5.41
				c-5.98,0.3-12.95,0.47-18.52-1.32c0.22-1.39,1.43-2.96,2.59-3.67"/>
			<path class="st8" d="M236.71,26.91c-3.36-1.11-6.37,0.3-8.33,3.14c-1.01,1.46-1.48,2.9-1.07,4.73c0.34,1.49,1.34,3.24,0.56,4.79
				c0.6-1.37,0.53-2.94,0.53-4.47c0-0.75-0.07-1.56,0.57-2.08c0.77-0.62,1.34,0.01,2.16-0.22c0.77-0.22,0.86-0.95,1.33-1.53
				c0.64-0.79,1.15-0.81,2.05-1.09c0.86-0.26,1.46-0.58,1.94-1.31c0.34-0.53,0.82-1.61,0.03-1.86"/>
			<path class="st1" d="M233.76,29.09c-1.23,0.71-2.14,2.38-2.97,3.5c2.96,1.39,5.46,1.73,8.05,4.37c0.58,0.59,0.73,1.34,1.53,1.71
				c1.02,0.47,1.34-0.51,2.41,0.44c1.24,1.1,1.14,3.42-0.69,3.8c0.94,4.21,1.11,10.05,5.26,12.8c3.25,2.15,9.05,2.99,9.41,8.13
				c1.1-2.66,0.59-7.4-1.08-9.87c-1.78-2.62-5.66-3.13-6.62-6.08c-2.35-7.27,4.52-16.9-4.54-21.68c-2.01-1.06-5-1.17-7.21-0.56
				c-2.14,0.59-2.74,2.67-3.76,3.45"/>
			<g>
				<path class="st10" d="M232.04,49.08c0.26,0.1,0.54,0.14,0.81,0.14c0.67,0,1.34-0.26,1.89-0.67c0.55-0.41,0.99-0.96,1.19-1.58
					l-0.42-0.14c-0.17,0.51-0.55,1-1.04,1.36c-0.49,0.36-1.07,0.58-1.63,0.58c-0.23,0-0.45-0.04-0.66-0.11L232.04,49.08
					L232.04,49.08z"/>
			</g>
			<path class="st13" d="M222.86,91.22c0.15,1.13,0.31,2.29,0.44,3.45C223.21,93.52,223.07,92.37,222.86,91.22z"/>
			<path class="st13" d="M213.87,73.91c0.02,0.19,0.06,0.37,0.09,0.56c0.02-0.04,0.04-0.09,0.05-0.13L213.87,73.91z"/>
			<path class="st13" d="M212.14,70.93c0.21,0.11,0.46,0.19,0.81,0.22C212.68,71.05,212.41,70.98,212.14,70.93z"/>
			<path class="st13" d="M219.28,99.39c0.03,0,0.06,0,0.09,0.01c-0.03-0.13-0.06-0.26-0.09-0.39
				C219.28,99.14,219.28,99.26,219.28,99.39z"/>
			<path class="st13" d="M222.86,91.22c-0.18-0.96-0.4-1.92-0.69-2.88c0.37,3.68,0.43,7.05,0.43,10.63
				c0.29-0.05,0.58-0.09,0.87-0.12c-0.02-1.39-0.06-2.78-0.17-4.18C223.17,93.51,223.01,92.35,222.86,91.22z"/>
			<path class="st13" d="M231.95,65.29c0.14-0.16,0.28-0.34,0.4-0.55C232.21,64.91,232.08,65.1,231.95,65.29z"/>
			<path class="st14" d="M214.43,57.85c-0.44,0.43-0.36,1.13-0.61,1.73c-0.76-0.16-1.29-0.92-1.98-1.28
				c-0.01,0.93,0.76,1.65,1.27,2.3c-0.77,0.01-1.52-0.22-2.31-0.09c0.47,0.5,1.18,0.91,1.43,1.58c-0.62,0.18-1.35,0.35-1.98,0.54
				c2.58,1.03,0.94,0.94,0.7,2.93c0.72-0.14,1.36-0.61,2.14-0.54c-0.01,0.52-0.25,1.1-0.39,1.56c1.73-1.62,1.63-0.67,2.05,1.14
				c0.88-2.47,1.12-1.61,2.31-0.15c-0.01-2.13,0.36-2.16,2.01-0.98c0.14-0.77-0.35-1.47,0.16-2c0.43-0.44,1.55-0.29,2.03-0.73
				c-0.68-0.4-1.43-0.28-2.16-0.5c0.27-0.36,2-1.4,1.9-1.87c-0.16-0.74-2.15-0.09-2.62-0.02c0.34-0.85,1.35-1.5,1.27-2.58
				c-1.02-0.17-1.9,0.52-2.72,0.98c0.33-0.68,0.78-1.35,0.68-2.15c-0.65-0.06-1.03,0.5-1.26,1.1c0.02-0.7,0-1.52-0.32-2.13
				c-0.62,0.47-0.5,1.91-0.29,2.34c-0.11-0.67-0.3-1.38-0.88-1.79c-0.27,0.35-0.49,0.85-0.58,1.33"/>
			<path class="st13" d="M229.17,66.95c-1.25,0.68-2,1.83-3.18,2.54c0.05-0.95,0.79-2,1.03-2.97c0.23-0.95,0.46-2.01,0.55-2.95
				c0.18-1.84,0-3.79,0-5.64c-0.5,2.32-2.27,4.27-2.74,6.69c-0.4,2.05-0.69,3.39-1.79,5.17c-0.31-2.44-0.36-4.95-0.71-7.38
				c-0.27-1.83-1.49-3.68-1.9-5.12c0.05,1.71-0.83,3.19-0.73,4.83c0.08,1.39,0.43,2.71,0.44,4.18c-0.86-2.64-1.03-5.5-1.72-7.96
				c-0.22,2.53,2.2,11.4-1.2,12.38c-2.52,0.72-5.77-1.32-7.58-2.76c-1.54-1.23-3.78-0.98-5.7-1.02c1.2,0.41,2.85,1.77,4.39,2.19
				c0.97,0.26,1.68,0.16,2.48,0.76c0.58,0.43,0.85,0.82,1.33,1.07c0.27,0.05,0.54,0.12,0.81,0.22c-0.34-0.04-0.59-0.12-0.81-0.22
				c-2.14-0.39-4.51,0.69-6.43,1.2c-1.95,0.52-4.51,1.3-6.55,1.23c1.5,1.27,4.88,0.83,6.69,0.44c2.04-0.44,4.93-0.57,6.68-1.32
				c-0.36,1.56-4.26,2.06-5.66,3.04c-1.57,1.1-3.82,2.67-4.79,4.34c2.03-0.42,4.02-2.68,5.81-3.77c0.93-0.57,1.88-1.22,2.92-1.6
				c0.78-0.28,1.7-0.21,2.28-0.9c-1.86,2.01-4.08,3.73-6.61,4.72c-1.53,0.6-3.18,0.9-4.51,1.86c2.81-0.06,4.46-1.15,6.83-2.45
				c1.51-0.82,2.71-2.23,4.18-2.94c-0.35,2.27-3.08,3.39-3.9,5.36c1.38-0.47,4.35-4.42,4.89-5.68c-0.04-0.19-0.07-0.38-0.09-0.56
				l0.15,0.44c-0.01,0.04-0.04,0.08-0.05,0.13c0.35,1.87,1.39,3.83,1.69,5.67c0.34,2.1,0.24,4.48,0.69,6.6
				c0.17,0.82,0.4,1.65,0.65,2.49c0.19,1.21,0.42,2.39,0.52,3.63c0.19,2.26-0.55,4.41-0.85,6.54c0.25-0.07,0.72-0.3,0.97-0.45
				c0.57-1.68,0.71-3.45,0.74-5.27c0.03,0.1,0.05,0.2,0.08,0.3c-0.11,1.87-0.2,3.75-0.48,5.56c0.18-0.03,0.33-0.07,0.53-0.15
				c-0.03-3.06,0.78-6.13,1.04-9.19c0.05-0.57,0.11-1.13,0.18-1.69c0.27,3.61,0.14,7.3-0.06,10.91c0.33,0,0.68-0.03,1.04-0.09
				c0.22-3.67,0.39-7.45,1.03-10.99c0.74,3.68,0.85,7.05,0.87,10.63c0,0,0,0,0,0c-0.01-3.58-0.07-6.95-0.43-10.63
				c0.29,0.96,0.51,1.92,0.69,2.88c-0.09-0.68-0.18-1.35-0.25-2.01c0.68,3.06,1.1,6.38,1.66,9.55c0.14-0.02,0.28-0.04,0.42-0.07
				c-0.3-4.33-1.13-8.65-0.77-12.98c0.41,4.48,1.2,8.58,2.36,12.65c0.5-0.1,1.01-0.16,1.56-0.15c-1.14-1.34-1.29-3.93-1.68-5.61
				c1.04,1.8,1.33,4.01,2.27,5.62c0.14-0.02,0.41-0.1,0.56-0.15c-0.09-2.18-1.1-4.25-2.2-6.1c-0.57-0.96-1.23-1.83-1.53-2.92
				c-0.36-1.26-0.02-1.66,0.29-2.92c1.03-4.21-0.08-8.67,2.1-12.54c-0.6-0.32-0.33-0.93,0.15-1.34c-0.4-0.08-0.76-0.27-1.22-0.25
				c1.34-0.74,2.51-1.71,3.42-2.92c0.86-1.14,1.24-2.67,1.95-3.81C231.22,66.11,230.17,66.4,229.17,66.95z M218.96,86.15
				c-0.1,1.61-0.12,3.21-0.28,4.81c-0.08,0.75-0.13,1.51-0.18,2.28c-0.06-1.02-0.08-2.05-0.1-3.07c0.03-1.05,0.07-2.11-0.02-3.14
				c0-0.03-0.01-0.06-0.01-0.09c-0.03-2.59-0.11-5.19-0.57-7.78c0.5,1.34,0.89,2.71,1.19,4.11
				C218.98,84.28,219.01,85.33,218.96,86.15z"/>
			<path class="st9" d="M218.19,75.35c-1.98,1.29-4.77,2.5-5.85,4.64c-1.06,2.09-1.71,5.14,1.44,5.38c0.9-3.07,6.02,0.41,8.1-2.76
				c-2.25-0.47-3.92,1.23-6.28,0.12c1.17-1.79,2.56-2.32,4.29-3.5c2.21-1.5,2.04-2.33,1.77-4.72c-1.36,0.17-2.74,1.03-4.12,1.28"/>
			<path class="st6" d="M222.64,62.35c-0.47,0.62-0.9,1.47-1.46,2.06c-0.29-0.35-0.58-0.85-0.75-1.31c-0.93,0.1-0.54,1.37-0.29,1.99
				c-0.59,0-1.12-0.14-1.71-0.09c0.46,1.08,1.42,1.86-0.15,2.42c0.6,0.01,1.21,0.05,1.73,0.31c-0.39,0.68-1.24,1.29-1.43,2.02
				c0.69-0.05,1.18-0.58,1.85-0.68c0.01,0.68-0.29,1.39-0.39,2c0.47-0.18,0.87-0.66,1.29-1.02c0.48,0.65,0.14,1.58,0.47,2.34
				c0.34-0.32,0.58-1.24,0.98-1.45c1.03-0.53,0.37,0.15,0.98,0.59c1.33,0.95,1.49,0.6,1.23-1c0.65,0.06,1.2,0.42,1.85,0.39
				c-0.21-0.22-0.25-0.58-0.67-0.82c0.79-0.43,2.12-0.6,2.57-1.35c-0.42-0.14-0.95-0.2-1.42-0.16c-0.12-1.08,1.24-1.5,1.12-2.58
				c-0.83-0.07-1.63,0.08-2.44,0.1c0.41-0.8,1.55-1.09,1.72-2c-0.84-0.13-1.54,0.3-2.29,0.39c0.64-2.38-0.79-1.09-1.59,0.02
				c0.06-0.69,0.19-1.44,0.09-2.16c-0.66,0.18-0.64,1.2-0.56,1.6c0.03-0.56-0.02-1.09-0.17-1.61c-0.22,0.1-0.51,0.05-0.71,0.13"/>
			<path class="st7" d="M211.15,74.05c0.14,0.6,0.78,0.89,1.16,1.42c-0.53,0.57-1.45,0.63-2.11,1.03c0.79,0.49,1.8,0.21,2.62,0.1
				c-0.39,0.67-0.97,1.19-1.27,1.93c0.67-0.14,1.38-0.54,2.09-0.41c-0.17,0.62-0.4,1.33-0.56,1.97c2.21-1.68,1.29-0.32,2.87,0.91
				c0.25-0.69,0.18-1.47,0.64-2.11c0.44,0.28,0.81,0.78,1.14,1.14c-0.5-2.32,0.27-1.74,2.03-1.16c-1.66-2.02-0.8-1.79,1.06-2.05
				c-1.83-1.09-1.66-1.42,0.2-2.23c-0.59-0.52-1.44-0.46-1.62-1.17c-0.16-0.59,0.55-1.47,0.43-2.11c-0.69,0.37-0.97,1.08-1.54,1.59
				c-0.17-0.42-0.17-2.43-0.62-2.58c-0.72-0.24-1.19,1.79-1.37,2.22c-0.55-0.73-0.58-1.93-1.55-2.42c-0.67,0.79-0.53,1.89-0.56,2.84
				c-0.42-0.63-0.75-1.36-1.48-1.69c-0.38,0.52-0.11,1.14,0.29,1.65c-0.59-0.38-1.3-0.78-1.98-0.83c0.08,0.77,1.37,1.42,1.85,1.46
				c-0.63-0.26-1.34-0.46-1.98-0.17c0.16,0.41,0.47,0.85,0.84,1.18"/>
			<path class="st10" d="M212.16,64.76c-0.24,0.66-0.13,1.46-0.17,2.19c-0.66,0.03-1.35,0.01-2.02,0.05
				c-0.04,0.8,0.69,1.38,0.99,2.01c-2.11,0.14-0.6,1.23,0.7,1.23c-0.32,0.7-0.94,1.19-1.11,1.87c0.59-0.06,1.13-0.37,1.73-0.4
				c0.03,0.65-0.08,1.26-0.25,1.88c0.43-0.39,0.84-0.9,1.43-1c0.17,0.62,0.23,1.33,0.16,1.99c0.38-0.58,1.07-2.04,1.92-1.84
				c0.65,0.15,0.93,1.63,1.44,2.02c0.14-2.11,0.03-2.24,2.09-1.79c2.01,0.44,1.93-0.87,0.16-1.54c0.39-0.21,2.33-0.66,2.36-1.07
				c0.05-0.68-1.99-0.79-2.5-0.91c0-0.92,2.22-1.55,1.87-2.45c-0.33-0.82-2.2-0.11-2.6,0.1c0.02-0.84,0.51-1.57,0.39-2.46
				c-1.25-0.07-1.94,1.67-2.6,2.47c-0.04-0.56,0.33-3.03-0.32-3.24c-0.98-0.32-1.48,1.94-1.48,2.25c0.06-0.82-0.21-1.68-0.74-2.26
				c-0.77,0.63-0.42,2.11-0.32,2.95c-0.73-0.46-0.67-1.59-1.3-1.9"/>
			<path class="st6" d="M225.45,70.19c-0.13-0.02-0.27-0.01-0.4,0.02c-0.04,0.69-0.15,1.39-0.35,2.05
				c-0.56-0.22-1.16-0.85-1.83-0.49c0.02,0.54,0.45,0.95,0.8,1.31c-0.47,0.02-0.98-0.04-1.33,0.2c0.3,0.03,0.58,0.18,0.91,0.15
				c-0.18,0.63-0.89,1.22-1.32,1.72c0.33,0.12,1.45,0.13,1.56,0.54c0.07,0.27-1.12,1.74-1.25,2.17c0.67,0.06,1.27-0.45,1.95-0.49
				c0.06,0.54-0.25,1-0.28,1.51c0.36-0.34,0.71-0.75,1.1-1c0.23,0.6,0.14,1.35,0.33,1.93c0.49-0.32,0.62-1.05,0.75-1.61
				c0.58,0.16,0.48,1.19,0.62,1.74c0.51-0.17,0.36-1.43,0.81-1.53c0.47-0.11,0.76,0.97,1.12,1.22c0.3-0.63-0.08-1.22-0.06-1.85
				c0.48,0.36,0.92,0.91,1.52,1.01c-0.03-0.48-0.45-0.72-0.7-1.11c0.8-0.35,1.77-0.03,2.55-0.33c-0.48-0.22-1-0.31-1.51-0.44
				c0.53-0.56,1.66-0.76,1.95-1.52c-0.85-0.07-1.65,0.18-2.46,0.29c0.07-1.09,1.86-1.59,1.63-2.88c-0.71-0.03-1.24,0.46-1.84,0.78
				c0.09-0.81,0.93-1.53,1.33-2.23c-0.6-0.09-1.6,0.62-2.07,0.4c-0.66-0.31,0.28-1.16,0.61-1.64c-0.8-0.04-1.45,0.77-2.04,1.21
				c0.03-2.11-1.53-2.07-1.5-0.02c-0.23-0.58-0.34-1.29-0.71-1.81c-0.13,0.35-0.06,1.09-0.21,1.22"/>
			<g>
				<path class="st15" d="M216.36,87.59c2.31-0.73,5.48-0.61,8.11-1.03c0.09-0.01,0.16-0.08,0.18-0.17c0.1-0.49,0.11-0.86,0.25-1.28
					c0.02-0.07,0.01-0.14-0.03-0.2c-0.04-0.06-0.11-0.09-0.18-0.09c-0.18,0-0.37,0.01-0.55,0.01c-1.27,0-2.62-0.08-3.96-0.08
					c-1.52,0-3.02,0.11-4.37,0.57c-0.08,0.03-0.13,0.09-0.14,0.17c-0.01,0.08,0.02,0.16,0.08,0.21c0.61,0.49,1.52,0.66,2.46,0.75
					c0.94,0.08,1.9,0.07,2.6,0.14c1.44,0.14,3,0.29,4.27,0.72l0.07-0.21l-0.07-0.21c-2.71,0.99-5.84,1.49-8.51,2.64
					c-0.1,0.04-0.15,0.14-0.13,0.24s0.11,0.17,0.21,0.18c0.14,0,0.28,0,0.43,0c2.99,0,6.94-0.29,9.35-1.04
					c0.12-0.04,0.18-0.16,0.14-0.27c-0.04-0.12-0.16-0.18-0.27-0.14c-2.32,0.73-6.26,1.02-9.22,1.02c-0.14,0-0.28,0-0.42,0l0,0.22
					l0.09,0.2c2.59-1.12,5.72-1.62,8.48-2.63c0.09-0.03,0.14-0.12,0.14-0.21c0-0.09-0.06-0.17-0.15-0.2
					c-1.34-0.45-2.92-0.6-4.37-0.74c-0.73-0.07-1.69-0.06-2.6-0.14c-0.91-0.08-1.75-0.26-2.22-0.65l-0.14,0.17l0.07,0.21
					c1.28-0.44,2.73-0.55,4.23-0.55c1.32,0,2.68,0.08,3.96,0.08c0.19,0,0.38,0,0.56-0.01l0-0.22l-0.21-0.07
					c-0.16,0.48-0.17,0.88-0.26,1.32l0.21,0.05l-0.03-0.22c-2.57,0.42-5.75,0.29-8.17,1.05c-0.12,0.04-0.18,0.16-0.14,0.27
					C216.12,87.56,216.24,87.63,216.36,87.59L216.36,87.59z"/>
				<path class="st15" d="M225.25,86.69c0.1-0.67,0.46-1.75,1.01-2.65c0.27-0.45,0.59-0.85,0.93-1.13c0.34-0.28,0.7-0.44,1.07-0.44
					c0.11,0,0.23,0.01,0.34,0.05l0.06-0.21l-0.2,0.1c0.15,0.29,0.21,0.56,0.21,0.8c0,0.41-0.18,0.77-0.48,1.12
					c-0.46,0.52-1.21,0.97-1.94,1.37c-0.74,0.4-1.46,0.73-1.91,1.06c-0.09,0.07-0.11,0.19-0.06,0.28c0.06,0.1,0.17,0.13,0.27,0.09
					c0.28-0.12,1.07-0.44,2-0.74c0.93-0.29,1.99-0.55,2.78-0.55c0.38,0,0.7,0.06,0.89,0.18c0.1,0.06,0.16,0.13,0.21,0.22
					c0.05,0.09,0.08,0.2,0.08,0.35c0,0.08-0.01,0.18-0.03,0.29l0.21,0.04l-0.08-0.2c-0.82,0.34-2.13,0.58-3.38,0.58
					c-1.05,0-2.07-0.17-2.69-0.54l-0.11,0.19l0.17-0.13l-0.05-0.07l0,0l-0.13,0.07h0.15c0-0.06-0.01-0.07-0.01-0.07l-0.13,0.07h0.15
					h-0.21l0.12,0.16c0.06-0.04,0.09-0.13,0.08-0.16h-0.21l0.12,0.16l-0.12-0.16v0.2c0.02,0,0.06,0,0.12-0.04l-0.12-0.16v0.2v-0.14
					l-0.03,0.14l0.03,0v-0.14l-0.03,0.14v0l0,0h0v0l0,0l0.06,0.02c0.03,0.01,0.07,0.02,0.13,0.02c0.04,0,0.08,0,0.13-0.03
					c0.05-0.02,0.1-0.07,0.13-0.13c0.05-0.11,0.01-0.24-0.1-0.29c-0.11-0.05-0.24-0.01-0.29,0.1l0.15,0.07l-0.07-0.15l-0.08,0.08
					l0.15,0.07l-0.07-0.15l0.06,0.12v-0.14l-0.06,0.02l0.06,0.12v-0.14v0.05l0.01-0.05h-0.01v0.05l0.01-0.05l-0.05-0.01l-0.05-0.01
					c-0.02,0-0.04-0.01-0.08-0.01c-0.03,0-0.08,0-0.14,0.05c-0.07,0.04-0.1,0.14-0.09,0.19c0,0.05,0.01,0.08,0.02,0.1
					c0.03,0.06,0.06,0.1,0.11,0.17l0.06,0.06c0.75,0.44,1.81,0.6,2.91,0.6c1.31,0,2.65-0.24,3.55-0.61
					c0.07-0.03,0.12-0.09,0.13-0.16c0.03-0.13,0.04-0.25,0.04-0.37c0-0.21-0.04-0.4-0.13-0.56c-0.13-0.24-0.35-0.41-0.61-0.5
					c-0.26-0.09-0.55-0.13-0.87-0.13c-0.88,0-1.97,0.27-2.92,0.57c-0.95,0.3-1.76,0.63-2.04,0.75l0.09,0.2l0.13,0.17
					c0.25-0.19,0.66-0.41,1.12-0.64c0.7-0.36,1.53-0.77,2.19-1.29c0.33-0.26,0.63-0.54,0.84-0.87c0.22-0.32,0.35-0.69,0.35-1.1
					c0-0.32-0.08-0.65-0.26-0.99c-0.03-0.06-0.08-0.1-0.14-0.11c-0.15-0.04-0.31-0.06-0.46-0.06c-0.5,0-0.95,0.22-1.35,0.54
					c-0.59,0.49-1.06,1.22-1.42,1.97c-0.35,0.75-0.59,1.51-0.67,2.07c-0.02,0.12,0.06,0.23,0.18,0.25
					C225.12,86.89,225.23,86.8,225.25,86.69L225.25,86.69z"/>
			</g>
			<path class="st10" d="M217.46,224.01h-0.22c-0.58-0.34-2.09,0.51-3.26,0.52c2,2.65,0.13,9.22-0.35,12.7l2.17-0.01
				C216.51,233.99,219.27,225.36,217.46,224.01z"/>
			<path class="st10" d="M271.95,215.18l-0.19,0.11c-0.67,0.02-1.51,1.52-2.51,2.14c3.09,1.23,4.9,7.81,6.31,11.03l1.85-1.14
				C276.32,224.2,274.19,215.39,271.95,215.18z"/>
			<polygon class="st2" points="253.65,139.93 279.61,134.94 288.34,167.36 253.65,170.65 			"/>
			<g>
				<path class="st10" d="M277.4,135.47c-0.41-2.06-1.51-4.31-3.01-6.08c-0.75-0.88-1.61-1.65-2.54-2.19
					c-0.93-0.55-1.95-0.88-3.01-0.88c-0.7,0-1.41,0.15-2.12,0.46c-1.63,0.73-2.83,2.25-3.62,4.08c-0.79,1.83-1.19,3.99-1.19,6.07
					c0,2.49,0.56,4.87,1.79,6.47l0.69-0.53c-1.05-1.36-1.61-3.58-1.61-5.94c0-1.97,0.38-4.03,1.12-5.72
					c0.74-1.7,1.82-3.03,3.17-3.63c0.6-0.27,1.18-0.38,1.76-0.38c0.87,0,1.74,0.27,2.57,0.76c1.24,0.73,2.39,1.93,3.29,3.32
					c0.9,1.39,1.56,2.95,1.84,4.37L277.4,135.47z"/>
			</g>
			<polygon class="st6" points="254,145.22 286.36,129.95 300.81,158.19 260.37,175.64 			"/>
			<path class="st9" d="M259.99,120.83c0,3.11-0.49,5.78,1.69,8.14c0.99,1.07,5.47,6.51,5.56,3.05c1.27-0.01,2.96-2.8,2.75-3.7
				c-0.35-1.5-2.88-2.59-3.94-3.5c-2.1-1.8-0.92-2.84-1.9-5.08c-1.24-2.85-3.93-0.12-3.51,0.22"/>
			<path class="st11" d="M265.89,119.6c0-3.64,0-7.29,0-10.93c0-7.43,0.2-14.67-1.58-21.64c-1.82-7.15-3.37-14.38-6.46-21.42
				c-1.36-3.11-2.73-6.12-5.51-8.14c-3.94-2.85-5.05-0.26-8.32,2.02v0.22c0.31,0.5,7.74,25.39,9.18,28.2
				c0.76,1.48,2.01,3.12,2.63,4.59c0.75,1.79,0.32,4.22,0.71,4.18c0.61-0.05,1.91,22.44,2.31,25.3c2.35-0.05,4.7-0.17,7.02-0.4
				C265.89,120.92,265.89,120.26,265.89,119.6z"/>
			<path class="st16" d="M241.94,42.64c0.01,0.93-0.47,2.44-0.57,3.61c-0.11,1.21,0.84,2.39,2.13,1.34
				c1.25-1.02,0.17-6.17-1.45-4.95"/>
		</g>
		<g>
			<path class="st16" d="M267.18,152.06c0.07-1.36,0.8-2.4,1.9-3.13c1.09-0.72,2.54-1.11,3.96-1.11c1.92,0,3.77,0.7,4.67,2.11
				c0.6,0.93,0.83,1.74,0.83,2.4c0,0.97-0.49,1.69-1.22,2.2c-0.72,0.5-1.69,0.77-2.55,0.77c-0.62,0-1.18-0.14-1.57-0.38
				c-0.39-0.25-0.61-0.59-0.61-1.08c0-0.06,0-0.11,0.01-0.17c0.03-0.25,0.13-0.49,0.31-0.74c0.31-0.44,0.84-0.88,1.5-1.31
				c0.98-0.64,2.21-1.26,3.31-1.9c1.1-0.64,2.08-1.28,2.56-2.04c0.36-0.58,0.54-1.2,0.54-1.76c0-0.43-0.1-0.82-0.32-1.12
				c-0.21-0.3-0.56-0.5-0.97-0.5c-0.48,0-1.02,0.24-1.63,0.76c-0.71,0.61-1.01,1.5-1,2.42c0,0.97,0.32,1.99,0.83,2.81
				c0.51,0.83,1.21,1.48,2.04,1.68c0.23,0.05,0.46,0.08,0.7,0.08c1.29,0,2.74-0.69,3.89-1.66c1.15-0.97,2.02-2.22,2.03-3.46l-0.48,0
				c0,1-0.77,2.18-1.86,3.09c-1.08,0.92-2.47,1.55-3.58,1.55c-0.21,0-0.41-0.02-0.59-0.07c-0.64-0.15-1.27-0.7-1.74-1.46
				c-0.47-0.75-0.76-1.7-0.76-2.56c0-0.82,0.25-1.56,0.84-2.05c0.56-0.48,1.01-0.65,1.32-0.65c0.26,0,0.44,0.1,0.58,0.3
				c0.14,0.19,0.23,0.49,0.23,0.84c0,0.46-0.15,1-0.46,1.51c-0.29,0.47-0.9,0.96-1.65,1.44c-1.13,0.72-2.58,1.42-3.78,2.17
				c-0.6,0.38-1.14,0.77-1.55,1.19c-0.41,0.42-0.7,0.88-0.76,1.41c-0.01,0.07-0.01,0.15-0.01,0.22c0,0.65,0.34,1.17,0.83,1.48
				c0.5,0.32,1.14,0.46,1.83,0.46c0.96,0,2-0.28,2.82-0.85c0.82-0.57,1.42-1.45,1.42-2.6c0-0.78-0.28-1.67-0.91-2.66
				c-1.03-1.61-3.04-2.33-5.07-2.34c-1.51,0-3.04,0.4-4.23,1.19c-1.19,0.78-2.04,1.97-2.11,3.51L267.18,152.06z"/>
			<path class="st16" d="M267.04,155.15c-0.2,0.45-0.29,0.94-0.29,1.41c0,0.64,0.17,1.27,0.51,1.76c0.34,0.48,0.87,0.82,1.53,0.82
				c0.25,0,0.51-0.05,0.79-0.14l-0.15-0.45c-0.23,0.08-0.44,0.11-0.63,0.11c-0.5,0-0.87-0.23-1.14-0.61
				c-0.27-0.38-0.42-0.92-0.42-1.48c0-0.41,0.08-0.84,0.25-1.22L267.04,155.15L267.04,155.15z"/>
		</g>
	</g>
</g>
</svg>
