<svg width="623" height="415" fill="none" xmlns="http://www.w3.org/2000/svg"><path d="M273.102 278.389l.835-1.127c-.923.542-2.035 1.669-.835 1.127z" fill="#D7E2F2"/><path d="M281.141 265.374c1.639-.776 3.411-1.815 5.343-3.206l-5.343 3.206zm0 0c-.79.366-1.537.673-2.269.908a64.276 64.276 0 00-1.845 1.552l4.114-2.46z" fill="#C7D7EF"/><path d="M291.99 225.303l5.505-2.123c32.282-7.803 81.093-31.902 92.118-61.68-41.696 6.705-67.2 22.927-88.488 53.437 17.833-27.538 35.767-71.123 24.714-101.649-13.133 6.764-24.845 27.861-31.873 50.32-3.396-10.161-9.955-19.004-20.877-25.504-1.581 13.469-8.667 26.939-10.234 40.408-2.357 13.469-3.148 27.641-2.357 41.828.366 6.808.059 20.277 2.269 31.008-6.69-15.167-19.34-27.641-32.97-38.797 1.581 20.555-2.357 38.988 3.938 58.84 5.505 19.853 18.901 39.896 31.492 48.914 81.094-45.561 76.379-55.297 76.379-55.297s-49.602-1.42-59.835 11.346c-8.916 10.703-10.82 8.14-14.319-8.843.527-.863 1.069-1.742 1.611-2.635 2.445 2.094 5.651 2.782 9.809 1.42 12.752-10.263 32.721-15.153 46.967-23.249 17.319-9.926 35.43-24.098 47.245-38.988-22.049-6.383-43.307 9.927-59.836 20.556-13.762 9.018-30.013 19.823-40.057 33.131 5.9-10.585 12.006-23.307 16.529-36.601.645 1.552 1.391 2.957 2.27 4.158zm-24.596 41.93c-.191-.937-.396-1.918-.586-2.942a45.73 45.73 0 00-.688-3.148c.761 1.347 1.625 2.503 2.621 3.426a40.812 40.812 0 00-1.347 2.664z" fill="#C7D7EF"/><path d="M369.144 141.662c11.815-12.05 35.43-32.605 36.221-50.335-19.677.703-41.726 24.099-51.959 37.568-7.877 9.209-22.84 28.359-22.84 40.408h3.148c11.024-9.926 24.421-17.012 35.43-27.641z" fill="#C7D7EF"/><path d="M255.153 213.049c-4.876-14.948 28.314-45.708 13.674-59.777-7.803-7.906-21.478 2.635-27.334-5.271-5.856-6.149-1.947-24.611-3.909-32.517-3.909-15.826-7.803-11.419-19.53-17.583-13.675-6.149-10.746-12.313-17.569-24.61-8.784-18.462-39.046-33.396-61.505-32.517-2.928 12.298-1.947 27.246 3.909 37.802 4.876 7.906 37.099 27.246 33.19 36.923-4.875 10.541-41.974-14.07-29.295 13.191 5.856 14.07 32.223 19.34 37.099 33.395-49.793.879-2.928 32.517 12.693 48.343-50.773-8.784-.981 30.76 11.712 40.437-35.151.879 2.929 39.559 6.838 51.857 1.947 6.149-.981 25.489 8.784 25.489 1.156 0 2.43-.512 3.733-1.376-4.041-74.198 4.495-149.729-33.278-219.813-1.947-2.928-3.25-7.613-3.25-11.727 16.925 24.025 27.993 49.807 32.546 77.946 8.169 50.993 11.625 101.049 7.086 151.002 4.26-4.245 1.962-7.466 1.962-7.466 4.875-13.191 13.674-26.368 19.53-39.559 5.856-12.313 11.713-26.367 12.694-40.437.981-4.392 2.928-11.42.981-14.948-1.977-3.499-10.761-8.784-10.761-8.784z" fill="#D7E2F2"/><path d="M173.08 256.297s-22.253 26.075-18.183 37.055c3.264 9.385.761 9.326-12.02 3.894-.337-.658-.688-1.317-1.054-2.005 2.43-.425 4.275-1.845 5.153-4.671-1.332-11.258 4.012-24.098 4.758-35.254.864-13.586-.761-29.413-5.563-42.165-13.704 9.121-12.02 27.554-12.064 41.023.073 11.273.264 24.655 4.773 35.767-4.48-7.716-10.307-16.471-17.188-24.626 1.318.337 2.577.542 3.748.586l.952-3.88c8.696-20.716 13.674-57.317-1.333-76.043-13.469 25.314-13.659 46.001-2.562 70.568-10.6-21.434-31.814-49.807-56.82-56.966-1.156 9.97 7.818 25.328 19.692 38.753-8.199-2.533-16.895-2.811-25.885.278 8.258 6.632 14.158 16.236 22.415 22.869 7.92 7.056 16.983 13.571 26.734 19.237 4.67 2.738 13.483 8.682 21.55 12.108-12.942-2.914-26.645-1.479-39.91 1.069 14.319 7.979 24.845 18.022 40.73 23.161 15.534 5.563 34.581 6.984 45.986 4.085 4.583-63.203-3.909-64.843-3.909-64.843zm-34.976 38.944c1.215.175 2.357.205 3.397.058.38.63.775 1.259 1.185 1.874-.702-.293-1.434-.615-2.21-.951a52.821 52.821 0 00-2.372-.981z" fill="#C7D7EF"/><path d="M147.517 284.714l-.162 4.246c.191-1.201.264-2.606.162-4.246zm-.163 4.26a11.812 11.812 0 01-.366 1.611c.059.556.147 1.113.235 1.654l.131-3.265zm-41.608-78.985l.79 4.963c.791-27.641-7.086-51.037-39.368-60.963 0 28.359 17.32 41.11 38.578 56z" fill="#C7D7EF"/><path d="M563.279 203.576c-15.753-17.715-51.183 14.172-61.417 24.816-17.319 17.715-29.925 37.568-42.516 57.42-5.505 8.506-22.839 25.519-22.839 34.025l-3.148 1.42c9.444 3.543 29.926-20.556 37.788-27.642 20.467-17.012 41.725-29.061 64.564-41.827 14.187-7.804 44.112-30.482 27.568-48.212zm-8.652 9.224c-14.963 26.236-47.245 39.705-74.008 54.58 19.677-21.976 43.307-41.828 72.441-52.457-29.134 10.629-52.75 30.481-72.441 52.457m82.118 9.267c-16.91-19.516-93.26 29.179-103.377 43.907l-2.313 3.119c.278-.162.556-.279.732-.279 14.172-8.506 33.073-13.469 49.602-17.715 9.941-2.752 65.106-10.175 56.834-26.821-15.68 4.48-31.726 7.833-48.167 9.809 15.461-4.656 30.921-9.297 46.689-12.02zm-105.02-75.896c-.776-12.181-5.915-21.961-12.064-25.079.937 8.594-.102 17.202-2.108 25.796-5.505 28.359-11.024 55.297-14.962 83.641-3.456-37.362 6.456-73.641 11.039-110.257-4.656 1.098-9.282 6.354-12.621 17.393-5.504 18.432-5.504 37.567-4.728 56 .79 24.815.79 47.493-1.582 72.309l1.582 2.123c6.295-16.31 17.319-31.902 23.615-48.914 7.906-23.396 13.41-48.914 11.829-73.012z" fill="#D7E2F2"/><path d="M243.777 339.279c-21.083.366-42.136.469-63.159.073l-140.11.176.03.029c19.676 17.32 48.02 8.668 71.65 7.086 32.282-2.357 62.193 3.148 93.699 11.815 42.516 11.815 85.823 16.53 129.905 18.901 26.763 1.581 52.75 3.939 78.737 3.148 14.172-.791 39.368.791 50.393-9.443-6.296-5.505-15.754-4.729-22.84-8.667 29.135-6.296 63.775 0 93.7-1.582 24.405-1.581 50.392-1.581 74.798-3.147-12.781-9.912-29.457-15.534-47.289-18.769l-319.514.38z" fill="#F7BC6D"/><path d="M496.971 91.503c-.761-3.089-4.963-3.499-7.335-2.4-3.118 1.449-5.578 4.172-6.368 7.451-.337 1.376-.044 3.353-.923 4.583-.878 1.244-2.357 1.815-3.264 3.206-2.123 3.265-2.314 6.822-1.538 10.658.732 3.558 2.519 6.998 5.403 9.297 2.386 1.889 5.622 2.46 8.316 3.88 2.972 1.566 5.08 4.802 8.154 5.739 4.188 1.288 7.218.512 11.23-.659 2.884-.835 4.948-.351 7.744.205 2.943.6 4.246-.966 6.457-2.621-1.274.586-3.031-.424-4.246-.995-2.811-1.318-5.578-2.753-8.125-4.553-6.018-4.246-10.629-10.615-11.01-18.111-.205-3.953.366-8.623-2.181-11.873-1.142-1.464-1.464-1.728-1.684-3.617-.161-1.273-.469-3.323-2.035-1.64" fill="#F45C0F"/><path d="M556.265 224.015c-1.157 1.024-2.241 2.064-3.046 2.591-3.147 2.05-7.701 3.47-11.317 3.06l-.351-.425c1.347 5.344.893 7.145 6.134 5.944 3.631-.834 7.423-1.317 10.981-2.108 3.323-.747 6.558-2.328 9.984-1.288 1.86.571 3.338 1.8 4.802 3.045-.292-9.458-11.126-5.505-17.187-10.819z" fill="#FCCF8C"/><path d="M569.721 226.269c-1.918-.366-3.294-.41-4.992-1.684-1.406-1.068-2.152-3.25-3.836-3.308-1.303-.044-3.031 1.332-4.612 2.752 6.061 5.315 16.896 1.362 17.188 10.819.835.703 1.172 2.431 2.606 2.006 1.406-.424 2.006-8.491-6.354-10.585zm-62.238 92.806c-.175-.366-.38-.819-.615-1.303-3.879 6.515-2.649 18.565-11.8 16.91-2.137.513-4.377.937-3.938 2.899.058 1.552 6.398 1.039 10.278.688 1.171-2.02 3.894-8.931 4.436-10.278 3.206-3.396 5.753-5.783 1.639-8.916z" fill="#072E72"/><path d="M495.902 306.089v-.044a37.552 37.552 0 01-.293-1.347l.293 1.391z" fill="#FCCF8C"/><path d="M506.867 317.772c-1.948-4.158-2.665-12.195-4.173-18.359-2.752-.41-6.91 4.67-6.793 6.647 1.479 6.003 4.729 10.585 3.309 17.173-.63 2.943.161 6.545-.688 9.473-.337 1.171-1.874 1.61-3.456 1.991 9.151 1.625 7.921-10.41 11.801-16.925zm-77.389-156.199c-2.533.205-5.066-4.231-7.394-5.49-3.807-2.109-9.926-1.684-14.143-2.533-.849 5.49 8.448 2.957 11.186 4.436-2.328 0-4.436.424-6.545 0 2.533 3.587 5.915 2.328 9.297 4.641 4.012 2.533 3.587 1.479 7.394-.425m-3.088-32.677c-2.753-2.694-3.777-7.028-7.482-8.082-.775-.22-4.67-2.43-5.153-1.83-1.113 1.362 2.84 3.441 3.675 3.528-.644 2.05-4.451-.395-5.578-1.127-2.284-1.493-3.734-2.547-6.398-1.361-.322 1.537.995 1.098 1.874 1.581 1.025.571 1.318 1.127 2.079 2.079 1.64 2.02 2.694 1.815 5.139 2.327 2.811.586 9.033 7.496 11.419 3.529m56.541 5.549c5.373-7.174 13.001-14.348 8.96-24.655 3.133 2.694 8.067 2.24 11.654 1.347-.454 7.628 0 17.481-3.587 24.654-1.786 4.48-5.827 8.067-11.2 4.934-2.24-1.347-3.133-5.373-5.373-7.174" fill="#FCCF8C"/><path d="M476.926 150.68c-8.96 15.241-35.855 13.455-50.656 7.628-1.347 3.587-3.133 7.174-4.934 10.307 13.001 8.96 24.655 21.961 41.242 11.654 7.174-4.934 26.895-26.441 13.001-31.375" fill="#FAAF40"/><path d="M471.102 145.585c2.137-11.112 17.334-13.674 27.289-15.05.484-.073 1.055 1.054.894 1.713-1.845 7.671-2.724 18.696-8.902 23.644-10.307 8.067-14.348-2.24-18.828-9.414" fill="#FAAF40"/><path d="M471.863 145.497c1.639-7.144 8.169-10.35 14.655-12.254 3.001-.878 6.09-1.405 9.18-1.888 1.742-.278 3.162-.513 2.606 1.918-.381 1.669-.703 3.352-1.025 5.036-1.406 7.101-2.972 14.626-9.487 18.784-7.774 4.963-12.386-5.813-15.534-10.922-.278-.469-1.757.044-1.405.615 3.396 5.534 6.837 13.835 14.684 12.21 9.282-1.918 11.712-13.133 13.279-20.848.263-1.303 2.738-7.935-.117-8.052-3.587-.161-7.965 1.215-11.42 2.093-7.291 1.845-15.094 5.549-16.91 13.499-.175.6 1.362.366 1.494-.191z" fill="#FAAF40"/><path d="M201.612 277.526h-64.565v62.588h64.565v-62.588z" fill="#859CC6"/><path d="M137.048 340.114v.395h64.96V277.13h-65.356v63.379h.396v-.395h.395v-62.193h63.774v61.797h-64.169v.396h.395-.395z" fill="#fff"/><path d="M266.178 248.069h-64.565v92.045h64.565v-92.045z" fill="#798EBC"/><path d="M201.61 340.114v.395h64.96v-92.835h-65.355v92.835h.395v-.395h.395v-91.65h63.774v91.254H201.61v.396h.395-.395z" fill="#fff"/><path d="M330.74 220.911h-64.564v119.203h64.564V220.911z" fill="#4C69A5"/><path d="M266.177 340.114v.395h64.959V220.515h-65.355v119.994h.396v-.395h.395V221.306h63.774v118.412h-64.169v.396h.395-.395z" fill="#fff"/><path d="M394.678 190.839h-64.565v149.275h64.565V190.839z" fill="#1F438F"/><path d="M330.114 340.114v.395h64.96V190.444h-65.355v150.065h.395v-.395h.395v-148.88h63.774v148.484h-64.169v.396h.395-.395z" fill="#fff"/><path d="M169.328 264.276c-7.964-.22-9.677 5.402-8.813 12.298h17.686c.732-6.647-1.084-12.093-8.873-12.298z" fill="#FFA131"/><path d="M178.201 276.574h-17.685c1.332 10.673 8.813 24.42 8.813 24.42s7.716-13.747 8.872-24.42z" fill="#fff"/><path d="M298.021 188.336c-.541-7.789-13.44-2.416-5.373 4.04-8.33-1.347-3.762 12.899 1.889 6.72.542 8.331 12.371 4.568 8.33-2.152 6.72 2.416 6.179-10.761.264-5.915 5.109-5.109-1.889-8.872-4.846-2.415" fill="#F37021"/><path d="M298.781 188.131c-.366-3.661-3.704-4.876-6.837-3.485-4.011 1.772-2.752 5.71 0 8.023.396-.234.791-.468 1.171-.703-3.777-.497-6.632 1.86-5.534 5.783 1.084 3.851 5.022 4.085 7.555 1.464l-1.362.088c.791 8.55 13.836 4.568 9.853-2.562l-1.361.571c3.25 1.054 6.193-.805 6.237-4.319.044-3.879-3.47-3.997-5.974-2.064.41.073.806.161 1.216.234 1.566-1.669 3.25-4.846.336-6.149-2.708-1.215-5.402 1.435-6.486 3.602-.322.644 1.201.454 1.421.014.79-1.566 2.562-4.055 4.509-2.503 1.669 1.317.029 3.733-.981 4.802-.644.673.878.483 1.215.234 1.889-1.464 3.045-.132 3.221 1.86.205 2.181-1.113 4.348-3.499 3.572-.234-.073-1.64.073-1.362.571 1.259 2.254 1.069 4.948-1.551 6.061-3.016 1.288-5.022-1.742-5.256-4.319-.044-.483-1.201-.088-1.362.088-2.064 2.137-3.997.834-4.817-1.64-.805-2.43.205-4.948 3.075-4.568.205.03 1.654-.293 1.171-.702-1.962-1.655-3.982-4.7-1.157-6.633 2.548-1.742 4.817.615 5.066 3.104.015.469 1.552.132 1.493-.424z" fill="#fff"/><path d="M300.041 194.162a2.11 2.11 0 11-4.219 0 2.11 2.11 0 014.219 0z" fill="#fff"/><path d="M492.313 91.357c-3.353-.147-6.5 3.543-7.642 6.5-.63 1.625.058 3.675-.63 5.344-.702 1.742-6.237 12.049 2.416 17.774 7.554.175 15.621-4.759 17.935-15.475 1.888-9.019-12.079-14.143-12.079-14.143z" fill="#FCCF8C"/><path d="M500.676 258.098c-2.694-8.96-6.281-17.481-9.414-26.002-1.289-5.183-.923-17.422-2.899-20.716-.63-8.682-2.24-23.41-6.954-28.139-3.587-4.041-13.001-3.133-10.307 1.786l.337.556c2.869 13.777-2.548 26.382-1.67 40.686.454 9.414.894 19.282 3.587 27.788 3.133 9.414 8.067 17.934 10.307 26.894 3.133 12.108 4.48 24.655 19.721 22.869-.454-16.588 2.225-29.589-2.708-45.722z" fill="#072E72"/><path d="M472.05 184.588c5.373 12.547 3.133 26.894 8.521 40.349 3.133 7.628 5.827 16.134 10.761 23.308 5.827 9.413 14.787 5.373 24.201 3.586 13-2.24 22.868-9.413 34.068-16.133-1.347-5.827-.893-6.72-5.373-8.067-3.133-.893-8.96.454-12.108.454-9.867-.454-17.934.893-27.348 3.587-4.934-8.96-1.786-18.374-3.587-27.788-1.786-10.307-9.868-17.935-14.348-26.895-3.587 4.041-10.761 4.934-15.241 7.628-.893.454.454-.454.893-.893" fill="#034EA2"/><path d="M471.291 184.793c4.89 12.005 3.719 25.342 7.54 37.64 1.859 5.974 4.48 11.962 7.072 17.657 1.903 4.202 4.479 10.043 8.52 12.591 7.145 4.494 17.73.527 25.167-1.289 11.156-2.723 20.805-9.604 30.497-15.445.146-.088.322-.249.278-.454-.557-2.489-.659-5.534-2.87-7.16-2.547-1.874-6.295-1.522-9.223-1.259-5.3.484-10.571.337-15.885.732-6.018.44-11.932 1.83-17.715 3.456.292.073.585.131.863.19-4.831-9.516-1.61-20.189-4.128-30.218-2.299-9.15-9.546-16.266-13.792-24.464-.234-.454-1.083-.235-1.376.058-2.254 2.284-5.095 3.426-8.037 4.509-2.445.908-4.788 2.123-7.204 3.031.308.161.615.322.923.469.38-.352.805-.674 1.2-1.011.674-.585-.834-.615-1.229-.278-.396.337-.806.659-1.201 1.01-.63.571.615.586.922.469 2.767-1.025 5.461-2.372 8.258-3.411 2.825-1.055 5.461-2.358 7.598-4.51-.454.015-.922.044-1.376.059 4.319 8.345 11.053 15.328 13.791 24.464 3.016 10.014-.776 20.555 4.129 30.218.161.308.585.278.864.191 8.389-2.358 16.748-3.763 25.474-3.587 4.656.087 14.319-3.09 17.086 1.947 1.2 2.181 1.654 5.051-.63 6.427-3.367 2.05-6.705 4.158-10.117 6.149-7.086 4.158-14.303 7.042-22.37 8.638-6.764 1.347-14.377 4.363-20.175-.952-5.549-5.08-8.243-14.216-10.892-21.038-2.914-7.511-4.905-14.655-5.886-22.678-.937-7.687-1.625-15.344-4.582-22.576-.191-.542-1.699-.088-1.494.425z" fill="#034EA2"/><path d="M465.712 150.958c-.454 4.041 2.694 27.349 6.28 34.962 4.934-2.24 11.654-5.373 17.027-4.48-3.587-8.96-.453-20.175 3.587-28.242-8.067 4.48-9.414-3.587-14.787-5.827-3.133-1.332-10.76 1.347-12.107 3.587z" fill="#034EA2"/><path d="M464.953 151.032c-.425 5.168.761 10.716 1.551 15.797 1.011 6.427 2.035 13.323 4.729 19.31.191.41.732.381 1.098.22 5.139-2.342 10.629-5.051 16.442-4.377.336.044 1.215-.235 1.024-.732-3.396-9.326-.629-19.37 3.543-27.964.308-.629-.702-.673-1.054-.498-8.023 4.056-8.374-5.094-14.83-6.134-3.895-.63-9.868.835-12.372 4.114-.585.761.864.937 1.259.41 2.006-2.635 6.691-3.733 9.839-3.587 2.811.132 4.963 3.279 6.778 5.066 3.016 2.972 6.369 2.796 9.971.981-.352-.161-.703-.337-1.055-.498-4.26 8.755-7.071 19.032-3.616 28.52.337-.249.688-.484 1.025-.733-6.222-.717-12.108 2.079-17.627 4.583l1.098.22c-2.562-5.71-3.543-12.211-4.568-18.345-.878-5.256-2.137-11.127-1.698-16.485.058-.762-1.494-.527-1.537.132z" fill="#034EA2"/><path d="M493.21 135.966c-.864-1.595-2.562-1.727-4.202-1.303-.132-.409-.966-.629-1.464-.263-.264.19-.498.395-.718.6-3.923-.38-7.642.264-11.478 1.157-6.324 1.478-12.151 2.591-18.652 1.478-9.853-1.683-18.315-8.315-27.26-12.385-.41-.191-.937.014-1.23.322-2.211 2.459-4.744 4.304-7.467 6.134-.175.117-.38.439-.278.659 3.719 8.008 7.364 16.661 14.099 22.649 6.442 5.724 15.065 5.329 22.81 2.928 5.958-1.859 11.332-5.124 16.792-8.052 5.227-2.782 11.098-3.631 16.251-6.354 2.797-1.464 4.334-4.715 2.797-7.57z" fill="#FAAF40"/><path d="M487.016 132.35l-.014-.044a.751.751 0 01-.19.044h-.015.219z" fill="#1F438F"/><path d="M492.112 155.102l1.405.219a3.24 3.24 0 01.176-.6c.088-.234.205-.527.307-.878l-2.445-.586c-.263.483-.497.908-.688 1.244l1.245.601z" fill="#034EA2"/><path d="M500.703 132.526c-.293-1.098-.878-2.138-1.874-2.87-.996-.732-2.299-1.098-3.777-1.098-.703 0-1.45.074-2.24.22-.937.176-1.728.527-2.401.908-.674.38-1.245.776-1.83 1.112-.308.176-.952.542-1.538.908-.292.19-.571.366-.819.556l-.162.132 6.193-.659c.366-.175.732-.322 1.113-.395a9.686 9.686 0 011.684-.176c.673 0 1.156.103 1.522.249.542.235.864.542 1.142 1.098.279.557.44 1.362.425 2.357 0 1.421-.322 3.192-.849 5.066-1.376 4.846-4.129 10.351-5.739 13.338l2.445.585c-.103.352-.22.63-.308.879a3.206 3.206 0 00-.175.6l-1.406-.22-1.259-.6c.19-.337.425-.761.688-1.244l-.293-.074c-.058.205-.146.425-.249.703-.102.278-.219.6-.292.981l-1.552 8.184 4.216-7.349a90.447 90.447 0 004.495-9.092c.834-1.962 1.596-4.026 2.167-6.032.571-2.006.937-3.953.951-5.71a9.39 9.39 0 00-.278-2.357z" fill="#034EA2"/><path d="M491.715 303.22c3.411-.235 8.418-2.109 12.181-3.851.644 1.786.659 3.792 1.23 5.578-3.529 1.171-7.438 2.138-10.717 3.382-1.113-1.215-2.065-3.572-2.694-5.109z" fill="#072E72"/><path d="M543.719 226.152c.336 0 4.787-.556 5.71-.015 1.156.674 1.683 3.895 2.035 5.183 1.566 5.886 1.2 6.252-3.748 9.531-1.992-4.202.468-11.171-3.997-14.026" fill="#1F438F"/><path d="M509.488 322.267c.249 1.918.103 3.616-.293 5.505-.351 1.654-.746 8.872-1.185 10.541-.864.044-1.772.059-2.65 0-.176-1.742.688-8.989.454-10.893-.176-1.42-.454-2.986-.044-4.289m55.062-101.737c1.757-.205 3.294-.073 5.022.293 1.493.322 8.081.717 9.589 1.127.044.791.044 1.625-.014 2.401-1.596.161-8.184-.659-9.912-.468-1.303.146-2.723.395-3.894.014" fill="#072E72"/><path d="M471.366 188.672c.205.073.41.088.6.088.527 0 1.127-.132 1.859-.322 2.519-.688 6.413-2.357 9.751-3.968 1.669-.805 3.177-1.595 4.29-2.254.556-.322 1.01-.615 1.361-.879.176-.131.322-.248.454-.395a1.09 1.09 0 00.19-.249c.059-.102.147-.249.147-.498a.923.923 0 00-.103-.409.807.807 0 00-1.068-.337.808.808 0 00-.337 1.069l.629-.323h-.702c0 .088.014.22.087.323l.63-.323h-.703.586l-.498-.322c-.014.03-.088.103-.088.322h.586l-.498-.322.132.088-.117-.102-.015.014.132.088-.117-.102c-.015.014-.103.102-.234.205-.528.395-1.699 1.083-3.148 1.844a91.953 91.953 0 01-7.584 3.514 47.645 47.645 0 01-3.47 1.288 15.24 15.24 0 01-1.317.366 3.91 3.91 0 01-.85.118h-.131a.778.778 0 00-.981.512.796.796 0 00.527.966z" fill="#497EE8"/><path d="M484.026 184.617c.322.219.63.439.937.673a.409.409 0 00.557-.058.41.41 0 00-.059-.557 16.971 16.971 0 00-.981-.717.396.396 0 00-.542.103c-.146.19-.087.424.088.556zm55.825 49.675a27.641 27.641 0 002.284-.6.402.402 0 00.264-.498.4.4 0 00-.498-.263c-.703.219-1.464.41-2.225.585-.205.044-.352.264-.293.469a.397.397 0 00.468.307zm-4.553.996c.703-.176 1.464-.337 2.27-.513a.39.39 0 00.307-.468.39.39 0 00-.468-.308c-.791.161-1.567.337-2.299.513a.392.392 0 00-.278.483c.044.22.263.351.468.293zm-4.45 1.347c.761-.205 1.508-.44 2.254-.674a.394.394 0 10-.249-.746c-.732.234-1.478.453-2.225.658a.4.4 0 00-.278.483c.058.22.278.337.498.279zm-4.539 1.186c.761-.191 1.508-.381 2.269-.571a.394.394 0 10-.205-.762c-.746.191-1.508.381-2.254.571a.393.393 0 00-.278.483c.043.205.263.322.468.279zm-4.495 1.2c.747-.22 1.494-.425 2.24-.615a.4.4 0 00.279-.483.394.394 0 00-.484-.278c-.761.205-1.508.41-2.254.629a.393.393 0 00-.264.484.392.392 0 00.483.263zm-4.524 1.215a62.962 62.962 0 002.284-.571.4.4 0 00.279-.483.4.4 0 00-.484-.278c-.746.205-1.493.395-2.254.556-.205.044-.352.264-.293.469a.39.39 0 00.468.307zm-4.641.776c.791-.088 1.567-.19 2.343-.322a.396.396 0 00.322-.454.397.397 0 00-.454-.322c-.761.132-1.523.234-2.284.322a.406.406 0 00-.351.439.373.373 0 00.424.337zm-4.714.161c.41.015.835.029 1.23.029.381 0 .761 0 1.127-.014a.404.404 0 00.381-.41.404.404 0 00-.41-.381c-.366.015-.732.015-1.098.015-.395 0-.805-.015-1.201-.029-.219-.015-.395.161-.41.38-.014.22.162.41.381.41zm-4.685-.424c.776.087 1.537.175 2.328.263.22.015.41-.132.425-.351.014-.22-.132-.41-.352-.425a62.696 62.696 0 01-2.313-.263.394.394 0 00-.439.351.402.402 0 00.351.425zm-4.699-.63c.629.205 1.361.278 2.386.381.22.014.41-.132.425-.352.014-.219-.132-.41-.352-.424-1.025-.103-1.727-.176-2.211-.337a.393.393 0 00-.497.249c-.059.19.044.41.249.483zm-2.885-3.88c.147.366.293.747.469 1.113.19.41.351.761.527 1.054.102.19.351.264.542.147a.389.389 0 00.146-.542 10.45 10.45 0 01-.498-.996 23.942 23.942 0 01-.454-1.068.382.382 0 00-.512-.22c-.19.073-.293.307-.22.512zm-1.2-4.597c.117.776.278 1.552.468 2.328a.394.394 0 10.762-.205 24.022 24.022 0 01-.454-2.24.398.398 0 00-.454-.337.417.417 0 00-.322.454zm-.337-4.699c0 .79.029 1.566.088 2.357a.396.396 0 10.791-.059 39.226 39.226 0 01-.088-2.313.394.394 0 00-.396-.395.416.416 0 00-.395.41zm.132-4.685a63.234 63.234 0 00-.103 2.342c0 .22.161.395.381.41.22 0 .395-.161.41-.381.029-.776.059-1.551.103-2.327.014-.22-.162-.41-.366-.41-.22-.03-.41.146-.425.366zm.263-4.656c-.029.776-.073 1.552-.117 2.328-.014.219.161.41.366.41.22.014.41-.147.41-.366.044-.776.088-1.552.117-2.343.015-.219-.161-.395-.38-.41a.382.382 0 00-.396.381zm.015-4.641c.029.659.044 1.318.044 1.976v.337c0 .22.176.395.395.395.22 0 .396-.175.396-.395v-.351c0-.674-.015-1.333-.044-2.006a.404.404 0 00-.41-.381c-.22.03-.396.205-.381.425zm-.556-4.568l.029.176c.146.703.249 1.391.337 2.093.029.22.219.366.439.337a.384.384 0 00.337-.439 27.598 27.598 0 00-.352-2.167l-.029-.176a.39.39 0 00-.468-.307c-.205.073-.337.278-.293.483zm-.849-4.597c.131.776.278 1.537.41 2.299a.403.403 0 00.453.322.405.405 0 00.323-.454c-.132-.747-.264-1.523-.41-2.299a.405.405 0 00-.454-.322.378.378 0 00-.322.454zm-.879-4.568c.161.761.322 1.523.469 2.284.044.22.249.351.454.308a.383.383 0 00.307-.454c-.146-.762-.293-1.538-.469-2.299a.407.407 0 00-.468-.307.381.381 0 00-.293.468zm-1.2-4.465c.234.732.453 1.464.658 2.21a.395.395 0 00.484.279.401.401 0 00.278-.483 50.756 50.756 0 00-.659-2.255.394.394 0 00-.498-.249.384.384 0 00-.263.498zm-1.786-4.231c.366.673.688 1.361.98 2.064a.382.382 0 00.513.205.38.38 0 00.205-.512 26.019 26.019 0 00-1.01-2.138.388.388 0 00-.527-.161.405.405 0 00-.161.542zm-2.636-3.704a16.37 16.37 0 011.435 1.756c.132.176.366.22.542.088a.382.382 0 00.088-.541 16.294 16.294 0 00-1.508-1.845.394.394 0 00-.557-.015.409.409 0 000 .557zm57.775 45.971a6.237 6.237 0 001.055-.688.394.394 0 10-.513-.601c-.263.22-.571.41-.922.601a.387.387 0 00-.161.527.41.41 0 00.541.161z" fill="#497EE8"/><path d="M479.665 186.418c.132 1.273.571 3.323 1.157 5.329.6 2.006 1.332 3.938 2.137 5.021.908 1.201 2.328 1.728 3.763 1.728 2.167 0 4.465-1.186 5.344-3.309.087-.205-.015-.424-.22-.512-.205-.088-.425.015-.513.22-.702 1.756-2.723 2.825-4.626 2.825-1.259 0-2.416-.454-3.148-1.42-.688-.908-1.434-2.811-2.005-4.773-.571-1.962-.996-3.997-1.128-5.183a.395.395 0 00-.439-.351c-.176.015-.337.205-.322.425z" fill="#497EE8"/><path d="M497.733 298.3c.059.952.176 1.816.439 2.445a.4.4 0 00.513.22.398.398 0 00.219-.512c-.19-.469-.322-1.274-.38-2.196a.395.395 0 00-.425-.366c-.219 0-.38.19-.366.409zm-.073-4.743c0 .337.015.717.015 1.113v1.244c0 .22.175.395.395.395.22 0 .395-.175.395-.395v-1.244c0-.396 0-.776-.014-1.128a.381.381 0 00-.396-.38c-.234 0-.41.175-.395.395zm-.498-4.656c.103.776.205 1.552.293 2.328.029.22.22.366.439.351a.406.406 0 00.352-.439 65.8 65.8 0 00-.308-2.357.393.393 0 00-.439-.337.415.415 0 00-.337.454zm-.761-4.641c.146.776.278 1.537.41 2.313a.38.38 0 00.454.323.38.38 0 00.322-.454c-.132-.776-.264-1.567-.41-2.343a.405.405 0 00-.454-.322.435.435 0 00-.322.483zm-.952-4.612c.176.762.337 1.538.498 2.299a.39.39 0 00.469.307.389.389 0 00.307-.468c-.161-.776-.322-1.552-.498-2.313-.044-.205-.263-.352-.468-.293a.396.396 0 00-.308.468zm-1.127-4.567c.205.761.395 1.522.586 2.284a.414.414 0 00.483.292.415.415 0 00.293-.483c-.191-.761-.381-1.537-.586-2.298a.401.401 0 00-.483-.279c-.22.059-.352.279-.293.484zm-1.288-4.539c.219.747.453 1.508.658 2.255.059.205.279.336.484.263a.4.4 0 00.278-.483c-.22-.761-.439-1.523-.674-2.269-.058-.205-.278-.322-.498-.264a.419.419 0 00-.248.498zm-1.421-4.48c.249.747.498 1.493.733 2.24.058.205.292.322.497.264a.394.394 0 00.249-.498c-.234-.747-.483-1.508-.732-2.255a.394.394 0 00-.498-.249.382.382 0 00-.249.498zm-1.551-4.465c.205.571.41 1.142.6 1.713.058.175.117.336.176.512a.404.404 0 00.497.249.405.405 0 00.249-.498c-.058-.176-.117-.337-.176-.512l-.614-1.713a.385.385 0 00-.498-.234.375.375 0 00-.234.483zm-1.626-4.422c.279.732.557 1.479.82 2.211a.402.402 0 00.513.234.401.401 0 00.234-.512c-.278-.732-.556-1.479-.82-2.211a.401.401 0 00-.512-.234.401.401 0 00-.235.512zm-1.625-4.45c.264.746.527 1.478.806 2.225a.401.401 0 00.512.234.39.39 0 00.234-.498c-.278-.732-.541-1.478-.805-2.21a.386.386 0 00-.498-.235c-.205.074-.322.279-.249.484zm-1.493-4.495c.234.761.469 1.508.717 2.255a.393.393 0 00.498.248.392.392 0 00.249-.497c-.249-.747-.483-1.494-.717-2.24a.402.402 0 00-.498-.264.42.42 0 00-.249.498zm-1.23-4.583c.176.776.366 1.538.571 2.314a.4.4 0 00.483.278.401.401 0 00.279-.483 62.779 62.779 0 01-.571-2.27c-.044-.205-.264-.351-.469-.292-.205.029-.337.234-.293.453zm-.834-4.699c.102.79.219 1.581.351 2.357.044.22.249.351.454.322a.404.404 0 00.322-.454 57.177 57.177 0 01-.351-2.313.386.386 0 00-.44-.337.381.381 0 00-.336.425zm-.293-4.773v.029c0 .791.029 1.581.073 2.372.015.22.205.381.425.366a.396.396 0 00.366-.424 40.23 40.23 0 01-.073-2.314c.014-.219-.162-.395-.381-.41-.22 0-.41.161-.41.381z" fill="#1F438F"/><path d="M483.43 111.971c1.566 1.918 5.563.863 7.349-.205.557 2.225-1.508 4.421-3.528 4.685-3.221.424-3.821-4.48-3.821-4.48z" fill="#fff"/><path d="M483.427 111.971l-.308.249a2.95 2.95 0 001.376.937c.527.19 1.113.263 1.713.263 1.757 0 3.631-.644 4.773-1.318l-.205-.336-.381.102c.059.22.074.439.074.644 0 .849-.396 1.684-1.025 2.343-.63.659-1.464 1.113-2.255 1.215a2.774 2.774 0 01-.337.029c-.614 0-1.083-.234-1.478-.6-.601-.556-1.01-1.449-1.245-2.211-.117-.38-.19-.717-.249-.966a1.306 1.306 0 01-.044-.293l-.014-.102-.395.044-.308.249.308-.249-.396.044c0 .014.147 1.171.674 2.371.263.601.629 1.201 1.142 1.684.512.483 1.186.82 2.02.805.146 0 .293-.014.439-.029 1.01-.132 1.977-.674 2.723-1.449.732-.776 1.245-1.787 1.245-2.885 0-.278-.029-.556-.103-.834a.384.384 0 00-.234-.264c-.117-.044-.249-.044-.351.03-.996.6-2.811 1.215-4.363 1.215a4.486 4.486 0 01-1.45-.22 2.271 2.271 0 01-1.039-.703.414.414 0 00-.454-.117.385.385 0 00-.234.41l.381-.058z" fill="#CC2929"/><path d="M542.519 139.978c-1.992-1.596-4.202-1.713-5.549-4.407-3.016-5.988 1.098-13.762-6.413-17.261-2.723-1.274-6.442-1.274-8.725-3.367-2.724-2.504-1.962-6.911-2.094-10.38-.264-7.218-4.173-6.97-8.653-7.672.03-.454.059-.922.074-1.376.131-3.133-.571-5.403-3.221-7.247-2.709-1.889-6.881-2.255-10.073-1.216-2.445-.38-6.09 1.245-6.94 3.529-5.768 2.137 5.242 7.466 6.618 8.301 5.739 3.441 1.054 6.574.132 11.288-.601 3.074.863 2.474 2.547 4.538 1.713 2.094 1.274 4.407.674 6.823-.703 2.826-.791 3.631.073 6.486.717 2.371.454 4.436.805 6.939 1.42 10.044 11.259 17.159 20.629 13.513 4.641-1.8 7.437.059 11.961.894 5.27.966 7.686-1.582 11.903-4.012-.806-1.508-2.226-4.158-3.748-5.373z" fill="#F37021"/><path d="M313.453 198.101c-5.505 4.597-12.02 9.589-13.923 16.207v-8.858h-2.138v8.858c-1.903-6.618-8.403-11.61-13.923-16.207-.527 5.505-1.054 10.234 3.148 14.699 2.24 2.24 7.54 5.885 10.775 5.358v3.119h2.138v-3.119c3.235.527 8.535-3.133 10.775-5.358 4.187-4.465 3.675-9.194 3.148-14.699zm-64.564 26.236c-6.296 5.256-13.909 11.024-14.436 19.164v.791c3.148 1.054 8.931-2.885 11.288-5.256 4.202-4.466 3.675-9.18 3.148-14.699zm-15.551 19.164c-.527-8.14-8.14-13.908-14.435-19.164-.527 5.504-1.054 10.233 3.147 14.699 2.358 2.357 8.141 6.295 11.288 5.256v-.791zm1.628.966h-2.138v3.983h2.138v-3.983zm140.445-91.02c4.202-4.465 3.675-9.179 3.148-14.699-5.461 4.553-11.903 9.502-13.865 16.032v-20.966h-2.313v3.88a16.847 16.847 0 00-2.138-3.221c-2.635-3.089-6.339-5.065-10.453-5.065-4.114 0-7.818 1.961-10.453 5.065-2.636 3.104-4.232 7.335-4.232 11.976h2.358c0-4.114 1.42-7.803 3.674-10.453 2.255-2.65 5.3-4.231 8.653-4.231 3.338 0 6.383 1.581 8.652 4.231 2.255 2.65 3.675 6.339 3.675 10.453h.264v8.169c-2.021-6.456-8.389-11.361-13.806-15.87-.527 5.505-1.054 10.234 3.147 14.699 2.211 2.211 7.423 5.798 10.659 5.388v24.816c-2.021-6.457-8.389-11.361-13.806-15.871-.527 5.505-1.054 10.234 3.147 14.699 2.211 2.211 7.423 5.798 10.659 5.388v3.338h2.313v-3.353c3.236.469 8.491-3.147 10.717-5.373 4.202-4.465 3.675-9.179 3.148-14.699-5.461 4.553-11.903 9.502-13.865 16.032V158.82c3.25.469 8.491-3.147 10.717-5.373z" fill="#32A53F"/><path d="M379.436 116.773c-9.414 0-17.041 7.627-17.041 17.041h2.357c0-4.055 1.639-7.715 4.304-10.38a14.619 14.619 0 0110.38-4.304c4.056 0 7.716 1.64 10.38 4.304a14.615 14.615 0 014.305 10.38h2.357c0-9.414-7.628-17.041-17.042-17.041z" fill="#32A53F"/><path d="M398.486 109.262a7.592 7.592 0 01-7.598 7.599 7.592 7.592 0 01-7.599-7.599 7.592 7.592 0 017.599-7.598 7.591 7.591 0 017.598 7.598z" fill="#F37021"/><path d="M398.483 109.262h-.396a7.18 7.18 0 01-2.108 5.095 7.18 7.18 0 01-5.095 2.108 7.18 7.18 0 01-5.095-2.108 7.18 7.18 0 01-2.108-5.095 7.18 7.18 0 012.108-5.095 7.18 7.18 0 015.095-2.108 7.18 7.18 0 015.095 2.108 7.18 7.18 0 012.108 5.095h.791a7.986 7.986 0 00-7.994-7.994 7.985 7.985 0 00-7.993 7.994 7.985 7.985 0 007.993 7.994 7.985 7.985 0 007.994-7.994h-.395z" fill="#fff"/><path d="M466.08 301.917a7.592 7.592 0 01-7.599 7.598 7.59 7.59 0 01-7.598-7.598 7.592 7.592 0 017.598-7.599 7.602 7.602 0 017.599 7.599z" fill="#F37021"/><path d="M466.08 301.917h-.395a7.18 7.18 0 01-2.108 5.095 7.18 7.18 0 01-5.095 2.108 7.18 7.18 0 01-5.095-2.108 7.18 7.18 0 01-2.108-5.095 7.18 7.18 0 012.108-5.095 7.18 7.18 0 015.095-2.108 7.18 7.18 0 015.095 2.108 7.18 7.18 0 012.108 5.095h.791a7.986 7.986 0 00-7.994-7.994 7.986 7.986 0 00-7.994 7.994 7.985 7.985 0 007.994 7.993 7.985 7.985 0 007.994-7.993h-.396z" fill="#fff"/><path d="M390.884 130.535a7.59 7.59 0 01-7.598 7.598 7.59 7.59 0 01-7.598-7.598 7.592 7.592 0 017.598-7.599 7.592 7.592 0 017.598 7.599z" fill="#F45C0F"/><path d="M390.885 130.535h-.395a7.18 7.18 0 01-2.108 5.095 7.18 7.18 0 01-5.095 2.108 7.18 7.18 0 01-5.095-2.108 7.18 7.18 0 01-2.108-5.095 7.18 7.18 0 012.108-5.095 7.18 7.18 0 015.095-2.108 7.18 7.18 0 015.095 2.108 7.18 7.18 0 012.108 5.095h.79a7.985 7.985 0 00-7.993-7.994 7.985 7.985 0 00-7.994 7.994 7.986 7.986 0 007.994 7.994 7.985 7.985 0 007.993-7.994h-.395z" fill="#fff"/><path d="M406.084 136.157a7.592 7.592 0 01-7.599 7.598 7.59 7.59 0 01-7.598-7.598 7.592 7.592 0 017.598-7.599 7.592 7.592 0 017.599 7.599z" fill="#F37021"/><path d="M406.08 136.157h-.395a7.18 7.18 0 01-2.108 5.095 7.18 7.18 0 01-5.095 2.108 7.18 7.18 0 01-5.095-2.108 7.18 7.18 0 01-2.108-5.095 7.18 7.18 0 012.108-5.095 7.18 7.18 0 015.095-2.108 7.18 7.18 0 015.095 2.108 7.18 7.18 0 012.108 5.095h.791a7.986 7.986 0 00-7.994-7.994 7.986 7.986 0 00-7.994 7.994 7.986 7.986 0 007.994 7.994 7.986 7.986 0 007.994-7.994h-.396z" fill="#fff"/><path d="M355.834 119.511a7.592 7.592 0 01-7.599 7.598 7.591 7.591 0 01-7.598-7.598 7.592 7.592 0 017.598-7.599 7.592 7.592 0 017.599 7.599z" fill="#F37021"/><path d="M355.834 119.511h-.395a7.178 7.178 0 01-2.108 5.094 7.182 7.182 0 01-5.095 2.109 7.182 7.182 0 01-5.095-2.109 7.178 7.178 0 01-2.108-5.094c0-1.992.805-3.792 2.108-5.095a7.182 7.182 0 015.095-2.109c1.991 0 3.792.806 5.095 2.109a7.179 7.179 0 012.108 5.095h.791a7.986 7.986 0 00-7.994-7.994 7.985 7.985 0 00-7.994 7.994 7.985 7.985 0 007.994 7.993 7.985 7.985 0 007.994-7.993h-.396z" fill="#fff"/><path d="M336.306 151.822a6.017 6.017 0 10.001-12.035 6.017 6.017 0 00-.001 12.035z" fill="#F37021"/><path d="M342.32 145.805h-.395a5.656 5.656 0 01-1.64 3.982 5.57 5.57 0 01-3.982 1.64 5.66 5.66 0 01-3.982-1.64 5.573 5.573 0 01-1.64-3.982 5.66 5.66 0 011.64-3.982 5.573 5.573 0 013.982-1.64c1.552 0 2.958.629 3.982 1.64a5.57 5.57 0 011.64 3.982h.791a6.411 6.411 0 00-6.413-6.413 6.41 6.41 0 00-6.412 6.413 6.41 6.41 0 006.412 6.412 6.41 6.41 0 006.413-6.412h-.396z" fill="#fff"/><path d="M334.623 133.141a6.017 6.017 0 100-12.034 6.017 6.017 0 000 12.034z" fill="#F37021"/><path d="M340.641 127.124h-.396a5.66 5.66 0 01-1.639 3.982 5.573 5.573 0 01-3.983 1.64 5.662 5.662 0 01-3.982-1.64 5.572 5.572 0 01-1.639-3.982c0-1.552.629-2.958 1.639-3.983a5.576 5.576 0 013.982-1.639c1.552 0 2.958.629 3.983 1.639a5.572 5.572 0 011.639 3.983h.791a6.411 6.411 0 00-6.413-6.413 6.41 6.41 0 00-6.412 6.413 6.41 6.41 0 006.412 6.412 6.41 6.41 0 006.413-6.412h-.395z" fill="#fff"/><path d="M81.621 296.236s37.509 1.23 27.978 16.456c-9.516 15.226-27.978-16.456-27.978-16.456z" fill="#FFB452"/><path d="M54.535 318.841s5.915-37.055 19.838-25.709c13.894 11.347-19.838 25.709-19.838 25.709z" fill="#FFA131"/><path d="M56.7 328.709s-17.95-32.956 0-32.458c17.935.483 0 32.458 0 32.458z" fill="#FFB452"/><path d="M60.375 317.157s26.133-26.923 30.994-9.648c4.875 17.291-30.994 9.648-30.994 9.648z" fill="#FFB864"/><path d="M119.318 314.024c0-2.035-2.532-3.674-5.665-3.674H45.721c-3.119 0-5.666 1.639-5.666 3.674s2.532 3.675 5.666 3.675h3.396c-2.81 0-5.095 1.64-5.095 3.675s2.284 3.675 5.095 3.675h.85c-.762.659-1.245 1.552-1.245 2.547 0 2.035 1.976 3.675 4.421 3.675h3.221c-2.152 0-3.88 1.64-3.88 3.675s1.743 3.674 3.88 3.674h46.645c2.152 0 3.894-1.639 3.894-3.674s-1.742-3.675-3.894-3.675h3.221c2.445 0 4.421-1.64 4.421-3.675 0-.995-.468-1.888-1.244-2.547h.834c2.811 0 5.095-1.64 5.095-3.675s-2.284-3.675-5.095-3.675h3.397c3.148 0 5.68-1.654 5.68-3.675z" fill="#497EE8"/><path d="M478.904 303.132a7.592 7.592 0 01-7.599 7.598 7.591 7.591 0 01-7.598-7.598 7.592 7.592 0 017.598-7.599 7.592 7.592 0 017.599 7.599z" fill="#F37021"/><path d="M478.905 303.132h-.396a7.18 7.18 0 01-2.108 5.095 7.18 7.18 0 01-5.095 2.108 7.18 7.18 0 01-5.095-2.108 7.18 7.18 0 01-2.108-5.095 7.18 7.18 0 012.108-5.095 7.18 7.18 0 015.095-2.108 7.18 7.18 0 015.095 2.108 7.18 7.18 0 012.108 5.095h.791a7.985 7.985 0 00-7.994-7.994 7.986 7.986 0 00-7.994 7.994 7.986 7.986 0 007.994 7.994 7.986 7.986 0 007.994-7.994h-.395z" fill="#fff"/><path d="M431.967 303.732c0 5.769-4.67 10.439-10.438 10.439a10.434 10.434 0 01-10.439-10.439c0-5.768 4.67-10.439 10.439-10.439a10.435 10.435 0 0110.438 10.439z" fill="#F37021"/><path d="M431.968 303.732h-.395c0 2.782-1.128 5.285-2.943 7.101a10.029 10.029 0 01-7.101 2.943 10.002 10.002 0 01-7.1-2.943 10.026 10.026 0 01-2.943-7.101 10 10 0 012.943-7.101 10.025 10.025 0 017.1-2.942c2.782 0 5.286 1.127 7.101 2.942a10.03 10.03 0 012.943 7.101h.79a10.828 10.828 0 00-10.834-10.834 10.828 10.828 0 00-10.834 10.834 10.828 10.828 0 0010.834 10.834 10.828 10.828 0 0010.834-10.834h-.395z" fill="#fff"/><path d="M447.077 290.248a10.435 10.435 0 01-10.439 10.439 10.435 10.435 0 01-10.439-10.439 10.435 10.435 0 0110.439-10.438c5.754 0 10.439 4.67 10.439 10.438z" fill="#F37021"/><path d="M447.077 290.248h-.395a10 10 0 01-2.943 7.101 10.026 10.026 0 01-7.1 2.943 10.002 10.002 0 01-7.101-2.943 10.03 10.03 0 01-2.943-7.101c0-2.781 1.128-5.285 2.943-7.1a10.024 10.024 0 017.101-2.943 9.997 9.997 0 017.1 2.943 10.022 10.022 0 012.943 7.1h.791a10.828 10.828 0 00-10.834-10.834 10.828 10.828 0 00-10.834 10.834 10.828 10.828 0 0010.834 10.834 10.828 10.828 0 0010.834-10.834h-.396z" fill="#fff"/><path d="M455.276 307.934a10.436 10.436 0 01-10.439 10.439 10.436 10.436 0 01-10.439-10.439 10.436 10.436 0 0110.439-10.439 10.436 10.436 0 0110.439 10.439z" fill="#F45C0F"/><path d="M455.273 307.934h-.396c0 2.782-1.127 5.285-2.942 7.101a10.03 10.03 0 01-7.101 2.942 10.003 10.003 0 01-7.101-2.942 10.03 10.03 0 01-2.942-7.101c0-2.782 1.127-5.285 2.942-7.101a10.03 10.03 0 017.101-2.942c2.782 0 5.285 1.127 7.101 2.942a10.03 10.03 0 012.942 7.101h.791a10.828 10.828 0 00-10.834-10.834A10.828 10.828 0 00434 307.934a10.828 10.828 0 0010.834 10.834 10.828 10.828 0 0010.834-10.834h-.395z" fill="#fff"/><path d="M453.095 299.311a6.018 6.018 0 100-12.035 6.018 6.018 0 000 12.035z" fill="#F37021"/><path d="M459.109 293.293h-.395a5.658 5.658 0 01-1.64 3.983 5.572 5.572 0 01-3.982 1.639 5.659 5.659 0 01-3.982-1.639 5.573 5.573 0 01-1.64-3.983c0-1.551.63-2.957 1.64-3.982a5.573 5.573 0 013.982-1.64c1.552 0 2.958.63 3.982 1.64a5.573 5.573 0 011.64 3.982h.791a6.41 6.41 0 00-6.413-6.412 6.41 6.41 0 00-6.412 6.412 6.41 6.41 0 006.412 6.413 6.411 6.411 0 006.413-6.413h-.396z" fill="#fff"/><path d="M484.467 314.639c0-2.035-2.533-3.674-5.666-3.674h-67.932c-3.118 0-5.666 1.639-5.666 3.674s2.533 3.675 5.666 3.675h3.397c-2.811 0-5.095 1.64-5.095 3.675s2.284 3.675 5.095 3.675h.849c-.762.658-1.245 1.551-1.245 2.547 0 2.035 1.977 3.675 4.422 3.675h3.221c-2.152 0-3.88 1.64-3.88 3.675s1.742 3.674 3.88 3.674h46.644c2.152 0 3.895-1.639 3.895-3.674s-1.743-3.675-3.895-3.675h3.221c2.445 0 4.422-1.64 4.422-3.675 0-.996-.469-1.889-1.245-2.547h.835c2.811 0 5.095-1.64 5.095-3.675s-2.284-3.675-5.095-3.675h3.396c3.148 0 5.681-1.654 5.681-3.675z" fill="#497EE8"/></svg>