<svg width="713" height="415" fill="none" xmlns="http://www.w3.org/2000/svg"><path d="M543.258 40.302c.552 15.08 14.445 30.63 24.119 41.677-5.44-3.816-14.897-2.712-18.847 3.163-5.49 8.152 3.8 13.324 8.788 17.742-6.863-.552-11.566 5.156-8.687 11.784 2.109 4.871 7.682 7.515 11.264 10.98 9.875 9.54 14.177 22.629 4.553 33.977 12.118-5.272 23.165-28.387 26.077-40.99 2.745-11.867 3.632-23.868.201-35.35-3.649-12.202-12.838-21.86-22.613-29.81-5.707-4.654-21.642-10.98-22.663-18.412-1.774 4.201-2.929 8.988 2.846 10.31" fill="#497EE8"/><path d="M576.351 141.666c.418-2.26 2.326-4.787 3.23-6.997 1.624-3.983 2.913-8.067 4.168-12.168 2.544-8.352 3.833-16.202 2.377-24.906-1.423-8.536-3.833-15.85-9.39-22.596-4.787-5.825-10.194-11.884-15.734-16.938 3.432 4.485 3.03 11.867 5.859 16.905 3.129 5.54 9.239 13.859 5.238 20.554-2.728-2.427-9.707-9.172-13.524-4.837-4.569 5.205 6.428 11.381 9.323 13.825-3.381-.234-11.833-.251-10.528 5.323 1.339 5.64 10.277 8.569 13.775 12.771 2.511 3.012 4.704 7.029 5.105 10.913.218 2.042-1.807 7.414-.301 8.787.067-.653.603-1.155.753-1.557" fill="#C7D7EF"/><path d="M515.49 238.025c8.654-8.854 26.479-6.444 37.359-4.737 14.445 2.26 26.178 9.826 39.099 15.751 10.194 4.67 23.232 8.72 34.062 3.297 9.306-4.636 14.093-18.964 2.142-23.567 20.136-8.821 25.14 26.898 5.524 33.576 10.896-5.908 24.571-1.891 24.654 12.152.101 15.951-18.394 6.611-27.098 2.578-20.688-9.591-41.326-21.09-61.578-32.874-10.947-6.36-45.008-16.637-55.72-5.674" fill="#497EE8"/><path d="M536.526 242.528c9.139.853 15.181 4.569 23.483 7.097-4.854 6.192-.15 9.356 5.39 11.666-8.369 4.519-9.674 15.716-3.214 22.713 4.653 5.055 19.801 5.071 19.148 14.746 8.955-4.938 17.274-18.78 15.048-28.839-2.377-10.696-17.726-20.638-26.212-10.579 7.264-8.653-3.23-8.586-7.231-10.662-6.444-3.33-8.87-7.08-16.587-9.088-8.519-2.226-32.103-3.314-35.015 7.231 0 .033 4.151-8.788 25.19-4.285z" fill="#497EE8"/><path d="M592.399 256.671c4.034 5.54 13.641 5.139 17.608 13.39 2.678 5.574.368 4.202-.653 9.307-.803 4.017-2.159 8 3.431 9.892-14.712-1.256-18.578 22.244-29.676 28.772 3.482 4.519 9.457 5.356 13.859 1.556-3.029 4.871-6.946 12.135-3.063 18.044 4.67 7.097 12.704 3.933 16.889-1.624 4.05 8.101-1.323 17.675 11.348 20.353 9.808 2.076 20.571-6.142 15.683-16.453 4 6.561 20.42-21.156 2.36-24.303 2.762 3.029 7.013 2.444 9.29-2.276 2.343-4.888-.251-9.374-3.13-13.491-5.005-7.181-14.445-12.671-23.199-9.875 2.879-3.9 1.992-7.884-.787-11.449-1.322-1.691-3.799-.787-5.105-2.511-1.138-1.489-.552-4.05-1.64-5.824-5.122-8.369-19.081-9.374-23.6-15.717m-43.186-40.589c5.189-7.147 17.625-7.198 21.458-13.541 4.804-7.934-3.097-3.532-6.478-5.256-4.385-2.243-3.983-7.699-3.314-12.051 1.641-10.444 11.7-16.889 20.688-8.436 8.537 8.017 3.298 20.119-4.352 25.86 12.47-1.741 34.162-19.684 12.738-27.115 10.294-6.21 20.905-1.205 20.771 10.846 6.143-5.909 7.934-10.143 16.822-12.336 6.98-1.724 13.959-1.105 21.006-1.406-4.754 10.327-9.072 17.859-20.789 21.525 4.804.602 12.186.535 15.098 4.301-18.612 24.32-56.222-.535-80.09 14.378 11.716-2.695 27.349-4.536 37.727 3.197 5.557 4.134 6.728 9.691 10.076 15.349 3.716 6.276 8.938 6.243 13.574 10.645-7.917 8.653-24.788 3.23-30.965-5.172-7.431-10.093-6.946-19.935-20.955-23.299 6.059 6.662 10.461 22.127 1.138 25.492-16.989 1.59-11.097-15.232-11.449-15.265.803 5.306 11.315.251 5.021-6.428-4.151-4.418-13.306-3.397-17.842-.585" fill="#497EE8"/><path d="M618.142 284.774c-4.201-.937-5.992 5.875-1.322 5.841 4.151-.033 4.352-6.896-.904-5.439" fill="#224BB2"/><path d="M563.057 172.028c.084-1.59 4.52-5.322 6.294-6.862 2.962-2.561 5.925-5.089 9.406-7.08-2.443-3.214 3.147-9.005 6.746-6.896-3.365-2.578.334-10.11 1.941-12.939 2.98-5.255 8.804-9.457 14.763-10.528 11.934-2.142 22.646 5.273 33.342 9.256-10.863-2.778-15.516 16.42-21.475 22.144-3.281 3.147-7.114 6.394-11.75 6.26-4.368-.134-8.352-2.494-11.465-5.322-.77-.703-1.423-1.641-2.092-2.394.786 3.482-.268 5.406-4.084 4.687-1.222-.235-2.109-1.239-3.164-1.423-1.356-.234-1.975.552-3.331 1.389-4.921 3.08-12.419 5.44-15.934 10.277" fill="#497EE8"/><path d="M589.418 153.834c.084-7.733 10.829-17.022 17.474-19.349 3.431-1.188 9.239-1.757 12.503.101 6.193 3.515 2.745 9.49-.719 13.323-7.332 8.118-19.918 3.866-29.225 5.674" fill="#C7D7EF"/><path d="M593.855 150.219c3.163-4.436 6.444-9.976 11.632-12.252 3.164-1.389 11.064-2.293 12.687 1.774 2.344 5.825-5.155 9.457-9.423 10.26-4.787.904-9.892 1.289-14.562 1.222-.1 0-.87-.05-.468-.084m-3.147.519c-2.879-1.573-9.256.988-5.691 4.436 3.264 3.147 8.169-3.482 4.72-4.335" fill="#224BB2"/><path d="M573.789 201.286c.502-1.942 2.929-3.549 4.117-5.189 1.339-1.824 2.327-3.95 3.097-6.059 1.74-4.737 1.941-10.059-3.666-12.051-4.586-1.624-11.063 2.544-9.189 7.783 1.59 4.452 8.252 2.042 7.449 8.051-.402 3.013-2.227 5.506-3.08 8.201.636-.1.92-.535 1.322-.987m13.204-.804c4.452-2.376 10.143-4.05 13.273-8.502 2.912-4.168 4.402-10.612.502-14.579 3.732 2.862 4.67 7.113 4.335 11.449 4.385-2.126 8.871-4.084 13.373-6.177 5.775-2.694 14.027-6.025 20.588-4.569-5.524 1.372-11.633 7.816-14.914 12.319-3.347 4.586-5.322 7.532-11.147 9.005 3.532-.72 6.695-2.226 10.394-1.908 3.013.251 6.461.184 9.357.87-4.838 2.276-9.072 3.917-14.512 4.369-4.536.368-9.156.719-13.691.92-3.415.151-6.629-.803-9.826-1.59-2.644-.653-5.473-.92-8.184-1.473-.151-.435.217-.251.267-.401" fill="#C7D7EF"/><path d="M594.006 199.311c5.657.786 13.038-.486 18.595-1.908 2.561-.653 13.508-4.938 9.022-9.055-3.95-3.616-12.871 1.707-16.587 3.381-3.833 1.724-7.716 4.686-10.93 7.414-.335.285-.803.921-.619.569" fill="#224BB2"/><path d="M569.974 262.881c-.62 7.967.97 21.525 9.959 24.554 5.172 1.741 9.289-2.962 10.26-7.683 1.188-5.757-1.925-10.226-6.21-13.674-4.285-3.431-9.775-5.022-15.081-5.775" fill="#C7D7EF"/><path d="M569.84 258.763c-2.728.251-4.854 5.139-.686 4.72 3.397-.334 3.13-4.418-.101-4.351m4.316 4.787c.302 2.276 1.222 4.72 1.691 7.046.519 2.578.602 5.239 1.406 7.783 1.305 4.151 7.197 9.558 10.545 3.8 2.644-4.553-2.712-10.478-5.925-13.257-2.444-2.109-5.507-3.28-7.984-5.004.1-.352.251.017.468-.117" fill="#224BB2"/><path d="M608.086 259.215c10.813 6.11 21.96 16.069 35.266 15.684 1.557-.051 3.381-.553 4.151-2.059 1.289-2.528-1.037-3.532-3.146-4.553-5.239-2.527-11.298-2.762-16.671-4.62 2.594-2.125 5.641-3.447 7.883-6.276 1.624-2.059 5.541-6.829 4.017-9.574-2.778 2.895-4.636 6.494-8.101 9.038-2.812 2.059-6.142 3.247-9.574 3.632-4.469.502-9.691-.435-13.641-1.004m8.517 33.509c-4.82-4.737-12.285-.987-15.516 3.733-2.46 3.581-3.766 7.783-5.941 11.532-1.925 3.314-4.654 5.54-7.014 8.352 8.771-.92 17.91-9.373 20.454-17.474-4.251 8.971-12.637 18.88-9.875 29.676.954 3.732 4.619 6.996 7.967 3.682 3.013-2.962 5.44-9.842 5.724-14.093-.284 5.908-.234 11.181 1.925 16.805 1.975 5.122 4.804 12.034 9.607 15.064 6.294 3.967 9.541-1.908 10.11-7.549.569-5.691-1.992-12.503-6.143-16.436-.853 6.46 9.357 14.863 13.407 6.912 4.402-8.636-3.531-14.562-9.875-18.579 2.276 4.335 8.904 2.662 11.114-.82 2.276-3.582 2.176-9.791-.117-13.189-2.896-4.285-9.039-8.553-14.093-9.825-4.536-1.139-7.917.786-11.817 2.46m-38.698-82.802c8.419 1.205 14.947 4.084 21.358 9.943 6.159 5.657 8.017 16.202 16.771 18.729-8.118 5.842-17.29-4.435-21.96-10.478-5.256-6.795-8.988-12.938-16.202-17.859m-8.352 15.365c-1.624 1.088-5.206.168-6.327 1.708-1.64 2.243 1.339 4.402 3.465 4.837 5.841 1.222 8.837-4.904 7.733-9.742-.904-3.916-4.001-7.13-6.662-9.624.017 0 6.461 9.708 1.791 12.821z" fill="#C7D7EF"/><path d="M617.02 297.059c-.485 6.076-4.134 10.713-1.908 16.989 1.389 3.95 6.444 9.139 10.093 3.967 4.586-6.477-2.076-16.821-6.846-21.341-.335-.318-.602-.552-.887-.937a4.152 4.152 0 01-.552 1.891" fill="#224BB2"/><path d="M614.476 297.695c-5.055-4.084-10.913 5.641-12.855 8.486 1.657-1.322 3.498-2.159 5.155-3.598 1.841-1.59 3.147-3.616 5.758-3.682-1.925 1.489-3.063 3.782-4.871 5.523-1.791 1.724-3.799 3.197-5.573 4.938 3.013-1.021 5.858-3.415 8.938-4.034-4.687 5.105-4.787 13.541-7.951 19.315 1.942-3.13 6.545-6.528 8.587-9.507-.586 4.051-1.339 7.666-3.616 10.93 2.327-1.858 3.381-5.256 5.992-7.281-2.175 8.252 5.474 15.265 4.754 22.981.904-6.31-.502-11.934.301-18.227.887 2.962 1.741 5.791 2.879 8.686 1.105 2.812.787 5.34 1.272 8.169.62-2.628-.016-5.557.101-8.252.117-2.645.786-5.992.067-8.553-.352 4.285 1.104 9.256 1.238 13.557 1.071-4.87 2.544-8.285 1.574-13.139.753 2.595 2.527 4.77 3.364 7.315.787 2.376.084 4.736.669 6.912 1.524-6.444 1.189-14.177-.853-20.386 1.188 4.134 7.532 4.82 7.398 8.787.469-4.134-2.879-10.846-5.808-13.491 2.444.151 5.674 1.155 8.017 1.908.435-4.569-6.896-6.109-8.988-7.598 2.327.334 4.653.535 6.729 1.606 1.707.887 2.979 2.461 4.669 3.181.837-4.821-8.988-7.081-11.967-8.369 2.611-4.386 8.921-2.461 11.683.519-1.306-2.578-4.737-3.967-7.365-4.486-2.628-.519-5.674-1.289-8.419-1.54 4.687-3.046 9.608-1.59 14.11 1.188-5.657-4.552-11.415-6.193-18.311-3.967 3.331 7.599 11.08 13.123 6.846 22.245-1.674 3.599-5.423 6.093-9.641 4.954-3.816-1.037-5.741-5.757-6.511-9.289-1.155-5.356 1.021-10.06 2.511-14.914" fill="#224BB2"/><path d="M531.005 345.666c-9.407-1.707-17.977-3.431-27.383-4.285-11.984-.854-18.83 5.139-29.091 6.846-15.398 1.707-35.936-13.692-52.205-17.123-23.098-5.139-53.912-8.553-76.157.854-13.691 5.138-16.252 12.837-31.667 11.13-11.985-.853-23.969-5.138-35.936-6.846-47.067-5.992-117.232-1.707-147.192 41.075-17.977-4.285-42.782 1.707-55.62 16.252 71.889 1.708 144.631.854 217.357 3.432 59.904 2.561 120.662 1.707 180.567-.854 32.521-1.707 64.189-.854 95.84-2.561 23.099-.853 54.766-1.707 74.45-12.838-14.545-8.553-36.79-11.984-53.059-17.976-19.683-6.846-40.221-12.838-59.904-17.106z" fill="#C7D7EF"/><path d="M549.919 298.499l17.24-83.873-5.641-1.239-5.624-1.238-19.483 83.387c-39.099 33.877-56.557 54.381-61.712 60.859l105.967 24.018c-1.69-7.029-8.67-33.09-30.747-81.914z" fill="#ED9926"/><path d="M549.919 298.499l17.24-83.873-5.641-1.239-5.624-1.238-19.483 83.387c-39.149 33.928-56.573 54.398-61.712 60.859l105.967 24.018c-1.674-7.013-8.67-33.073-30.747-81.914z" fill="#F37021"/><path d="M541.635 339.172a7.587 7.587 0 01-9.022 5.774 7.586 7.586 0 01-5.774-9.021c.904-4.085 4.937-6.662 9.005-5.775 4.117.904 6.695 4.954 5.791 9.022z" fill="#703111"/><path d="M548.029 349.7l-29.827-6.545-.218 1.021 29.777 6.746.268-1.222z" fill="#072E72"/><path d="M536.145 370.07l-18.027-3.967-.134.619 18.01 4.084.151-.736z" fill="#00307A"/><path d="M549.788 194.081l-.37 1.684 5.525 1.214.37-1.684-5.525-1.214zm-.238 9.145l-.37 1.684 5.542 1.218.37-1.684-5.542-1.218zm.199 9.228l-.37 1.684 5.542 1.216.37-1.684-5.542-1.216z" fill="#ED9926"/><path d="M549.919 298.499l17.24-83.873-5.641-1.239-5.623-1.238-19.483 83.387c-12.57 10.88-22.881 20.37-31.283 28.471 4.101 2.327 19.717 10.11 32.823 2.059 9.791-6.009 18.863-2.611 24.119.602-3.431-8.402-7.449-17.758-12.152-28.169z" fill="#072E72"/><path d="M565.969 193.101l-11.834-2.594-.569 30.864 5.909 1.289 5.908 1.305 12.42-28.27-11.834-2.594z" fill="#072E72"/><path d="M551.742 195.361a2.142 2.142 0 01-2.578 1.64 2.141 2.141 0 01-1.64-2.578 2.141 2.141 0 012.577-1.64c1.155.268 1.908 1.423 1.641 2.578z" fill="#224BB2"/><path d="M562.808 197.804a1.418 1.418 0 01-1.691 1.088 1.417 1.417 0 01-1.088-1.69 1.418 1.418 0 011.691-1.088c.77.15 1.255.92 1.088 1.69zm1.488 9.541a1.418 1.418 0 01-1.691 1.088 1.419 1.419 0 01-1.088-1.691 1.419 1.419 0 011.691-1.088c.77.168 1.255.921 1.088 1.691zm1.492 9.54a1.417 1.417 0 01-1.69 1.088 1.417 1.417 0 01-1.088-1.69c.167-.77.92-1.255 1.69-1.088.77.167 1.256.921 1.088 1.69z" fill="#fff"/><path d="M551.928 204.633a2.142 2.142 0 01-2.577 1.641 2.165 2.165 0 01-1.657-2.578 2.14 2.14 0 012.577-1.64 2.151 2.151 0 011.657 2.577zm.184 9.256a2.165 2.165 0 01-2.578 1.657 2.165 2.165 0 01-1.657-2.577 2.142 2.142 0 012.578-1.641c1.172.235 1.908 1.39 1.657 2.561z" fill="#224BB2"/><path d="M561.028 197.41l-37.387 170.082.85.187 37.387-170.083-.85-.186zm1.56 9.18l-35.537 161.663.85.187 35.537-161.664-.85-.186zm1.54 9.209l-33.62 153.244.85.186 33.62-153.243-.85-.187z" fill="#fff"/><path d="M486.4 293.36c1.724-28.471 5.624-56.439 6.779-84.777 1.122-27.667-4.034-55.937-6.594-83.086-1.172-12.486-10.077-21.592-18.63-30.73-3.213-3.432-8.235-7.566-12.402-12.035-3.532 7.75-7.315 15.516-7.315 23.266 5.089-2.544 7.633-10.177 12.721-7.633 7.632 7.633 5.088 17.809 5.088 27.969 5.089-2.544 2.544-7.632 5.089-10.177 20.353 48.322-2.545 96.644-5.089 144.966 5.089 0 7.633-7.632 10.177-5.088 10.645 27.684-.101 58.951 6.578 84.81.067-2.025.117-3.816.201-5.121.904-14.244 2.544-28.187 3.397-42.364z" fill="#703111"/><path d="M451.652 144.16c6.076 4.285 32.99-28.237 36.689-35.601 6.277-12.52-1.339-30.296 4.787-41.56 5.825-10.713 24.22-12.152 29.543.016 3.899 8.922-6.645 29.626-10.83 38.146-6.812 13.859-16.085 25.475-26.278 37.325-7.549 8.754-23.416 26.462-35.484 26.981.351-6.896-4.938-21.29-.134-26.144m-58.5 2.527c-22.931 13.374-44.104 24.622-70.165 9.959-6.377-3.582-10.226-7.565-15.231.235-3.247 5.054-2.427 12.453 0 17.541 6.829 14.361 22.228 9.741 35.4 10.394 14.612.736 32.84-.703 45.828-9.105 9.608-6.227 15.064-24.287 1.657-29.04" fill="#C15823"/><path d="M325.551 162.923c-3.615-2.076-7.783-5.641-12.403-4.77-4.77.903-3.615 9.071-2.527 12.704 1.339 4.469 6.712 6.678 11.432 5.724 5.105-1.038 4.636-9.105 2.862-13.039" fill="#F37021"/><path d="M321.935 157.717c-1.188-1.121-1.489-5.456-3.314-7.163-.502 2.962 1.021 5.557 2.461 8.017m-11.431-2.126c-2.193-.82-3.532-3.28-4.653-5.155-2.796 2.745 1.456 6.327 3.799 7.733.385-.285.937-.586 1.272-.887m-3.399 8.921c-2.46-.686-3.95-3.515-6.293-4.184-.452 3.079 5.322 8.837 7.147 5.875m2.961 7.197c-2.795-.569-5.624-1.088-7.883-2.913 1.138 1.892 7.381 7.265 7.883 2.913z" fill="#703111"/><path d="M476.221 256.069c-2.544-2.545-5.089 5.088-10.177 5.088 2.544-48.322 25.425-96.644 5.088-144.966-2.544 2.544 0 7.632-5.088 10.177 0-10.177 2.544-20.337-5.088-27.97-5.088-2.543-7.633 5.089-12.721 7.633 0-7.75 3.783-15.5 7.315-23.265-3.867-4.151-6.98-8.587-7.181-13.04 6.26-1.924 14.997-8.485 16.001-15.398 1.172-8.134-8.753-15.265-13.356-6.277-9.758-4.335-22.011-7.532-31.233-13.206 3.23-14.478-15.583-21.106-17.458-3.548-14.762 5.507-27.901 4.402-44.522 4.385.067.486.017 1.038-.268 1.69v-1.69h.268c-.536-4.05-11.482-2.929-14.06-.234-4.569 4.77.235 11.716 3.616 16.336 3.481 4.737 8.017 8.302 13.758 9.992 2.193.653 4.988.636 7.8.62 4.034-.017 8.118-.034 10.578 1.891-5.942 4.385-11.114 2.695-16.403 1.004-3.632-1.154-7.314-2.326-11.365-1.506-.82 9.072 16.119 12.336 21.056 16.821 7.147 6.495 7.164 18.847 7.633 27.969 1.205 23.751-1.908 46.883-.804 70.366.653 13.892 2.394 28.471 1.657 42.38-.786 14.562-3.766 29.107-2.36 43.886 1.172 12.252 3.95 25.392 6.645 37.443 2.578 11.549 12.453 26.295 10.846 38.062-14.528-1.909-20.169 16.52-19.248 27.131 6.996.553 14.11-.753 21.24-2.075 6.678-1.222 13.374-2.46 20.035-2.159.402-8.001.519-16.42.134-24.454-.385-7.984-3.866-15.901-3.264-23.6 9.039 1.138 17.993 2.895 27.718 3.381 1.172 13.072 6.477 25.793 6.896 38.597-11.382 3.281-24.136 12.235-17.675 21.341.385-.151.803-.251 1.205-.385-.067.134-.117.251-.184.385 6.896.318 14.696-1.724 21.742-2.411 4.252-.418 17.809.486 21.023-1.874 5.925-4.335 6.444-22.998 6.762-33.71-6.662-25.877 4.101-57.126-6.561-84.81z" fill="#C15823"/><path d="M357.819 35.649h-.268v1.69c.201-.485.284-.92.284-1.305 0-.134 0-.268-.016-.385z" fill="#DA9B7B"/><path d="M344.614 47.516c.602-.787-5.557-7.365-2.946-11.215 2.678-3.933 8.134-4.837 12.168-3.43 11.131 3.9 2.143 17.741-6.327 18.394.201-1.071 4.603-3.498 3.398-5.055-1.088-1.422-3.665 2.93-4.402 3.549-3.498-1.841-.485-4.068-.954-6.712-.854-4.938-2.31.435-1.975 2.745-.737-.285-1.055-.887-1.222-1.155" fill="#703111"/><path d="M414.242 52.604c4.118-3.85 10.21-1.038 12.051 3.766-5.021.419-8.369.603-11.733-3.766" fill="#fff"/><path d="M421.22 51.65c-3.029-1.674-6.092 3.783-2.226 5.088 3.8 1.272 5.591-4.937 1.59-5.406" fill="#703111"/><path d="M511.506 64.689c-11.181-7.097-23.483 17.374-6.36 18.127 7.23.318 12.235-1.205 13.289-8.905.687-5.038-2.828-9.44-7.883-9.54" fill="#F37021"/><path d="M496.894 65.007c-.016-2.678 1.088-5.206 1.858-7.6-2.008 1.742-3.431 6.127-3.13 8.872m24.788 6.361c2.862-3.365 4.402-9.44 2.226-13.558-1.289 2.042-4.519 14.06-2.226 13.557zm-19.067-10.495c-.602-.318 2.327-4.687 3.766-5.624.017 1.556-.887 3.096-1.774 4.419-.468.686-1.038 1.305-1.59 1.908-.77.82-1.121 1.188-1.038.87m13.345.017c.519-2.026 2.076-5.758 0-7.348-2.025 1.356-3.498 10.93.318 7.984" fill="#703111"/><path d="M116.98 120.71c-3.884-.887-11.081.101-15.382-3.649-4.57-4-5.792-12.419-5.808-18.143-.05-12.336 4.301-26.915 16.403-31.986-1.842 11.549 6.929 16.972 13.423 24.755 3.649 4.368 11.683 29.006-1.205 24.655 5.54 2.41 4.837 10.042.084 13.105-5.591 3.599-11.549-3.531-8.553-8.703.602.452.803 1.088 1.339 1.573l-.737-1.121.436-.486z" fill="#497EE8"/><path d="M135.709 170.438c3.381-21.123-6.913-28.036-23.383-35.35-15.767-7.013-27.918-24.019-23.851-41.225-21.843 11.817-12.135 65.428 14.896 64.959-4.452-2.494-12.971-3.113-14.444 3.063-1.724 7.298 9.055 11.281 14.495 12.302 7.331 1.373 14.461.017 20.838 4.905 4.436 3.397 11.064 11.632 12.604 16.436-2.009-10.896-1.574-21.993-1.624-32.856" fill="#497EE8"/><path d="M137.149 171.158c7.231-12.269 15.717-29.492 28.086-36.606 12.386-7.113 33.024 4.118 42.581-5.222-7.75 13.591-14.713 22.412-30.948 24.169-11.064 1.189-35.15 5.022-40.02 16.085m33.172 67.588c-3.816-3.432-7.448-6.394-10.812-10.713-4.737-6.092-5.574-7.582-2.996-13.741 4.753-11.382 2.561-17.357.987-28.906-5.122 3.531-8.703 8.72-10.26 14.796-1.891 7.398 1.305 10.645 3.833 16.955 2.393 5.976 3.214 9.792 7.917 14.897 2.51 2.711 11.08 12.905 13.507 9.574" fill="#497EE8"/><path d="M178.307 226.727c-1.055-4.988-3.532-17.206-11.817-13.574-9.273 4.05 9.608 26.446 20.303 27.165.519-.167 1.038-.351 1.557-.519-6.612-1.606-8.637-6.427-10.043-13.072z" fill="#497EE8"/><path d="M191.445 239.766c-8.854-2.778-18.11-2.042-26.563-6.109-9.256-4.453-15.114-11.349-21.374-19.617l-.569.435c-6.461-4.218-6.93-13.223-13.842-17.424-6.762-4.101-17.843-3.08-24.37 1.105 22.796.92 17.39 30.178 35.433 39.116 14.278 7.047 36.556 7.9 51.285 2.494z" fill="#497EE8"/><path d="M190.843 236.368c-4.168.385-8.218.385-12.068-.184-3.85-.569-7.499-1.707-10.93-3.649-8.955-5.055-17.608-11.716-23.667-19.734-3.582-4.72-6.26-9.908-7.666-15.549-1.406-5.641-1.54-11.733.05-18.361 2.511-10.495 7.415-21.307 13.625-29.442 2.946-3.883 6.728-7.532 10.494-11.348 3.766-3.833 7.549-7.85 10.395-12.604l-3.7-2.209c-2.527 4.234-6.059 8.034-9.774 11.8-3.716 3.783-7.633 7.515-10.863 11.767-6.628 8.737-11.717 19.984-14.395 31.048-1.757 7.281-1.607 14.127-.033 20.42 1.573 6.294 4.553 12.001 8.419 17.106 6.561 8.67 15.666 15.633 24.989 20.889 5.256 2.963 10.93 4.285 16.721 4.586 2.829.151 13.508.737 22.931-6.946-.937-1.992-9.775 1.975-14.528 2.41z" fill="#497EE8"/><path d="M139.193 78.715c14.277 6.779 20.47 23.215 30.463 35.317 7.816-4.335 18.11-2.511 27.081-3.264 9.189-.77 18.68-2.092 27.668-3.632 7.984-1.356 18.06-8.168 16.068-18.01-1.741-8.637-11.08-10.344-17.893-7.683 10.026.469 20.722-11.582 17.592-21.524-3.917-12.42-19.332-15.282-28.136-6.612 21.039-28.789-29.509-38.547-29.593-12.821-6.327-7.314-11.365-14.763-22.244-10.126-3.599 1.523-8.671 6.527-9.792 9.908-1.891 5.725 1.473 7.95 2.845 13.073-9.992-14.813-29.24 17.072-14.511 21.206l.452 4.168z" fill="#C7D7EF"/><path d="M139.187 78.715l-.553 1.155c3.415 1.624 6.361 3.833 9.022 6.427 4 3.9 7.348 8.72 10.645 13.725 3.298 5.005 6.528 10.194 10.344 14.813a1.265 1.265 0 001.607.301c2.427-1.339 5.138-2.075 8.068-2.46 2.912-.385 6.025-.418 9.155-.418h2.059c2.444 0 4.887-.017 7.281-.218 9.222-.787 18.763-2.092 27.785-3.632 3.883-.67 8.134-2.494 11.498-5.323 1.691-1.422 3.147-3.096 4.202-5.004 1.054-1.925 1.69-4.101 1.69-6.444 0-.888-.084-1.808-.284-2.745-.687-3.415-2.511-5.959-4.888-7.55-2.377-1.606-5.256-2.309-8.134-2.309-2.26 0-4.536.435-6.595 1.239a1.278 1.278 0 00-.804 1.406 1.285 1.285 0 001.206 1.07c.217.018.418.018.619.018 2.377 0 4.753-.62 6.946-1.674 3.297-1.59 6.243-4.151 8.402-7.214 2.143-3.063 3.515-6.628 3.515-10.26 0-1.356-.201-2.729-.619-4.05-1.272-4.068-3.732-7.215-6.795-9.324-3.047-2.109-6.696-3.18-10.361-3.197a18.64 18.64 0 00-13.106 5.373l.904.92 1.038.754c3.732-5.105 5.373-9.758 5.373-13.86 0-2.543-.636-4.853-1.758-6.845-1.674-2.996-4.368-5.256-7.498-6.762-3.13-1.506-6.712-2.293-10.261-2.293-4.418 0-8.804 1.205-12.168 3.867a14.377 14.377 0 00-4.067 5.088c-.988 2.058-1.523 4.469-1.54 7.214h1.289l.97-.837c-2.46-2.846-4.77-5.775-7.414-8.068-1.323-1.138-2.745-2.125-4.319-2.828a12.637 12.637 0 00-5.189-1.105c-2.075 0-4.318.485-6.778 1.54-2.042.87-4.268 2.577-6.227 4.536-.971.97-1.874 2.008-2.611 3.046-.736 1.038-1.322 2.075-1.674 3.096-.435 1.306-.619 2.494-.619 3.6 0 2.075.686 3.765 1.423 5.305.736 1.556 1.54 3.03 2.025 4.887l1.239-.334 1.071-.72c-1.021-1.507-2.159-2.628-3.398-3.364a7.531 7.531 0 00-3.933-1.105c-1.992 0-3.9.753-5.624 1.908-2.611 1.758-4.871 4.452-6.545 7.482-1.657 3.03-2.711 6.36-2.711 9.473 0 1.942.418 3.817 1.456 5.39 1.021 1.573 2.678 2.778 4.837 3.381l.352-1.239-1.272.134.452 4.168c.05.452.318.837.719 1.021l.553-1.155 1.272-.134-.452-4.168a1.286 1.286 0 00-.938-1.104c-1.657-.469-2.694-1.272-3.397-2.327-.687-1.037-1.038-2.393-1.038-3.967 0-1.673.402-3.565 1.105-5.456 1.071-2.829 2.845-5.607 4.904-7.616 1.021-1.004 2.109-1.824 3.18-2.377 1.071-.552 2.126-.837 3.13-.837.887 0 1.741.218 2.611.737.87.519 1.741 1.339 2.594 2.594a1.29 1.29 0 001.591.452c.569-.267.87-.887.703-1.506-.586-2.193-1.49-3.85-2.193-5.323-.703-1.473-1.172-2.711-1.172-4.218 0-.803.134-1.707.502-2.795.218-.67.687-1.523 1.323-2.41.954-1.356 2.309-2.795 3.715-4.017 1.406-1.222 2.896-2.21 4.051-2.712 2.209-.937 4.117-1.322 5.774-1.322a9.97 9.97 0 014.151.887c1.925.854 3.7 2.293 5.457 4.1 1.757 1.809 3.498 3.951 5.39 6.127.351.402.92.552 1.422.368.502-.184.837-.67.837-1.205.017-2.41.486-4.419 1.289-6.11 1.205-2.543 3.18-4.385 5.607-5.64 2.427-1.239 5.339-1.858 8.302-1.858 4.235 0 8.553 1.272 11.733 3.565 1.59 1.155 2.896 2.544 3.8 4.168.904 1.624 1.422 3.465 1.422 5.59 0 3.398-1.355 7.532-4.87 12.336a1.274 1.274 0 00.201 1.724 1.287 1.287 0 001.74-.05 16.037 16.037 0 0111.298-4.636c3.18 0 6.31.937 8.905 2.728 2.594 1.808 4.686 4.452 5.791 7.984.335 1.071.502 2.176.502 3.28 0 1.976-.502 4.018-1.406 5.959-1.356 2.912-3.615 5.607-6.276 7.532-2.662 1.925-5.708 3.096-8.604 3.08-.167 0-.334 0-.502-.017l-.067 1.289.469 1.188a15.865 15.865 0 015.657-1.071c2.461 0 4.838.62 6.695 1.875 1.858 1.272 3.231 3.146 3.817 5.942.15.77.234 1.523.234 2.242 0 1.892-.502 3.633-1.373 5.223-1.305 2.376-3.464 4.435-5.975 5.992-2.511 1.556-5.356 2.611-7.917 3.046-8.971 1.54-18.428 2.845-27.567 3.615-2.26.184-4.636.218-7.063.218h-2.059c-3.164 0-6.377.033-9.49.452-3.13.418-6.177 1.205-8.972 2.762l.619 1.121.988-.82c-4.904-5.925-8.938-13.039-13.558-19.583-2.309-3.264-4.787-6.394-7.615-9.156-2.829-2.762-6.009-5.155-9.725-6.913l-.552 1.172 1.272-.134-1.272.134z" fill="#497EE8"/><path d="M166.609 111.973c-23.249 1.724-30.547-21.927-34.597-40.957 18.913 3.732 43.367 11.85 39.099 35.785 8.235-6.896 21.14-9.725 31.886-8.653 12.519 1.255 17.273 12.017 26.797 18.06-8.218 4.686-17.726 12.252-27.634 12.72-9.524.452-17.558-6.711-24.889-11.214 4.1 17.123-28.17 7.699-9.373-5.055l-1.289-.686z" fill="#497EE8"/><path d="M175.744 103.236c1.372-7.65-4.017-16.889-2.126-24.454 2.477-10.01 14.093-9.792 21.525-5.523 20.788 11.984-6.394 28.521-19.968 30.412" fill="#224BB2"/><path d="M154.638 78.514c-2.092-3.431-6.327-6.645-9.892-8.369 4.57.05 10.578 1.657 14.127 4.486-1.406-4.1-3.498-10.545-7.7-12.52 4.57 1.69 8.838 6.126 11.934 9.691.335-3.364-1.757-8.82-3.498-11.666 2.846 1.825 3.833 5.34 5.925 7.75 1.105-2.059-.251-6.712-.435-9.122-.318-4.068-.033-9.507-1.807-13.207 4.167 5.574 5.305 12.119 7.766 18.127.87-4.301.653-9.724-1.138-13.724 1.623 3.832 3.23 8.402 4.285 12.453.318-1.356.067-2.779.502-4.068 1.289 1.423 1.824 3.515 3.013 5.038.251-1.339-.084-2.962.502-4.368.719.72.92 1.824 1.238 2.694.402-5.79 5.423-13.808 9.524-17.742-.686 4.42-1.824 9.19-3.281 13.34 5.239-3.146 6.277-8.87 8.235-14.01.503 4.972-.836 9.458-2.393 14.094 3.364-2.996 7.766-4.787 9.691-9.206.017-.117.017-.117-.017 0-1.355 4.386-2.828 8.486-4.753 12.537 2.343-1.74 4.268-4.017 6.36-6.009-2.209 2.829-4.402 6.946-5.707 10.143 2.644-1.59 5.289-4.134 7.532-6.276 1.673-1.59 2.745-4.436 4.77-5.557-.787 3.397-4.051 6.326-5.021 9.557 2.46-1.188 7.833-5.021 10.394-4.017-3.264 1.088-5.541 4.887-8.068 7.063 3.482 3.565 10.428-2.226 14.026-2.778-3.431 4.67-10.611 4.92-13.859 9.69 3.432-2.778 8.503-4.184 12.704-5.188-4.385 1.004-9.574 5.005-12.503 8.302 1.775.62 4.804-.301 6.679-.67 2.226-.451 4.268-.518 6.494-.786-3.297 1.44-6.327 3.013-9.524 4.67 4.737.97 7.398 5.992 12.168 7.348-3.28-.251-6.812-.452-10.159-.636 2.611 1.69 5.858 2.728 8.369 4.335-3.13-.017-7.583-.603-10.612.519 2.31 3.698 6.862 4.468 10.779 5.54-3.984-.837-7.549-.67-11.064-2.98-2.075-1.372-1.891-1.456-4.134-.401-1.473.686-2.661 1.372-4.184 1.908-2.863.987-5.875 1.305-8.671 2.51-2.343 1.022-5.707 3.833-8.335 2.83 3.147-1.909 5.908-4.403 9.541-5.591 3.699-1.222 7.649-1.741 10.946-3.783 6.16-3.8 5.607-13.005-2.511-12.47 2.16-2.142 4.302-7.448 2.478-10.176-2.31-3.431-6.863.167-9.658 1.071-1.071-3.833-.067-9.992-6.143-10.076-4.971-.067-8.034 4.1-9.44 8.067-2.511-2.644-10.21-1.037-12.286 1.674-2.142 2.795-2.828 7.783-1.69 10.947-.017.117-.034.117-.034 0l.319-.435c3.531 4.134 4.853 8.419 5.858 13.708.77 4.067 1.874 9.992-.117 13.959-.603-3.398.016-6.662-1.44-9.775-1.138-2.444-2.393-4.97-4.201-7.13-3.164-3.783-10.11-6.093-11.8-10.83-.251-.234.251.068.351.068m16.423 35.199c-1.824 1.389-7.381 6.16-2.795 8.118 4.887 2.092 4.067-5.323 3.046-7.398" fill="#224BB2"/><path d="M141.835 159.508c2.31-7.682 9.039-15.214 8.938-23.868-.167-13.658-13.675-12.62-8.904.168-6.177-10.043-11.516-5.122-9.591 4.837 1.439 7.482 8.302 14.461 8.402 21.659.938-2.963 2.511-5.808 4.436-7.968" fill="#497EE8"/><path d="M192.134 240.235l-.017.016h.017v-.016zm-87.489-42.029l.084-.05h-.067c-.385-.034-.385-.017-.017.05z" fill="#FFB452"/><path d="M130.554 170.756c-.369-12.202-4.084-21.943-15.985-26.613-6.678-2.628-11.917-5.038-17.525-9.775-3.799-3.213-7.364-6.896-10.36-10.863-3.164-4.184-3.766-8.854-5.657-13.323-2.243 7.599 2.075 19.516 6.46 25.676 4.168 5.858 11.717 12.068 18.713 13.976-3.398-1.289-8.118 1.172-8.603 4.887-.586 4.536 5.624 8.486 9.122 10.294 7.766 4 16.872 1.289 24.923 5.373.133.485-.268-.084-.536-.067m-10.98-53.779c-4.435-4.184-9.875-5.925-13.541-11.348-2.728-4.034-5.858-11.85-2.577-16.503 4.937-6.997 13.992 3.398 16.018 8.235 2.042 4.904 1.272 14.16 1.021 19.483-.067 1.272.502.485-.201.485m28.789 36.254c4.252-5.992 12.152-12.905 19.935-14.093 5.005-.77 19.249-2.929 22.077 2.494-6.561 6.444-16.587 5.289-24.688 7.163-5.975 1.373-12.453 2.628-17.893 4.871m-6.478-3.197c-.268-5.038 6.478-12.754 1.925-17.591-3.297 2.527-1.473 9.44-2.059 13.139-.836-1.188-5.573-11.951-7.866-7.432-1.674 3.298 7.632 9.591 8.569 11.449" fill="#C7D7EF"/><path d="M121.129 116.676c-2.21-2.879-1.64-7.783-3.147-11.147-.971-2.176-5.272-9.992-7.967-10.244-6.26-.602 2.059 11.365 3.331 12.905 1.941 2.327 6.528 5.674 7.348 7.917m.652.854c-1.975.854-6.511 5.222-2.209 7.08 3.933 1.69 5.49-5.038 3.264-7.348-1.005.084-1.557.586-1.992 1.423" fill="#224BB2"/><path d="M116.092 247.382c-3.197 2.058-2.31 7.515 1.807 5.49 3.532-1.741 1.272-7.181-2.159-4.771" fill="#F37021"/><path d="M115.021 197.804c5.155 2.226 9.29 4.787 11.6 10.127 2.611 6.042 2.711 11.666 7.113 16.989 7.03 8.502 22.663 12.57 33.007 15.047-1.942-1.791-5.021-2.41-7.432-3.682-3.883-2.059-7.481-4.654-10.578-7.733-5.691-5.658-9.34-12.821-13.825-19.332-4.988-7.231-13.139-13.725-22.496-11.951 1.574.234 3.381.385 4.837 1.104m35.651 14.412c-.57-7.683-4.068-14.997 2.862-20.99.619 8.687-.435 13.893-3.499 21.927" fill="#C7D7EF"/><path d="M177.618 234.125l-.502-1.858a.614.614 0 01-.034.201c.151.72.335 1.289.536 1.657z" fill="#FFA436"/><path d="M177.069 232.468c-.971-4-1.791-12.369-4.82-13.641-4.068-1.691-1.708 3.866-.887 5.708.92 2.092 2.159 4.318 3.615 6.092.77.954 1.858 2.846 2.092 1.841z" fill="#C7D7EF"/><path d="M128.275 277.895c-10.762-2.394-19.349.234-28.103 6.862-9.021 6.846-20.018 12.537-31.734 8.988 5.188 12.554 20.654 18.629 33.241 13.223 6.009-2.577 10.545-7.867 14.712-12.67 2.31-2.662 4.201-5.507 6.277-8.353 1.272-1.74 5.925-7.213 4.318-6.192" fill="#497EE8"/><path d="M194.006 235.682c-5.005 1.674-10.177 3.08-15.884 4.854-9.558 2.962-19.332 8.352-27.818 14.763-4.185 3.163-8.035 6.578-11.416 10.092-4.117 4.302-9.574 10.88-13.708 18.077-2.059 3.599-3.799 7.365-4.82 11.114-1.038 3.749-1.373 7.532-.519 11.097l4.184-1.021c-.636-2.611-.418-5.657.486-8.938 1.339-4.921 4.234-10.26 7.532-15.097a98.04 98.04 0 019.959-12.269c3.196-3.331 6.896-6.611 10.896-9.641 8.134-6.159 17.558-11.315 26.496-14.093 5.624-1.741 10.812-3.147 15.984-4.871 5.072-1.69 15.299-5.255 15.449-6.645.134-1.372-14.863 1.925-16.821 2.578z" fill="#497EE8"/><path d="M136.292 261.374c-7.9 2.394-15.566 2.963-22.83 1.105-7.264-1.841-14.194-6.092-20.705-13.675a62.965 62.965 0 01-2.025-2.51c-3.649-4.821-6.779-10.545-9.055-16.554-2.293-6.009-3.733-12.285-4.084-18.194-.318-5.423.084-11.214.301-16.888.218-5.674.251-11.248-.92-16.336l-4.185.97c1.021 4.369 1.038 9.625.82 15.198-.217 5.591-.636 11.499-.301 17.29.368 6.428 1.925 13.106 4.352 19.483 2.427 6.377 5.724 12.436 9.64 17.625a59.84 59.84 0 002.177 2.712c4.636 5.423 9.624 9.389 14.88 12.051 7.866 3.983 16.285 4.971 24.704 3.749 18.697-1.523 23.166-13.022 23.166-13.022-5.323 2.996-10.679 5.406-15.935 6.996z" fill="#497EE8"/><path d="M77.328 195.16c-.435-11.599 2.31-25.14-5.457-34.564-4.62-5.607-9.373-7.917-16.235-4.803-7.248 3.28-5.792 9.339-10.562 14.461 9.457 2.845 16.135-11.348 23.684-1.891 3.783 4.753 6.662 20.788 7.281 25.09m43.017 106.72c-5.741 3.699-4.954 10.277-.636 14.796-26.311 9.708 4.637 33.007.72 49.041 12.252-3.498 16.52-13.607 19.265-25.156 2.193-9.223.335-24.705-12.687-22.864 5.44-1.406 4.804-8.838 2.126-12.57-4.235-5.875-7.114-2.929-7.114-2.929l-1.674-.318zm21.273-24.203c-3.967 2.745-5.055 8.804-4.904 13.323.167 5.507 2.761 9.206 6.025 13.524 4.235 5.607 8.62 11.265 10.461 18.177 2.561 9.608 1.272 19.366-1.674 28.739-.669 2.126-1.088 4.687-2.493 6.461 6.025-4.636 12.067-8.737 16.67-15.014 3.482-4.753 6.495-10.093 7.516-15.968.435-2.427.97-6.477-.804-8.536 2.293 1.573 4.971.469 6.444-1.724 2.243-3.364.419-9.055-.987-12.386-2.477-5.892-10.512-13.189-17.408-10.478 3.214 1.456 7.114-.284 8.938-3.213 2.98-4.771-.468-9.725-5.172-11.181-4.301-1.323-9.105-1.105-12.754-4.168-2.644-2.209-3.18-6.277-.335-8.737-5.389 2.193-10.092 8.821-12.586 13.859-1.239 2.51-2.059 5.339-2.126 8.218-.1 5.005 2.142 8.486 5.189 12.503" fill="#497EE8"/><path d="M74.734 187.46c4.419 5.842 3.264 14.177-2.578 18.596-5.841 4.419-14.177 3.264-18.596-2.578-4.418-5.841-3.263-14.176 2.578-18.595 5.842-4.419 14.177-3.264 18.596 2.577zm21.508-4.117c2.728 3.599 2.008 8.737-1.59 11.449-3.599 2.728-8.737 2.008-11.449-1.591-2.728-3.598-2.008-8.72 1.59-11.448 3.599-2.728 8.72-2.009 11.449 1.59zm-16.803 43.669c4.87 6.444 3.615 15.633-2.846 20.504-6.444 4.87-15.633 3.615-20.504-2.846-4.887-6.444-3.615-15.633 2.846-20.504 6.444-4.87 15.616-3.598 20.504 2.846zm29.993-19.968c3.716 4.92 2.762 11.917-2.159 15.649-4.921 3.716-11.917 2.762-15.65-2.159-3.716-4.921-2.761-11.917 2.16-15.65 4.92-3.732 11.933-2.761 15.649 2.16zm-8.871 55.77c5.004 6.611 3.699 16.035-2.913 21.039-6.611 5.005-16.034 3.699-21.039-2.912-5.004-6.612-3.699-16.035 2.912-21.04 6.612-5.004 16.019-3.699 21.04 2.913zm27.029-28.053c4.419 5.842 3.281 14.177-2.577 18.596-5.842 4.436-14.177 3.281-18.596-2.578-4.419-5.841-3.281-14.176 2.578-18.595 5.841-4.419 14.176-3.264 18.595 2.577z" fill="#497EE8"/><path d="M57.46 197.386c-.837 2.26.636 5.423 1.959 7.365.033-1.256 0-2.494-.05-3.7 1.104 1.507 2.209 3.03 3.414 4.436.335-1.824-.519-4.168-1.724-5.708 2.444 1.457 4 4.269 5.908 6.478-.452-2.544-1.02-5.373-2.962-7.03 1.958 1.523 4.201 5.222 6.762 5.155-1.406-2.125-3.046-4.184-4.636-6.209 2.343 1.389 4.452 3.481 6.51 5.155-.803-2.611-3.18-4.804-4.72-7.064 2.46-.351 4.905 1.34 6.695 2.511-1.07-2.879-3.314-5.406-6.059-6.561 1.473-.603 3.298 0 4.854.234-.351-3.18-5.222-4.117-7.9-4.234 1.44-.904 3.264-.017 4.904.234-1.657-3.013-5.858-4.067-8.318-1.674 2.879 2.126 6.912 4.452 4.2 8.001-2.275 2.979-6.142 4.117-9.238 2.059" fill="#224BB2"/><path d="M57.21 189.921c-2.344 2.126.468 6.846 3.464 4.586s-.904-6.779-3.532-4.084m-.668 41.911c-.703 2.896-.954 5.808.804 8.235.117-1.473.184-2.895.82-4.201.033-.184.017-.184-.017 0-.385 4.452 2.343 8.218 4.82 11.65-.451-2.444-1.238-4.202-1.138-6.93 2.243 3.565 3.599 6.829 7.566 8.821-1.59-2.042-2.126-4.318-3.147-6.511 1.205.803 4.402 3.214 5.624 5.088-.418-2.142-2.126-4.703-3.532-6.477 1.925 2.41 4.77 3.498 6.78 5.841-1.139-2.979-3.014-5.624-5.022-8.285 2.109 1.272 6.31 3.9 8.653 5.624-1.573-2.561-2.695-6.846-5.925-7.917 2.427 1.188 5.005 2.762 6.996 3.967-1.322-3.18-3.012-8.101-7.08-8.838 2.31.854 4.386 2.327 5.909 4.218-1.055-4.569-3.766-6.544-7.85-8.268 2.192.234 4.117 1.891 6.193 1.992-1.172-3.013-3.515-5.658-6.712-6.478-4.017-1.038-5.64 1.557-8.737 2.544 6.528-2.159 11.566 3.482 9.457 9.758-3.063 9.122-11.918 4.469-14.094-2.711" fill="#224BB2"/><path d="M60.47 229.305c-2.36 1.473-1.439 5.657 1.658 4.703 3.28-1.004.803-6.009-1.724-4.201m32.624-21.09c-1.941 2.026-3.397 5.323-1.874 8.118.368-1.573 1.272-3.347 2.109-4.636-.184 3.699.82 6.494 2.46 9.624-.117-2.293-1.071-4.603-.25-6.812.92 2.862 2.727 5.908 3.9 8.553.451-1.808.083-4.519-.235-5.574 1.807 1.289 2.644 3.331 3.933 5.105 1.975-1.757 1.222-5.791.167-8.017 1.306 1.791 2.612 3.481 3.248 5.423 4.586-3.298 1.171-15.901-4.871-14.177 2.912 2.544 4.921 6.896.636 9.825-4.436 3.046-7.381-3.565-9.089-6.645" fill="#224BB2"/><path d="M97.896 206.826c-3.28 1.188 1.239 8.319 3.582 3.063-.502-1.624-1.389-3.465-3.364-2.778m-11.446-23.333c-2.61.586-3.749 3.063-3.347 5.624.485-.87 1.356-1.456 1.875-2.159.184 1.506.067 3.23.067 4.72.351-.251.803-.452 1.154-.703.436.971.754 2.276.82 3.28.419-.435 1.256-.719 1.708-1.138.2.586.853 1.072 1.02 1.791.42-.284 1.072-.586 1.423-.937.252.301.536.803.888.987.25-.485 1.088-1.171 1.255-1.707.15.134.318.268.469.402 3.263-2.31 2.728-11.231-2.227-11.131 2.076 2.477 5.055 8.654-.552 8.922-4.519.217-5.473-4.921-3.816-7.583" fill="#224BB2"/><path d="M89.613 184.699c-1.74 1.205-1.506 4.703.97 4.117 2.897-.669 1.29-5.189-1.037-3.615m-12.384 86.383c-.82 2.31-.435 4.838 1.021 6.729-.05-1.272-.134-2.728.134-3.917 1.072 3.766 2.394 8.738 5.792 11.131-.737-2.209-2.176-4.519-2.16-7.047 1.841 3.181 4.084 6.562 8.068 7.08-1.958-1.774-3.498-4.017-5.139-6.159 2.729 2.176 5.323 6.528 9.357 5.323-1.557-2.293-3.482-4.921-5.942-6.11 2.762 1.54 6.026 3.08 8.369 5.072-.318-2.444-2.862-5.457-4.754-6.896 2.344 1.423 4.302 3.532 6.913 4.368-1.406-2.979-2.728-4.954-5.557-6.711 3.08.318 5.105 2.259 7.314 4.151.318-3.164-1.121-8.687-4.753-9.675 2.31.77 5.306 2.009 5.825 4.703-.101-3.531-3.515-7.515-7.198-6.795 2.996-.301 5.172.284 7.365 2.193-1.774-5.29-6.143-6.428-10.428-5.942 1.925-.62 4.302-1.088 6.177-.285-2.946-3.967-7.75-2.025-11.633-1.874 1.573-.938 3.448-1.139 5.29-.888-4.47-1.774-6.847.854-10.63 2.31 6.378.218 15.115 1.222 12.788 9.942-.87 3.248-4.335 6.26-7.867 5.959-3.933-.335-5.222-4.017-8.15-5.875" fill="#224BB2"/><path d="M79.366 266.764c-.804 2.142.452 6.31 3.531 4.084 2.963-2.142-.736-6.377-3.314-3.799m31.136-32.572c-2.828 1.757-6.41 5.54-6.142 9.072 1.406-1.808 3.046-3.114 4.921-4.553-3.365 3.281-4.168 8.101-3.047 12.486.636-2.878 1.49-5.741 3.164-8.117-1.423 3.682-.804 8.335 1.64 11.348.385-2.528-.033-5.373.167-8.018 1.524 2.628 2.896 5.926 3.532 8.804.552-1.372.787-3.029 1.004-4.586 1.155 1.49 1.959 3.515 2.226 5.273 1.122-1.323 1.406-3.498 1.741-5.239 1.189 1.155 1.456 2.912 1.707 4.452.837-1.557 2.762-4.72 1.976-6.243.619 1.054 1.305 1.941 1.824 2.929 3.063-2.511 3.465-8.62.937-11.767 1.239 1.507 1.607 3.649 2.277 5.289 1.238-4.636-4.62-15.716-10.629-13.457 2.193 3.013 5.44 4.151 6.411 8.152.853 3.515-.871 7.364-4.52 8.737-3.514 1.322-7.582-1.122-9.389-4.051-2.528-4.134-.151-6.276.619-9.909" fill="#224BB2"/><path d="M125.564 280.84c-8.587-2.025-15.098.938-21.793 6.143-8.955 6.963-14.026 13.39-26.11 11.348 8.067 8.118 18.812 6.11 26.713-.903 5.607-4.972 12.754-15.567 20.771-15.366m-3.214 36.187c-4.252 4.603-5.557 10.729-5.674 16.872-.101 4.904 2.644 13.591 9.189 12.754 7.096-.904 6.226-10.293 5.004-14.93-1.439-5.456-4.285-9.54-7.599-14.093-.552-.368-.217.184-.569.469" fill="#C7D7EF"/><path d="M121.849 318.752c-2.427 2.477-5.842 20.704 1.155 19.516 6.577-1.122 1.021-16.638-.871-19.734m-1.522-7.381c-3.682 1.74-1.673 7.632 2.528 5.841 4.184-1.774.535-8.57-2.377-5.055" fill="#224BB2"/><path d="M145.637 274.647c-11.917 9.005-.184 20.638 5.038 29.827 2.862 5.022 5.189 11.298 6.21 17.123.987 5.691-.034 11.348-.134 17.006 4.586-6.645 6.846-23.517 1.64-30.48 3.348 2.578 11.231 9.457 11.968-.87.602-8.47-9.189-14.227-15.868-16.32 1.473 2.544 6.428 2.796 7.85-.201 1.423-2.979-2.41-6.126-4.603-7.13-2.577-1.188-5.674-1.188-8.084-2.644-2.008-1.222-3.933-5.089-4.636-5.39" fill="#C7D7EF"/><path d="M114.82 233.991c-4.435 1.657-1.038 5.909 2.929 4.135.117-2.26-1.054-3.867-3.28-3.549" fill="#224BB2"/><path d="M345.97 229.171c12.252-6.946 16.068-11.164 23.065-21.659 8.82-13.223 11.917-27.232 11.917-39.652 0-25.24-8.252-44.154-24.789-56.791-16.537-12.62-36.522-18.913-65.746-18.913h-65.444v271.202H266.8V239.23h40.054c8.637-.016 22.864-.837 39.116-10.059zm-82.216-100.276h26.747c16.688 0 29.475 3.163 38.363 9.49 8.871 6.31 13.323 15.868 13.323 28.622 0 11.666-4.117 20.771-12.335 27.333-8.235 6.544-18.897 9.808-32.02 9.808h-34.095v-75.253h.017z" fill="#034EA2"/><path d="M302.971 204.248H202.344v34.765h100.627v-34.765zm34.547 50.565H202.344v34.765h135.174v-34.765z" fill="#034EA2"/><path d="M200.82 378.857c12.052-21.123 66.918-47.468 85.196-23.584 27.55 36.003-67.487 17.09-80.057 18.445" fill="#C7D7EF"/></svg>