<?xml version="1.0" encoding="utf-8"?>
<!-- Generator: Adobe Illustrator 24.1.2, SVG Export Plug-In . SVG Version: 6.00 Build 0)  -->
<svg version="1.1" id="Слой_1" xmlns="http://www.w3.org/2000/svg" xmlns:xlink="http://www.w3.org/1999/xlink" x="0px" y="0px"
	 viewBox="0 0 425.2 283.46" style="enable-background:new 0 0 425.2 283.46;" xml:space="preserve">
<style type="text/css">
	.st0{fill:#5CB050;}
	.st1{fill:#034EA2;}
	.st2{fill:#F7BC6D;}
	.st3{fill:#FCCF8C;}
	.st4{fill:#C15823;}
	.st5{fill:#262261;}
	.st6{fill:#F37021;}
	.st7{fill:#FFB452;}
	.st8{fill:#602B0D;}
	.st9{fill:none;stroke:#CC2929;stroke-linecap:round;stroke-miterlimit:10;}
	.st10{fill:none;}
	.st11{fill:#5D7CBE;}
	.st12{fill:#703111;}
	.st13{fill:#FAAF40;}
	.st14{fill:#D0D2D3;}
	.st15{fill:#A8DDF3;}
	.st16{fill:#FFFFFF;}
	.st17{fill:#072E72;}
	.st18{fill:#009345;}
	.st19{fill:none;stroke:#009345;stroke-miterlimit:10;}
	.st20{fill:#CC2929;}
</style>
<g>
	<g>
		<path class="st0" d="M355.8,235.4c0-7.41,1.48-22.96,5.92-28.88c0.74,0,1.48,0.74,1.48,0.74l0,0c-1.48-4.44-6.66-11.85-6.66-16.29
			c0.74-9.63,6.66-4.44,9.63,2.96c3.7-9.63,9.63-16.29,11.11-4.44c0.74,7.41-3.7,18.51-7.41,24.44c5.18-7.41,11.85-7.41,8.15,2.22
			c-1.48,5.18-11.11,14.07-14.07,19.25c-2.22-2.22-5.92-2.96-7.41-4.44"/>
	</g>
	<path class="st1" d="M335.13,154.12c-6.46-6.79-15.87-13.23-28.25-16.72c-10.27-2.94-17.7-6.35-22.27-10.24
		c-4.57-3.89-6.86-7.44-6.86-13.26c0-6.55,2.11-10.57,6.33-14.64c4.22-4.07,10.29-6.1,18.2-6.1c8.5,0,13.73,1.13,18.28,5.96
		c4.55,4.83,6.82,11.17,6.82,19h16.46l0.16-0.55c0.27-10.59-2.11-21.18-9.72-29.2c-5.98-6.3-14.38-10.12-23.94-11.47V64.29h-16.94
		v12.78c-7.97,1.35-14.73,4.59-20.28,9.76c-7.5,6.99-12.55,17-12.55,27.42c0,9.95,4.77,19.49,11.74,26.05
		c6.97,6.57,16.67,11.54,29.1,14.91c10.27,2.8,16.14,6.25,20.17,10.36c4.04,4.1,6.05,7.91,6.05,13.99c0,6.57-2.34,10.49-7.02,14.32
		c-4.68,3.84-9.74,4.46-17.76,4.46c-8.18,0-15.04-2.23-20.58-6.71c-5.54-4.46-7.02-8.4-7.02-16.97h-16.46l-0.16,0.55
		c-0.27,12.12,4.1,21.8,13.11,29.06c6.51,5.24,13.73,8.57,21.65,10.03v14.19h16.94v-13.81c9.09-1.08,16.73-4.18,22.86-9.36
		c7.75-6.55,11.62-15.21,11.62-25.98C344.82,169.33,341.59,160.91,335.13,154.12z"/>
	<g>
		<path class="st2" d="M397.06,251.75c-11.85-28.88-49.62-25.18-73.31-22.22c-11.85,1.48-19.99-7.41-32.58-11.11
			c-12.59-3.7-24.44-5.18-37.03-3.7c-11.11,1.48-19.99,8.89-29.62,10.37c-10.37,0.74-21.48-8.15-31.1-10.37
			c-21.48-5.92-37.77,0-57.76,7.41c-18.51,6.66-35.55-6.67-55.54-2.96c-17.03,3.7-39.25,11.11-49.62,25.92v0.74
			c-1.41,2.24-2.38,4.29-2.97,6.17h368.93C396.66,251.92,396.86,251.84,397.06,251.75z"/>
	</g>
	<g>
		<path class="st3" d="M113.34,145.72c-3.04-4.88-10.43-7.44-16.06-6.66c-6.97,0.96-8.52,6.68-9.49,12.74
			c-1.83,11.47-5.5,27.06-16.93,33.28c2.28,8.03,11.86,1.73,14.62-2.39c-2.95,3.57-7.39,5.39-10.13,9.04
			c-3.27,4.35-1.71,10.35-5.74,14.03c9.35-8.36,18.18-13.55,22.07-25.17c-1.55,5.06-2.87,11.44-6.56,15.45
			c-3.33,3.63-8.82,4.51-9.99,9.76c4.61-6.03,13.08-7.5,17.62-14.2c3.76-5.54,5.44-14.32,3.4-20.81c2.53,5.85,1.14,9.52-0.43,15.2
			c4.31-3.92,7.4-10.98,6.58-17.05c-0.69-5.17-3.35-11.7,2.14-15.33c-1.89-0.98-4.04-0.81-5.85-0.24
			c5.46-11.25,10.78,3.02,15.76,2.21C114.5,152.26,114.58,148.34,113.34,145.72"/>
		<path class="st4" d="M253.34,125.25c1.76-0.47,3.58-2.43,4.91-0.49c1.01,1.46-0.34,5.04-0.97,6.36c-1.69,3.52-4.48,6.56-6.64,9.9
			c-2.4,3.71-5.01,7.41-6.42,11.6c-1.31,3.92-2.2,8.09-5.32,10.98c-2.36,2.19-4.72,5.34-7.06,7.22c-1.36-2.48-2.77-8.33-1.8-11.08
			c0.68-1.92,1.9-2.14,3.65-2.72c2.03-0.67,2.92-1.18,4.37-3.03c4.36-5.57,7.45-13.57,8.04-20.41c-2.05,0.01-3.95,1.87-6.04,2.38
			c-2.19,0.53-4.62,0.34-6.91,0.34c-4.66,0-8.75-1.26-13.26-0.82c-2.53,0.25-11.5,3.1-12.46-0.56c-0.88-3.36,5.5-6.74,7.69-7.8
			c4.94-2.39,10.55-3.77,15.82-5.4c5.34-1.66,8.89-0.53,14.04-0.07c2.47,0.22,10.19-0.88,10.57,2.49"/>
		<path class="st4" d="M156.16,176.26c-3.51,7.01-11.21,11.12-17.86,16.03c-2.96,2.18-5.59,4.63-8.93,6.24
			c-1.67,0.8-3.32,1.31-5.11,1.78c-1.55,0.4-4.17,0.39-5.6,1.17c-2.95,1.59-4.45,6.16-5.67,8.81c-1.66,3.61-2.85,6.15-2.23,10.07
			c0.55,3.5,2.57,5.32,5.43,7.74c1.58,1.33,2.08,2.28,2.42,4.11c0.52,2.77,0.22,2.78-2.75,2.61c-1.64-0.09-4.59,0.26-5.81-0.71
			c-1.14-0.9-0.99-3.41-1.39-4.63c-1.11-3.35-5.5-4.14-5.3-7.79c0.18-3.32,1.89-7.01,2.86-10.19c1-3.28,2.04-6.53,3-9.85
			c0.94-3.25,1.07-6.45,4.59-8.52c5.46-3.21,11.67-5.02,17.04-8.42c6.2-3.93,10.52-9.1,17.61-12.07c2.35-0.98,3.7-1.54,5.73,0.22
			c1.19,1.03,2.84,3.25,1.47,4.51"/>
		<path class="st5" d="M158.26,93.61c0.68-0.52,1.27-1.26,1.94-1.81c0.57,0.66,0.84,1.91,1.48,2.51c0.64,0.61,1.82,0.66,2.66,0.82
			c2,0.38,4.1,0.5,6.07,0.99c-1.74,2.22-4.27,2.08-6.76,1.5c-2.11-0.49-5.66-1.66-5.53-3.88"/>
		<path class="st5" d="M159.49,95.51c0-0.05,0-0.09,0.01-0.13c-0.13-0.05-0.27-0.09-0.4-0.14
			C159.05,95.25,159.51,95.54,159.49,95.51z"/>
		<path class="st2" d="M148.44,40.39c-0.16,2.59,1.5,4.42,1.38,6.91c-0.09,2.04-1.34,3.54-2.79,4.98
			c2.66,4.09,2.69,15.91,9.16,16.83c0.78-2.32,1.86-4.98,2.2-7.42c0.44-3.12-0.34-6.18,0.89-9.1c2.95,1.29,3.75-5.51,4.14-7.22
			c0.83-3.71,1.42-6.41-0.54-9.74c-2.05-3.48-5.65-2.53-8.98-1.65c-4.37,1.16-5.03,3.07-5.47,7.25"/>
		<path class="st4" d="M163.51,37.35c2.28,2.32,6.23,2.11,8.96,0.81c1.81-5.45-8.09-0.39-10.01-1.23c0.43,0.25,0.95,0.6,1.33,0.84"
			/>
		<path class="st6" d="M172.61,37.37c-0.83,0.08-1.29,0.94-2.08,1.19c-0.75,0.23-2.37,0.17-3.15,0.04
			c-1.61-0.28-3.84-1.49-5.12-2.53c-1.98-1.61-3.39-3.03-5.97-3.74c-2.89-0.79-5.5-0.55-8.43-0.23c-4.34,0.47-12.12,3.24-9.47,8.98
			c0.91,1.97,3.48,2.81,5.36,3.28c1.21,0.3,2.1,0.23,3.32,0.17c1.5-0.07,2.02-0.21,1.41-1.83c-0.41-1.09-1.28-1.57-0.86-2.88
			c0.26-0.8,0.97-1.56,1.66-2.07c1.8-1.34,4.17-1.65,6.36-1.66c2-0.01,4.76,0.38,6.39,1.62c1.7,1.29,1.83,3.42,1.93,5.41
			C173.46,39.67,172.61,37.37,172.61,37.37"/>
		<path class="st6" d="M146.92,35.14c0.93-2.04,2.36-4.34,3.49-6.36c0.97-1.74,1.75-4.55,3.84-5.26c1.29-0.44,2.12,0.03,3.08,0.8
			c1.24,1,1.44,1.17,3.14,1.01c2.39-0.21,4.66,0.82,4.7,3.59c0.02,1.65-0.55,3.33-0.72,4.97c-0.16,1.61-0.16,3.19-0.27,4.82
			c-1.23-0.73-2.55-1.35-3.88-1.89c-1.4-0.57-2.56-1.58-3.97-2.08c-1.51-0.53-3.2-0.41-4.84-0.28c-1.54,0.13-3.48,0.94-4.98,0.38"/>
		<g>
			<path class="st7" d="M172.55,36.37c-0.09,0.05-0.17,0.11-0.2,0.19c-1.94,4.85-10.97-1.25-13.99-2.47
				c-4.51-1.81-10.77-3.03-15.44-1.16c-3.53,1.42-7.4,4.93-4.49,8.77c2.46,3.25,7.81,3.77,11.31,2.27c0.68-0.29,0.07-0.73-0.44-0.51
				c-3.94,1.68-13.35-0.95-10.28-6.73c3.31-6.23,13.1-3.83,18.29-2.16c3.48,1.12,12.22,7.64,15.31,2.93
				C172.62,37.08,172.82,36.69,172.55,36.37z"/>
		</g>
		<path class="st8" d="M148.27,40.67c0.31,2.35,2.04,4.59,2.35,6.86c-0.47,0.2-1.13,0.29-1.61,0.29c-0.61-2.34-0.61-4.54-2.14-6.6
			c0.37-0.68,0.92-0.78,1.75-0.83"/>
		<path class="st8" d="M148.17,40.81c-2.38-0.23,0.72-3.29,1.52-3.73c1.62-0.89,3.48-1.18,5.26-1.38c3.03-0.33,8.35-0.11,8.82,3.7
			c-1.72-1.43-3.93-2.32-6.2-2.74c-2.43-0.45-4.35,0.92-5.95,2.71c0.07-1.11-1.36-0.9-1.94-0.37c-0.62,0.57-0.73,1.68-0.65,2.46
			c0.11,1.1,2.14,4.61,0.38,4.74c-0.69-0.69-2.09-4.75-1.52-5.4"/>
		<path class="st9" d="M160.75,47.58c-0.95,0-1.57,0.05-2.38-0.38c-0.54-0.29-1.21-1.04-1.35-1.01"/>
		<path class="st10" d="M156.05,69.56c-0.8-3.03-1.31-5.95,1.91-7.72c-0.7,1.45-1.87,2.43-2.05,4.13c-0.16,1.52,0.68,3.03,0,4.42"/>
		<path class="st11" d="M143.52,50.81c-0.37,0.07-0.71,0.2-1.02,0.39L143.52,50.81z"/>
		<path class="st11" d="M135.05,69.32c-1.14,1.73-1.61,2.62-3.58,3.39c0.01,0.15,0.04,0.3,0.08,0.45
			C133.25,72.12,134.74,70.84,135.05,69.32z"/>
		<path class="st11" d="M180.47,65.57c-0.41-0.88-0.41-1.89-0.96-2.68c-2.68,1.85-5.63,3.53-8.26,5.53c-1.06,0.8-5.26,4.34-6.4,3.56
			c-0.58-0.4-0.81-2.17-1.1-2.82c-0.46-1.01-1.18-1.98-1.66-3.02c-0.95-2.05-1.49-5.02-3.04-6.68c-0.18-0.19-0.36-0.54-0.49-0.7
			c-0.23,1.87-1.69,6.79-4.18,6.22c-2.38-0.54-2.2-4.85-2.6-6.66c-0.5-2.29-1.3-4.28-3.06-5.86c-1.24-1.11-3.45-2-5.2-1.64
			l-1.02,0.39c0.31-0.19,0.66-0.32,1.02-0.39l0.08-0.03c-1.43-0.97-4.61-0.52-6.05,0.32c-1.93,1.13-3.35,2.71-4.91,4.33
			c-3.18,3.31-6.8,6.18-9.64,9.86c-1.46,1.89-2.44,4.08-3.84,5.98c-1.44,1.95-2.88,3.06-2.24,5.68c1.14,4.68,2.71,8.7,4.8,13.23
			c1.1,2.38,2.25,4.85,3.32,7.12c1,2.12,2.45,4.94,4.19,6.49c0.03-0.1-0.02-0.24,0.01-0.35c0.89-0.35,1.42-1.28,2.32-1.7
			c0.34-0.16,0.65-0.27,0.95-0.37c-1.99-8.42-2.16-17.76-5.61-25.69c-0.07,0-0.13-0.01-0.2,0c0.05-0.03,0.11-0.06,0.16-0.08
			c-0.09-0.21-0.18-0.43-0.28-0.64c0.1,0.21,0.18,0.43,0.28,0.64c1.13-0.59,3-1.4,4.67-2.43c-0.04-0.15-0.07-0.3-0.08-0.45
			c1.97-0.77,2.44-1.65,3.58-3.39c-0.3,1.52-1.8,2.79-3.5,3.84c0.21,0.78,0.79,1.55,0.97,2.37c0.23,1.08,0.32,2.19,0.58,3.26
			c0.5,2.08,1.52,3.96,2.05,5.97c0.54,2.08,0.94,4.26,1.17,6.4c0.22,2.01-0.38,4.18-0.7,6.1c3.21-0.82,6.8-1.22,10.17-1.83
			c3.67-0.67,7.28-1.73,10.92-2.17c0.45-0.05,1.09-0.08,1.55-0.22c0.99-0.3,3.23,0.14,3.46-0.83c0.09-0.38-2.05-7.84-2.34-10.02
			c-0.14-1.03-0.27-2.23-0.57-3.22c0.83,1.22,1.77,3.78,3.19,4.36c1.77,0.73,3.01-0.32,5.65-2.03c2.38-2.2,4.17-3.32,6.76-5.27
			c2.63-1.98,4.89-3.51,7.47-5.53C181.49,69.78,180.85,66.37,180.47,65.57z"/>
		<path class="st6" d="M123.01,96.1c3.46-2.01,6.74-4.8,9.92-7.17c1.45,3.8,3.54,6.82,3.77,11.04c0.11,1.96-0.46,3.98-0.11,5.78
			c0.26,1.37,2.27,4.5,1.1,5.68c-0.64-2-2.63-3.09-4.55-1.89c-2.04,1.28-0.4,3.75,1.6,3.72c-0.1,1.65-4.65,1.26-5.78,0.92
			c-1.44-0.43-1.45-0.96-1.38-2.33c0.07-1.41,0.43-1.73,1.42-2.72c3.52-3.51-1.38-7.03-3.92-9.68c-0.52-0.54-0.97-1.05-1.37-1.69
			c-0.31-0.5-0.65-1.38-0.83-1.24"/>
		<path class="st12" d="M180.6,160.46c1.24,1.1,1.16,2.88,2.17,4.06c1.22,1.42,3.18,0.53,4.76-0.38c-1.33-0.66-3.28-1.42-2.85-3.29
			c1.54-0.35,2.45,1.05,3.7,1.58c1.37,0.58,3.2,0.5,4.76,0.42c1.71-0.09,8.94,0.16,8.44-2.19c-3.51,0.73-7.36,0.9-11.03,1.08
			c-2,0.1-3.53-0.22-5.34-0.92c-1.08-0.42-4.38-1.93-4.8-0.37"/>
		<path class="st6" d="M111.31,147.74c3.68-11.39,15.58-22.31,25.43-28.38c11.01-6.78,22.56-14.61,33.17-22.5
			c4.54-3.37,8.25-6.29,9.96-11.77c1.92-6.13-0.26-11.4-0.01-17.7c0.25-6.19,0.99-12.37,1.86-18.43c0.85-5.89,1.37-13.45,5.05-18.45
			c3.1-4.21,10.02-6.44,15.12-5.43c2.45,0.49,4.11,2.37,6.35,3.24c2.67,1.03,5.48,0.96,8.48,1.11c6.34,0.3,9.38,3.2,15.03,5.25
			c2.08,0.75,5.24,0.75,6.62,2.95c1.97,3.12-0.05,5.23-2.86,5.8c-2.04,0.41-11.44,1.46-11.44,1.46s3.98,3.8,11.01,2.66
			c0.53,5.71-10.41,2.41-12.92,1.86c-4.1-0.89-10.19,0.84-14.97,1.08c-1.36,3.96,3.23,10.7,5.57,13.96
			c1.99,2.78,3.46,4.08,4.61,7.36c1.21,3.45,2.4,6.86,3.51,10.31c3.79,11.81,6.92,37.95,6.92,37.95s-33.97,33.91-53.93,39.46
			c-9.21,2.56-11.58,9.56-14.64,17.69c-2.51,6.67-11.07,9.66-17.71,11.14c-22.19-7.83-30.2-21.9-30.2-28.84
			c0-4.68-1.05-10.46,1.84-14.36"/>
		<path class="st6" d="M200.51,27.58c-1.65-3.49-5.25-6.18-8.79-7.7c-0.23,3.1,1.08,5.89,2.85,8.38c-2.84-0.91-5.02-4.24-6.89-6.46
			c-2.19,10,10.55,10.44,15.41,7.62"/>
		<path class="st6" d="M120.5,163.55c1.48,3.1,2.76,6.21,4.76,9.23c1.97,2.97,4.25,5.05,1.53,8.39c-2.16,2.66-6.13,4.9-9.61,5.99
			c-4.05,1.27-8,1.3-7.74,6.08c0.19,3.5,3.1,6.41,4.63,9.57c1.59,3.28,2.78,6.71,3.39,10.16c0.77,4.41,1.39,9.15,1.11,13.7
			c-0.13,2.05-0.81,3.72,0.84,5.27c1.35,1.26,2.89,1.45,3.93,3.02c0.92,1.39,0.46,3.99,1.64,5.12c0.95,0.9,4.42,1.2,5.76,1.21
			c2.03,0.02,4.53,0.23,5.54-1.39c0.69-1.11-0.22-4.46-0.57-5.57c-1.08-3.48-6.08-3.23-8.09-6.45c-1.81-2.88-3.56-7.54-3.79-10.73
			c-0.3-3.99-1.2-7.68-1.65-11.61c-0.21-1.83-0.93-6.58,0.53-8.05c1.32-1.32,33.86-8.76,36.24-23.73c1.97-1.94,4.82-7.12,4.12-9.76
			c-0.82-3.1-10.44-1.54-13.82-1.61c-3.1-0.06-5.66-1.24-8.5-2.11c-3.01-0.92-5.49-0.65-8.63-0.28c-1.97,0.23-12.13,0.61-11.06,3.54
			"/>
		<path class="st6" d="M221.55,112.81c1.52,2.88,8.22,2.39,11.32,3.06c4.62,0.99,8.07,2.2,13.01,2.2c2.27,0,4.65-0.22,6.91,0
			c2.94,0.28,3.33,1.36,3.32,4.42c-0.02,4.5-0.49,7.93-3.66,11.27c-2.49,2.63-5.19,5.03-7.67,7.6c-2.88,2.98-4.34,6.32-6.57,9.68
			c-4.01,6.04-13.28,7.45-16.16,14.27c-1.76-1.87-3.96-8.7-2.65-11.24c2.38-4.61,8-2.09,11.01-3.65c3.26-1.69,6.12-7.54,7.94-10.53
			c2.05-3.37,5.53-6.5,6.78-10.17c0.1-0.11,0.1-0.1,0.02,0.02c-3.06,1.45-5,3.55-8.39,4.35c-3.43,0.81-6.55,1.12-10.23,1.12
			c-3.58,0-6.9,0.46-10.5,0.28c-1.83-0.1-3.49-0.74-5.25-0.84c-2.04-0.11-3.79,0.62-5.77,0.52c0.33-2.01,2.65-3.98,3.83-5.68
			c1.79-2.56,3.38-5.02,5.53-7.33c2.66-2.84,5.11-6.55,8.02-9.06"/>
		<path class="st3" d="M199.59,27.12c3.48-0.12,3.51,2.33,6.14,3.54c2.18,1.01,5.3,0.11,7.33-0.78c-2.88-1.31-5.05-2.07-8.13-2.76
			c4.18,0,6.54,2.03,10.38,2.72c-1.85-3.71-6.9-5.94-10.74-6.32c-1.52-0.15-5.13-0.5-6.36,0.28c-1.65,1.04-0.36,2.34,0.28,3.59"/>
		<path class="st3" d="M193.78,27.12c1.71,2.22,3.62,3.53,4.58,6.33c-2.03-1.02-4.28-1.3-6.13-2.76c1.05,1.12,0.92,2.37,1.55,3.61
			c0.77,1.5,2,2.29,2.18,4.13c-1.25-0.35-2.71-0.09-4.11-0.24c-1.74-0.19-2.6-0.93-4.1-1.06c0.63,3.15,1.21,11.56-1.96,13.24
			c-2.05,1.09-4.69,1.25-6.92,2.47c-2.78,1.53-5.23,1.52-8.2,2.24c2.4-1.54,4.18-3.65,6.05-5.76c2.64-2.98,0.93-3.24-2.51-3.72
			c0.86-2.12,4.32-4.03,6.02-5.7c-4.85-0.95-4.58-5.12-9.29-6.69c4.16-0.28,8.48,3.85,12.31,1.6c-1.14-1.25-1.78-3.06-3.18-4.09
			c2.22-0.22,6.29-0.09,8.17-0.81c-0.58-1.95-4.32-2.14-5.54-1.94c1.91,0,4.26,0.38,6.13,0.01c1.55-0.31,3.14-1.4,4.42-1.39"/>
		<path class="st3" d="M187.98,43.71c-1.73,2.34-0.93,8.44-1.87,11.4c-1.13,3.56-1.9,6.29-4.17,9.27c3.3,2.61,1.35,9.39,0.27,12.46
			c4.72,1.68-1.59,9.79-2.86,11.88c-2.53,4.16-5.55,7.04-9.56,9.99c-0.69-6,7.2-9.65,7.64-15.15c-3.63,2.23-5.39,5.95-7.71,9.28
			c-0.28-2.81,0.93-6.61,1.95-9.01c1.39-3.27,4.99-5.33,5.78-8.82c-3.94-0.06-6.3,3.65-9.6,4.62c-0.68-3.15,5.79-6.39,7.11-9.31
			c-1.87,0.79-4.78,1.79-6.54,2.96c0.08-2,2.71-2.7,4.04-3.91c1.3-1.19,2.09-2.67,3.07-4.02c-2.76-1.18-5.59,1.46-8.23,1.84
			c0.51-5.24,7.74-6.55,9.33-10.69c-2.09,0.32-4.14,2.09-5.95,3.31c3.3-3.23,5.13-7.38,8.18-10.61c1.68-1.78,3.08-3.1,4.5-5.12
			c2.12-3.02,1.47-1.32,3.74,0.44c0.39-0.49,1.56-1.45,1.45-1.34"/>
		<path class="st13" d="M174.71,94.3c3.78,0.12,7.04,4.68,9.05,7.47c2.78,3.84,3.6,8.41,5.63,12.43c-2.41,2.58-5.6,4.14-8.33,6.36
			c-3.25,2.64-6.4,5.38-9.67,8c-5.58,4.47-11.5,8.8-17.08,13.25c-0.43-6.05-2.33-10.12-6.14-14.91c-2.33-2.93-4.93-8.48-8.52-9.99
			c0.2-2.98,4.67-4.61,6.86-6.24c3.38-2.52,6.46-5.62,9.94-8.15c3-2.18,6.01-4.55,9.06-6.64c2.54-1.74,6.97-1.04,8.65-2.42"/>
		<path class="st13" d="M160.33,136.59c1.37,4.61,3.6,9,5.87,13.27c1.85,3.49,2.87,8,5.75,10.82c1.64-0.77,3.32-0.65,4.93-1.76
			c-3.55-4.13-6.04-8.99-8.6-13.82c-2.17-4.11-3.28-9.38-5.45-12.97C161.75,133.34,160.69,135.03,160.33,136.59"/>
		<path class="st14" d="M185.49,117.8c0.12,2.45,1.7,5.23,2.27,7.73c0.97,4.24,1.87,8.52,2.63,12.79
			c1.03,5.78,2.43,12.11,2.51,17.87c-0.36,0.03-0.67,0.02-1.02,0c0.54-6.18-2.59-13.58-4.13-19.37c-1.58-5.98-3.04-12.16-4.44-18.13
			c0.81-0.45,1.58-0.82,2.45-1.16"/>
		<path class="st5" d="M183.89,103.28c-4.1-1.95-8.16-3.31-12.45-4.76c-3.92-1.33-8.13-1.81-11.93-3.14c0,0.05,0,0.09-0.01,0.13
			c0.02,0.02-0.44-0.26-0.4-0.27c0.13,0.05,0.27,0.09,0.4,0.14c0.13-1.62-0.18-3.11-0.21-4.71c-7.09,1.83-14.91,5.46-22.86,4.02
			c-0.19,6.05,0.46,12.61,3.88,17.55c2.94,1.25,6.46,1.23,9.56,1.55c4.42,0.45,8.83,0.96,13.05,1.6c2.25,0.34,4.51,0.32,6.85,0.33
			c1.2,0,2.53-0.42,3.83-0.67c0.86-0.17-0.65,5.22,0.47,9.3c0.9,3.28,0.98,5.29,1.05,8.74c2.6,0.13,9.48-0.4,12.03-0.28
			c-0.1-1.67-1.51-2.47-1.36-4.13c0.39-4.4,0.09-9.49,0.51-13.8c0.23-2.29,0.44-4.67,0.55-6.91
			C187,105.06,186.51,104.53,183.89,103.28z"/>
		<path class="st4" d="M173.23,130.42c-0.11,2.47,1.79,5.62,2.53,7.92c0.87,2.68,1.47,5.27,2.11,7.92c0.64,2.64,1.51,5.36,1.84,8.07
			c0.29,2.32,0.32,5.79,1.8,7.62c3.32-3.07,6.87,0.95,10.5,0.72c1.98-0.13,3.94-0.62,5.91-0.91c1.75-0.26,4.1-0.35,4.02-2.56
			c-1.25-0.29-2.39-0.7-3.66-0.58c-1.35,0.13-2.83-0.12-3.73-1.11c-1.46-1.58-2.1-3.31-3.05-5.2c-2.53-5.06-2.47-10.96-3.55-16.36
			c-0.31-1.53-0.3-4.21-1.65-4.97c-0.83-0.47-2.01-0.12-2.94-0.56c-1.03-0.48-1.28-1.18-1.99-2.04c-1.45-1.77-2.59-2.14-4.05-0.13
			c-0.49,0.67-0.85,2.09-1.56,2.5c-0.9,0.53-1.8-0.39-2.54,0.4"/>
		<path class="st14" d="M192.4,155.39c-1.52,1.29-3.06,3.83-3.33,5.8c-0.42,3.04,1.05,2.83,3.57,2.72c0.14-2.48-0.09-5.4,2.01-7.14
			c-0.59-1.1-1.63-1.67-2.25-0.84"/>
		<path class="st15" d="M149.7,50.27c-2.93-2.43-9.07-0.58-12.13,0.7c2.04,0.07,4-0.64,6.04-0.01c2.18,0.68,2.97,2,3.87,3.86
			c1.56,3.22,4.56,5.63,7.66,7.62c-0.93-0.48-2.14-0.56-2.17,0.68c-0.02,0.94,1.28,2.23,1.75,3.04c1.24,2.16,1.49,4.52,2.26,6.72
			c1.7-3.1,2.07-7.2-1.13-9.75c1.25,1.32,2.21,2.77,2.32,4.55c0.1,1.61-0.67,2.91-0.71,4.41c1.27-1.48,2.78-3.64,3.35-5.52
			c0.29-0.93,1.81-4.92-0.51-4.55c1.03-1.49-0.56-3.75-1.7-4.94c0.01,1.17-0.09,3.33-1.92,2.9c-1.17-0.28-2.5-2.46-3.01-3.36
			c-0.74-1.32-1.02-2.86-1.93-4.12c-0.52-0.71-2.3-2.07-2.34-2.38"/>
		<path class="st16" d="M157.57,61.26c-2.33-0.26-3.82-3.18-4.94-4.98c-1.33-2.13-2.79-3.98-5.03-5.2
			c2.63,3.97,4.61,9.67,9.95,10.58c-0.27-0.62-1.52-2.42,0.16-2.34c0.97,0.05,1.43,1.69,1.36,2.47c-0.59,0.1-1.35,0.06-1.5-0.39"/>
		<path class="st16" d="M157.84,61.96c-0.89,0-2.34,0.15-2.76,0.83c-0.56,0.91,0.03,2.54,0.31,3.42c0.69,2.14,0.93,3.85,0.93,6.13
			c0.63-1.62,1.21-3.53,1.38-5.55c0.09-1.02,1.21-4.31,0-4.7"/>
		<path class="st16" d="M156.46,72.18c0.29-1.85,2-3.4,2.21-5.39c0.18-1.71-0.15-3.42-0.82-4.93c1.91,1.4,2.38,3.42,1.74,5.62
			c-0.26,0.9-0.55,1.92-1.17,2.66c-0.51,0.61-1.89,1.15-1.97,1.63"/>
		<g>
			<path class="st17" d="M126.75,109.55l-0.04,0c-1.74,0-3.9,0.21-5.88,0.89c-0.99,0.34-1.93,0.8-2.75,1.42
				c-0.82,0.63-1.51,1.43-1.93,2.43c-0.29,0.68-0.44,1.34-0.44,1.97c0,0.93,0.33,1.77,0.85,2.43c0.78,1,1.93,1.65,3.14,2.13
				c1.21,0.47,2.49,0.75,3.6,0.89c1.34,0.17,2.89,0.3,4.49,0.3c1.41,0,2.86-0.1,4.23-0.38c1.38-0.28,2.69-0.74,3.81-1.48
				c0.85-0.56,1.5-1.21,1.95-1.93c0.45-0.72,0.68-1.5,0.68-2.29c0-0.91-0.31-1.8-0.85-2.59c-0.55-0.79-1.33-1.49-2.32-2.07
				c-1.44-0.83-3.26-1.13-5.16-1.13c-1.46,0-2.96,0.19-4.35,0.5c-1.39,0.31-2.66,0.75-3.68,1.28c-1.39,0.73-2.54,1.8-3.35,3.04
				c-0.81,1.24-1.28,2.66-1.28,4.09c0,1.13,0.3,2.26,0.96,3.27c0.66,1.01,1.66,1.88,3.01,2.51c1.3,0.61,2.86,0.88,4.52,0.88
				c2.75,0,5.76-0.74,8.18-2.17c1.2-0.71,2.26-1.6,3.03-2.69c0.77-1.08,1.25-2.36,1.26-3.78v0v-0.08c0-1.64-0.42-3.03-1.17-4.15
				c-0.56-0.84-1.29-1.52-2.12-2.06c-1.25-0.81-2.71-1.32-4.25-1.63c-1.54-0.31-3.15-0.43-4.69-0.43c-1.96,0-3.81,0.19-5.27,0.42
				c-1.99,0.32-3.56,1.38-4.58,2.81c-1.02,1.43-1.53,3.19-1.53,4.99c0,2.08,0.68,4.22,2.1,5.91c1.15,1.36,2.91,2.26,4.88,2.87
				c1.97,0.6,4.17,0.88,6.22,0.88c1.89,0,3.65-0.24,5.04-0.74c1.82-0.67,3.29-1.85,4.29-3.32c1-1.47,1.55-3.24,1.55-5.06
				c0-0.96-0.15-1.93-0.46-2.89c-0.26-0.8-0.62-1.59-1.15-2.28c-0.53-0.69-1.24-1.29-2.14-1.64c-0.78-0.3-1.58-0.34-2.25-0.42
				c-0.34-0.04-0.65-0.08-0.89-0.14c-0.25-0.06-0.43-0.14-0.55-0.22l-0.97,1.35c0.36,0.26,0.75,0.39,1.12,0.49
				c0.57,0.14,1.13,0.17,1.64,0.23c0.51,0.05,0.97,0.12,1.29,0.25c0.59,0.24,1.05,0.61,1.44,1.11c0.38,0.5,0.68,1.11,0.89,1.78
				c0.26,0.79,0.38,1.59,0.38,2.38c0,1.5-0.45,2.93-1.26,4.13c-0.82,1.2-2,2.15-3.49,2.7c-1.11,0.41-2.73,0.64-4.47,0.64
				c-1.9,0-3.96-0.27-5.74-0.81c-1.79-0.54-3.28-1.36-4.09-2.34c-1.14-1.36-1.71-3.13-1.71-4.85c0-1.48,0.42-2.92,1.22-4.02
				c0.8-1.1,1.94-1.88,3.5-2.14c1.37-0.22,3.15-0.4,5-0.4c2.6,0,5.34,0.36,7.33,1.38c1,0.51,1.8,1.16,2.35,2
				c0.55,0.84,0.89,1.87,0.89,3.23v0.07v0c-0.01,1.06-0.35,1.98-0.95,2.83c-0.9,1.27-2.43,2.33-4.21,3.05
				c-1.78,0.72-3.81,1.11-5.64,1.11c-1.47,0-2.82-0.25-3.81-0.72c-1.11-0.53-1.86-1.2-2.33-1.92c-0.47-0.73-0.69-1.52-0.69-2.36
				c0-1.06,0.36-2.18,1.01-3.19c0.65-1,1.6-1.89,2.73-2.47c0.84-0.44,2-0.84,3.28-1.13c1.28-0.29,2.67-0.46,3.99-0.46
				c1.71-0.01,3.29,0.3,4.32,0.91c0.81,0.47,1.41,1.02,1.79,1.58c0.38,0.56,0.56,1.11,0.56,1.65c0,0.47-0.13,0.94-0.43,1.42
				c-0.3,0.48-0.77,0.97-1.45,1.42c-0.88,0.58-1.99,0.99-3.22,1.24c-1.23,0.25-2.57,0.35-3.9,0.35c-1.51,0-3-0.13-4.29-0.29
				c-1.32-0.16-2.96-0.57-4.19-1.24c-0.61-0.33-1.12-0.73-1.44-1.15c-0.33-0.43-0.5-0.87-0.5-1.41c0-0.37,0.08-0.8,0.3-1.31
				c0.3-0.7,0.78-1.28,1.42-1.77c0.95-0.73,2.25-1.24,3.61-1.55c1.37-0.31,2.8-0.42,4-0.42v-0.59l-0.02,0.59l0.02,0v-0.59
				l-0.02,0.59L126.75,109.55L126.75,109.55z"/>
			<path class="st17" d="M136.14,119.85c-0.44,1.4-1.6,2.77-3.04,3.98c-1.44,1.21-3.12,2.25-4.51,3.08
				c-3.36,1.99-7.09,3.08-10.85,3.08c-2.3,0-4.61-0.4-6.86-1.26c-3.91-1.48-7.81-3.62-11.86-5.41c-4.05-1.79-8.25-3.25-12.8-3.3
				c-0.06,0-0.11,0-0.18,0c-3.94,0-8.12,1.42-11.58,3.85c-3.45,2.43-6.19,5.89-7.08,10.03c-0.12,0.58-0.18,1.13-0.18,1.66
				c0,1.09,0.25,2.08,0.7,2.93c0.67,1.28,1.77,2.24,3.05,2.87c1.28,0.63,2.75,0.95,4.23,0.95c1.16,0,2.33-0.19,3.44-0.6
				c0.43-0.16,0.65-0.63,0.5-1.06c-0.16-0.43-0.63-0.65-1.06-0.5c-0.91,0.33-1.89,0.5-2.87,0.5c-1.66,0-3.29-0.48-4.44-1.36
				c-0.58-0.44-1.04-0.96-1.37-1.58c-0.32-0.62-0.51-1.33-0.51-2.16c0-0.41,0.05-0.85,0.15-1.32c0.77-3.63,3.22-6.78,6.41-9.02
				c3.19-2.24,7.1-3.55,10.63-3.55c0.05,0,0.1,0,0.16,0c4.19,0.04,8.18,1.4,12.14,3.16c3.96,1.75,7.88,3.9,11.94,5.45
				c2.44,0.93,4.96,1.37,7.45,1.37c4.08,0,8.11-1.18,11.7-3.31c1.41-0.84,3.17-1.92,4.73-3.23c1.56-1.32,2.95-2.87,3.55-4.75
				c0.14-0.44-0.1-0.9-0.54-1.04C136.74,119.17,136.27,119.41,136.14,119.85L136.14,119.85z"/>
		</g>
	</g>
	<g>
		<path class="st0" d="M54.41,238.44c0-7.44,0-23.66-2.7-33.12c2.03-2.03,14.2-10.14,12.17-14.2c-2.03-4.06-12.17,0-14.87,2.03
			c-0.68-4.73-4.06-26.36-10.82-25.69c-9.46,1.35-2.03,22.98-1.35,27.72c-2.7-4.06-4.73-16.22-14.2-12.84
			c-10.82,4.06,1.35,12.84,4.73,16.22c8.11,6.08,8.11,9.46,10.14,19.6c1.35,8.11,3.38,16.22,3.38,24.34c4.73,0,8.79-1.35,12.84-3.38
			"/>
		<path class="st18" d="M42.5,178.2c0.34-0.45,0.74-0.95,1.1-1.35c0.18-0.2,0.36-0.37,0.51-0.49c0.15-0.12,0.28-0.18,0.34-0.19
			l-0.06-0.45c-0.2,0.03-0.38,0.14-0.56,0.28c-0.54,0.43-1.17,1.24-1.69,1.91L42.5,178.2L42.5,178.2z"/>
		<path class="st18" d="M45.77,186.35c1.17-0.94,2.27-2.11,3.56-2.67l-0.18-0.41c-1.4,0.62-2.52,1.83-3.66,2.73L45.77,186.35
			L45.77,186.35z"/>
		<path class="st18" d="M32.61,171.95c0.54,0.27,1.3,0.6,1.99,0.96c0.69,0.35,1.31,0.75,1.53,1.07l0.36-0.26
			c-0.33-0.45-0.98-0.84-1.69-1.21c-0.71-0.37-1.47-0.7-2-0.96L32.61,171.95z"/>
		<path class="st18" d="M36.09,202.78c-0.27-0.09-0.55-0.13-0.85-0.13c-1.13,0-2.41,0.57-3.52,1.04l0.18,0.41
			c1.1-0.48,2.37-1.01,3.35-1.01c0.25,0,0.49,0.03,0.7,0.11L36.09,202.78L36.09,202.78z"/>
		<path class="st18" d="M28.01,191.99c0.51,0.88,1.34,1.74,2.19,2.19l0.21-0.4c-0.75-0.39-1.55-1.21-2.01-2.02L28.01,191.99
			L28.01,191.99z"/>
		<path class="st18" d="M49.13,213.92c0.36-0.69,0.9-1.66,1.45-2.5c0.28-0.42,0.55-0.8,0.81-1.08c0.25-0.29,0.49-0.48,0.62-0.52
			l-0.15-0.43c-0.28,0.1-0.53,0.33-0.81,0.65c-0.82,0.93-1.78,2.62-2.32,3.67L49.13,213.92z"/>
		<path class="st18" d="M42.7,219.86c0.06,0.36,0.21,0.87,0.34,1.32c0.07,0.22,0.13,0.42,0.18,0.57c0.02,0.07,0.04,0.13,0.06,0.18
			l0.02,0.05l0.01,0.02l0.01,0.01l0.02,0.03l0.38-0.24l-0.17,0.11l0.19-0.08l-0.01-0.03l-0.17,0.11l0.19-0.08l-0.1,0.04l0.1-0.04
			l0,0l-0.1,0.04l0.1-0.04c0-0.01-0.04-0.12-0.09-0.27c-0.15-0.45-0.41-1.33-0.49-1.78L42.7,219.86z"/>
		<path class="st18" d="M34.52,223.65l0.11,0c0.73,0,1.46,0.3,2.15,0.74c0.69,0.44,1.33,1.02,1.87,1.55l0.1,0.1l0.13-0.05
			c0.07-0.03,0.12-0.05,0.18-0.09c0.06-0.04,0.12-0.14,0.12-0.23c0-0.11-0.05-0.17-0.08-0.21c-0.09-0.12-0.16-0.19-0.17-0.27
			l-0.44,0.07c0.03,0.18,0.12,0.3,0.18,0.38l0.07,0.08l0,0.01l0.06-0.03l-0.06,0.02l0.01,0.01l0.06-0.03l-0.06,0.02l0.14-0.05
			l-0.14,0l0.01,0.05l0.14-0.05l-0.14,0h0.14l-0.09-0.12c-0.01,0-0.05,0.06-0.05,0.12h0.14l-0.09-0.12l0.02,0.03l-0.02-0.03l0,0
			l0.02,0.03l-0.02-0.03l-0.05,0.02l0.07,0.21l0.16-0.16c-0.55-0.54-1.21-1.14-1.94-1.61c-0.73-0.47-1.54-0.82-2.4-0.82
			c-0.04,0-0.09,0-0.13,0L34.52,223.65L34.52,223.65z"/>
		<path class="st18" d="M44.35,206.29c0-0.08,0-0.18,0-0.27c0-0.56,0.05-1.32,0.14-1.94c0.04-0.31,0.1-0.58,0.16-0.76
			c0.03-0.09,0.06-0.16,0.07-0.18l0.01-0.01l-0.02-0.01l0.01,0.02l0,0l-0.02-0.01l0.01,0.02l-0.09-0.1v0.13
			c0.05,0,0.08-0.03,0.09-0.03l-0.09-0.1v0.13v-0.14l-0.08,0.12l0.08,0.02v-0.14l-0.08,0.12l0.04-0.07l-0.05,0.06l0.01,0.01
			l0.04-0.07l-0.05,0.06l0.01-0.01l-0.01,0.01l0,0l0.01-0.01l-0.01,0.01l0,0l0.36-0.27c-0.03-0.04-0.06-0.07-0.1-0.1
			c-0.04-0.03-0.1-0.05-0.17-0.05c-0.08,0-0.15,0.04-0.2,0.07c-0.08,0.07-0.12,0.15-0.16,0.23c-0.07,0.15-0.12,0.35-0.16,0.58
			c-0.14,0.69-0.22,1.7-0.22,2.42c0,0.1,0,0.2,0.01,0.29L44.35,206.29L44.35,206.29z"/>
		<path class="st18" d="M52.46,193.37c-0.01-0.16-0.02-0.32-0.02-0.49c0-1.74,0.66-3.66,1.78-4.95l-0.17-0.15l-0.22-0.01
			c-0.01,0.18-0.02,0.37-0.02,0.57c0,0.08,0,0.17,0.01,0.26l0.45-0.04c-0.01-0.07-0.01-0.14-0.01-0.22c0-0.18,0.01-0.36,0.02-0.54
			l0.04-0.66l-0.43,0.5c-1.2,1.39-1.89,3.39-1.89,5.25c0,0.18,0.01,0.35,0.02,0.52L52.46,193.37z"/>
		<path class="st18" d="M21.44,186c-1.14-1.02-2.13-2.05-3.36-2.97l-0.1-0.08L17.87,183c-0.06,0.02-0.11,0.05-0.15,0.07l-0.07,0.06
			c-0.03,0.03-0.06,0.08-0.06,0.17c0,0.06,0.03,0.12,0.06,0.16c0.06,0.06,0.09,0.07,0.13,0.08c0.05,0.02,0.09,0.03,0.14,0.03
			c0.07,0.01,0.14,0.02,0.19,0.03l0.05,0.02l0,0l0,0v0l0,0l0,0l0.06-0.09l-0.08,0.07l0.02,0.02l0.06-0.09l-0.08,0.07l0.35-0.28
			c-0.08-0.09-0.16-0.11-0.22-0.14c-0.1-0.03-0.2-0.04-0.27-0.06l-0.06-0.01l-0.04,0.12l0.08-0.1l-0.04-0.02l-0.04,0.12l0.08-0.1
			l-0.12,0.16l0.17-0.1l-0.05-0.05l-0.12,0.16l0.17-0.1l-0.18,0.11h0.21c0-0.04-0.01-0.08-0.03-0.11l-0.18,0.11h0.21h-0.2l0.15,0.13
			c0.01-0.02,0.05-0.06,0.05-0.13h-0.2l0.15,0.13l-0.09-0.08l0.07,0.1l0.02-0.02l-0.09-0.08l0.07,0.1l-0.01-0.01l0.01,0.01l0,0
			l-0.01-0.01l0.01,0.01c0,0,0.03-0.02,0.08-0.04l-0.08-0.21l-0.14,0.18c1.19,0.89,2.17,1.91,3.33,2.95L21.44,186z"/>
		<path class="st18" d="M51.77,222.71c1.26-0.94,2.42-2.03,3.61-3.01l-0.29-0.35c-1.21,1-2.36,2.07-3.6,3L51.77,222.71z"/>
	</g>
	<path class="st19" d="M367.9,185.73c0.05,1.55,0.78,2.7,1.06,4.25c0.5-0.08,0.05-0.34,0.26-0.63"/>
	<path class="st19" d="M374.15,191c1.26,0.03,2.51-0.4,3.62-0.99"/>
	<path class="st19" d="M371.52,195.94c0.18,0.65,0.29,1.29,0.33,1.97"/>
	<path class="st19" d="M362.3,197.25c-1.31-0.49-2.81-0.35-4.25-0.26c0.08,0.49,0.33,0.07,0.63,0.26"/>
	<path class="st19" d="M375.47,215.03c1.46-0.49,2.84-1.05,4.28-1.65"/>
	<path class="st19" d="M355.72,185.07c0.63,1.42,1.61,2.73,2.63,3.95"/>
	<path class="st19" d="M360,217.33c-0.99-1.32-3.87-3.23-3.62-3.62"/>
	<path class="st19" d="M372.18,204.49c1.96-0.17,5.71-2.72,6.25-2.3"/>
	<path class="st19" d="M367.57,204.16c-0.17,1.44,0.14,2.89,0.33,4.28"/>
	<path class="st19" d="M366.25,219.96c0.14,1.23,0.34,2.92,0.66,3.29"/>
	<path class="st19" d="M370.86,222.27c2.23-0.24,5.47-0.7,7.24-1.65"/>
	<path class="st20" d="M376.11,179.86c-1.41,0.68-2.34,4.93-1.98,6.67c1.89,0.16,4.18,0.73,5.57-0.81c1.56-1.73,0.48-2.87-1.68-2.1
		c0.57-0.58,0.77-1.38,1.08-1.81c-0.68,0.52-1.38,0.75-2.03,1.43c0.49-1.04,0.68-2.26,0.46-3.36c-0.58,0.21-1.38,0.51-1.84,0.94"/>
	<path class="st11" d="M32.65,170.55c8.36,6.3,13.51-9.02,6.01-6.84c-0.09,0.8-0.52,1.44-0.55,2.24c-0.83-1.96-2.3-3.44-4.38-3.23
		c-0.7,1.76-0.66,2.91,0.84,4.22c-1.48-4.15-6.21-0.29-2.45,2.4c-0.27-0.15-0.55-0.23-0.86-0.22c0.11,2.13,1.46,2.43,3.37,1.42"/>
	<path class="st11" d="M58.34,186.55c-1.86,2.01-4.64,8.06-0.49,8.9c2.95,0.59,6.6-4.54,6.84-6.85c-1.78,0.69-1.75-0.26-2.92,1.75
		c0.59-1.48,0.37-2.72,0.43-4.24c-0.46,0.13-0.87,0.63-1.26,0.86c-0.02-0.04-0.83-1.37-0.7-1.32c-1.44,0.2-2.25,0.81-2.94,2.39
		c0.21,0.91,0.56,0.11,1.05,0.48"/>
</g>
</svg>
